Roboto_Serif_Display_Cond-Super_Italic_G1.ufo
<glyph name="exclam" format="2">
  <advance width="252"/>
  <unicode hex="0021"/>
  <outline>
    <contour>
      <point x="313" y="731" type="line"/>
      <point x="275" y="541"/>
      <point x="174" y="436"/>
      <point x="148" y="251" type="curve"/>
      <point x="108" y="251" type="line"/>
      <point x="137" y="434"/>
      <point x="72" y="541"/>
      <point x="106" y="731" type="curve"/>
    </contour>
    <component base="period" xOffset="4"/>
  </outline>
</glyph>
<glyph name="numbersign" format="2">
  <advance width="476"/>
  <unicode hex="0023"/>
  <outline>
    <contour>
      <point x="60" y="0" type="line"/>
      <point x="102" y="0" type="line"/>
      <point x="304" y="750" type="line"/>
      <point x="262" y="750" type="line"/>
    </contour>
    <contour>
      <point x="5" y="195" type="line"/>
      <point x="428" y="195" type="line"/>
      <point x="449" y="309" type="line"/>
      <point x="26" y="309" type="line"/>
    </contour>
    <contour>
      <point x="77" y="461" type="line"/>
      <point x="501" y="461" type="line"/>
      <point x="522" y="575" type="line"/>
      <point x="98" y="575" type="line"/>
    </contour>
    <contour>
      <point x="221" y="0" type="line"/>
      <point x="263" y="0" type="line"/>
      <point x="465" y="750" type="line"/>
      <point x="423" y="750" type="line"/>
    </contour>
  </outline>
</glyph>
<glyph name="asterisk" format="2">
  <advance width="307"/>
  <unicode hex="002A"/>
  <outline>
    <contour>
      <point x="81" y="601" type="curve"/>
      <point x="141" y="680" type="line"/>
      <point x="176" y="658"/>
      <point x="178" y="607"/>
      <point x="222" y="580" type="curve"/>
      <point x="208" y="561" type="line"/>
      <point x="165" y="588"/>
      <point x="116" y="579"/>
    </contour>
    <contour>
      <point x="102" y="461" type="curve"/>
      <point x="71" y="540" type="line"/>
      <point x="113" y="562"/>
      <point x="157" y="550"/>
      <point x="212" y="580" type="curve"/>
      <point x="219" y="562" type="line"/>
      <point x="165" y="532"/>
      <point x="144" y="483"/>
    </contour>
    <contour>
      <point x="235" y="430" type="curve"/>
      <point x="144" y="430" type="line"/>
      <point x="152" y="474"/>
      <point x="194" y="513"/>
      <point x="204" y="570" type="curve"/>
      <point x="225" y="570" type="line"/>
      <point x="215" y="514"/>
      <point x="243" y="474"/>
    </contour>
    <contour>
      <point x="195" y="710" type="curve"/>
      <point x="286" y="710" type="line"/>
      <point x="278" y="666"/>
      <point x="236" y="627"/>
      <point x="226" y="570" type="curve"/>
      <point x="205" y="570" type="line"/>
      <point x="215" y="626"/>
      <point x="187" y="666"/>
    </contour>
    <contour>
      <point x="289" y="460" type="line"/>
      <point x="254" y="482"/>
      <point x="252" y="533"/>
      <point x="208" y="560" type="curve"/>
      <point x="222" y="579" type="line"/>
      <point x="265" y="552"/>
      <point x="314" y="561"/>
      <point x="349" y="539" type="curve"/>
    </contour>
    <contour>
      <point x="359" y="600" type="line"/>
      <point x="317" y="578"/>
      <point x="274" y="590"/>
      <point x="220" y="560" type="curve"/>
      <point x="211" y="578" type="line"/>
      <point x="265" y="608"/>
      <point x="286" y="657"/>
      <point x="328" y="679" type="curve"/>
    </contour>
  </outline>
</glyph>
<glyph name="plus" format="2">
  <advance width="418"/>
  <unicode hex="002B"/>
  <outline>
    <contour>
      <point x="246" y="549" type="line"/>
      <point x="172" y="133" type="line"/>
      <point x="206" y="133" type="line"/>
      <point x="280" y="549" type="line"/>
    </contour>
    <contour>
      <point x="433" y="354" type="line"/>
      <point x="27" y="354" type="line"/>
      <point x="21" y="328" type="line"/>
      <point x="427" y="328" type="line"/>
    </contour>
  </outline>
</glyph>
<glyph name="comma" format="2">
  <advance width="225"/>
  <unicode hex="002C"/>
  <outline>
    <contour>
      <point x="50" y="-130" type="line"/>
      <point x="142" y="-77"/>
      <point x="179" y="-24"/>
      <point x="179" y="50" type="curve" smooth="yes"/>
      <point x="179" y="122"/>
      <point x="140" y="158"/>
      <point x="92" y="158" type="curve" smooth="yes"/>
      <point x="45" y="158"/>
      <point x="10" y="124"/>
      <point x="10" y="76" type="curve" smooth="yes"/>
      <point x="10" y="32"/>
      <point x="37" y="-2"/>
      <point x="86" y="-2" type="curve" smooth="yes"/>
      <point x="112" y="-2"/>
      <point x="140" y="10"/>
      <point x="146" y="23" type="curve"/>
      <point x="155" y="26"/>
      <point x="160" y="16"/>
      <point x="160" y="14" type="curve"/>
      <point x="138" y="-36"/>
      <point x="78" y="-74"/>
      <point x="4" y="-99" type="curve"/>
    </contour>
  </outline>
</glyph>
<glyph name="hyphen" format="2">
  <advance width="332"/>
  <unicode hex="002D"/>
  <outline>
    <contour>
      <point x="70" y="336" type="line"/>
      <point x="52" y="236" type="line"/>
      <point x="288" y="236" type="line"/>
      <point x="306" y="336" type="line"/>
    </contour>
  </outline>
</glyph>
<glyph name="period" format="2">
  <advance width="219"/>
  <unicode hex="002E"/>
  <outline>
    <contour>
      <point x="181" y="75" type="curve" smooth="yes"/>
      <point x="181" y="124"/>
      <point x="150" y="157"/>
      <point x="96" y="157" type="curve" smooth="yes"/>
      <point x="44" y="157"/>
      <point x="12" y="124"/>
      <point x="12" y="75" type="curve" smooth="yes"/>
      <point x="12" y="26"/>
      <point x="44" y="-8"/>
      <point x="96" y="-8" type="curve" smooth="yes"/>
      <point x="150" y="-8"/>
      <point x="181" y="26"/>
    </contour>
  </outline>
</glyph>
<glyph name="zero" format="2">
  <advance width="420"/>
  <unicode hex="0030"/>
  <outline>
    <contour>
      <point x="164" y="-10" type="curve"/>
      <point x="289" y="-10"/>
      <point x="429" y="154"/>
      <point x="429" y="377" type="curve" smooth="yes"/>
      <point x="429" y="531"/>
      <point x="363" y="619"/>
      <point x="276" y="619" type="curve"/>
      <point x="151" y="619"/>
      <point x="11" y="455"/>
      <point x="11" y="232" type="curve" smooth="yes"/>
      <point x="11" y="78"/>
      <point x="77" y="-10"/>
    </contour>
    <contour>
      <point x="169" y="5" type="curve" smooth="yes"/>
      <point x="164" y="5"/>
      <point x="161" y="7"/>
      <point x="161" y="21" type="curve" smooth="yes"/>
      <point x="161" y="47"/>
      <point x="173" y="137"/>
      <point x="203" y="304" type="curve" smooth="yes"/>
      <point x="248" y="564"/>
      <point x="256" y="599"/>
      <point x="270" y="599" type="curve" smooth="yes"/>
      <point x="275" y="599"/>
      <point x="278" y="597"/>
      <point x="278" y="583" type="curve" smooth="yes"/>
      <point x="278" y="557"/>
      <point x="266" y="474"/>
      <point x="237" y="305" type="curve" smooth="yes"/>
      <point x="192" y="45"/>
      <point x="183" y="5"/>
    </contour>
  </outline>
</glyph>
<glyph name="two" format="2">
  <advance width="420"/>
  <unicode hex="0032"/>
  <outline>
    <contour>
      <point x="-12" y="0" type="line"/>
      <point x="6" y="102" type="line"/>
      <point x="160" y="198"/>
      <point x="247" y="343"/>
      <point x="247" y="501" type="curve" smooth="yes"/>
      <point x="247" y="561"/>
      <point x="237" y="588"/>
      <point x="212" y="588" type="curve" smooth="yes"/>
      <point x="201" y="588"/>
      <point x="189" y="583"/>
      <point x="176" y="570" type="curve"/>
      <point x="172" y="582"/>
      <point x="185" y="602"/>
      <point x="206" y="608" type="curve"/>
      <point x="172" y="417" type="line"/>
      <point x="67" y="417" type="line"/>
      <point x="93" y="568" type="line"/>
      <point x="124" y="596"/>
      <point x="182" y="619"/>
      <point x="248" y="619" type="curve" smooth="yes"/>
      <point x="372" y="619"/>
      <point x="416" y="539"/>
      <point x="416" y="464" type="curve" smooth="yes"/>
      <point x="416" y="302"/>
      <point x="210" y="168"/>
      <point x="92" y="126" type="curve"/>
      <point x="92" y="145" type="line"/>
      <point x="267" y="145" type="line" smooth="yes"/>
      <point x="314" y="145"/>
      <point x="331" y="149"/>
      <point x="343" y="191" type="curve" smooth="yes"/>
      <point x="362" y="260" type="line"/>
      <point x="388" y="260" type="line"/>
      <point x="342" y="0" type="line"/>
    </contour>
  </outline>
</glyph>
<glyph name="three" format="2">
  <advance width="420"/>
  <unicode hex="0033"/>
  <outline>
    <contour>
      <point x="158" y="-90" type="curve" smooth="yes" identifier="ohn7sd9cH8"/>
      <point x="36" y="-90" identifier="DMj1xmIUuy"/>
      <point x="-21" y="-18" identifier="6QLyJqhuny"/>
      <point x="-24" y="67" type="curve" identifier="uR3be4UGfp"/>
      <point x="-2" y="75" type="line" identifier="le9OjM9Htv"/>
      <point x="9" y="-13" identifier="KY9DqoArdr"/>
      <point x="46" y="-50" identifier="FyLXnofNg4"/>
      <point x="103" y="-50" type="curve" smooth="yes" identifier="bgUM8BwQtG"/>
      <point x="180" y="-50" identifier="rSjzCDd1wE"/>
      <point x="218" y="52" identifier="aLpgyv3Ht9"/>
      <point x="218" y="151" type="curve" smooth="yes" identifier="QwhePGo7TC"/>
      <point x="218" y="239" identifier="QLkMAJgdaY"/>
      <point x="196" y="270" identifier="SZOkYM0ikG"/>
      <point x="138" y="270" type="curve" smooth="yes" identifier="hDvHwkU5li"/>
      <point x="116" y="270" type="line" identifier="qgt09iH6Fx"/>
      <point x="120" y="297" type="line" identifier="Ff5VREDK7I"/>
      <point x="142" y="297" type="line" smooth="yes" identifier="0Uudh5nS5C"/>
      <point x="224" y="297" identifier="k0E2VdVna7"/>
      <point x="270" y="394" identifier="u24RtgEtaL"/>
      <point x="270" y="505" type="curve" smooth="yes" identifier="bWwqqD5hsv"/>
      <point x="270" y="575" identifier="7z5z9AHSsi"/>
      <point x="256" y="589" identifier="yE2U3G21gP"/>
      <point x="236" y="589" type="curve" smooth="yes" identifier="bzPPZ7PBW1"/>
      <point x="219.0" y="589.0" identifier="QhSbxSCHQV"/>
      <point x="206.0" y="579.0" identifier="VJK9MkYq25"/>
      <point x="200" y="562" type="curve" identifier="nQRwQl70Bx"/>
      <point x="191" y="581" identifier="xogK6N6L3f"/>
      <point x="206" y="601" identifier="Q7kvkjN5LO"/>
      <point x="222" y="608" type="curve" identifier="tTKedNT7cQ"/>
      <point x="192" y="435" type="line" identifier="l8AXsxdkxr"/>
      <point x="84" y="435" type="line" identifier="xbb6ADrjT3"/>
      <point x="107" y="568" type="line" identifier="Bt97JxBkTk"/>
      <point x="137" y="594" identifier="Fml6VonJQP"/>
      <point x="198" y="618" identifier="P1XYO5o5z4"/>
      <point x="263" y="618" type="curve" smooth="yes" identifier="9WdUanxhUa"/>
      <point x="379.0" y="618.0" identifier="RH91uiXkG8"/>
      <point x="434" y="562" identifier="IOeobe92FY"/>
      <point x="434" y="481" type="curve" smooth="yes" identifier="0k51CkIYO5"/>
      <point x="434" y="359" identifier="QHxnkLKCNW"/>
      <point x="308" y="280" identifier="dDZ4EpD1XA"/>
      <point x="167" y="280" type="curve" identifier="7hxNfcyLKg"/>
      <point x="218" y="292" type="line" identifier="aVHNBJKyLI"/>
      <point x="212" y="279" type="line" identifier="ut7VbNDCl1"/>
      <point x="183" y="290" type="line" identifier="rbI0jUdvUg"/>
      <point x="323" y="290" identifier="RYzdq8JJUc"/>
      <point x="386" y="221" identifier="zH5kZaRouM"/>
      <point x="386" y="122" type="curve" smooth="yes" identifier="2i3BLbRS7a"/>
      <point x="386" y="-9" identifier="xEV3ZbFLMl"/>
      <point x="284" y="-90" identifier="1BzhfTcIJq"/>
    </contour>
  </outline>
</glyph>
<glyph name="four" format="2">
  <advance width="420"/>
  <unicode hex="0034"/>
  <outline>
    <contour>
      <point x="-12" y="81" type="line"/>
      <point x="368" y="81" type="line"/>
      <point x="386" y="194" type="line"/>
      <point x="30" y="194" type="line"/>
      <point x="38" y="184" type="line"/>
      <point x="276" y="588" type="line"/>
      <point x="289" y="609" type="line"/>
      <point x="266" y="609" type="line"/>
      <point x="2" y="167" type="line"/>
    </contour>
    <contour>
      <point x="293" y="-77" type="line"/>
      <point x="414" y="609" type="line"/>
      <point x="275" y="609" type="line"/>
      <point x="218" y="506" type="line"/>
      <point x="115" y="-77" type="line"/>
    </contour>
  </outline>
</glyph>
<glyph name="five" format="2">
  <advance width="420"/>
  <unicode hex="0035"/>
  <outline>
    <contour>
      <point x="142" y="-90" type="curve" smooth="yes"/>
      <point x="274" y="-90"/>
      <point x="386" y="16"/>
      <point x="386" y="180" type="curve" smooth="yes"/>
      <point x="386" y="301"/>
      <point x="324" y="356"/>
      <point x="226" y="356" type="curve" smooth="yes"/>
      <point x="164.0" y="356.0"/>
      <point x="100" y="319"/>
      <point x="76" y="266" type="curve"/>
      <point x="82" y="264" type="line"/>
      <point x="139" y="590" type="line"/>
      <point x="108" y="464" type="line"/>
      <point x="388" y="464" type="line"/>
      <point x="424" y="609" type="line"/>
      <point x="118" y="609" type="line"/>
      <point x="49" y="215" type="line"/>
      <point x="69" y="215" type="line"/>
      <point x="97" y="273"/>
      <point x="126" y="306"/>
      <point x="159" y="306" type="curve" smooth="yes"/>
      <point x="188" y="306"/>
      <point x="205" y="278"/>
      <point x="205" y="189" type="curve" smooth="yes"/>
      <point x="205" y="57"/>
      <point x="172" y="-53"/>
      <point x="94" y="-53" type="curve" smooth="yes"/>
      <point x="52" y="-53"/>
      <point x="21" y="-18"/>
      <point x="5" y="72" type="curve"/>
      <point x="-17" y="64" type="line"/>
      <point x="-13" y="-20"/>
      <point x="36" y="-90"/>
    </contour>
  </outline>
</glyph>
<glyph name="seven" format="2">
  <advance width="420"/>
  <unicode hex="0037"/>
  <outline>
    <contour>
      <point x="179" y="464" type="line" smooth="yes"/>
      <point x="141" y="464"/>
      <point x="130" y="453"/>
      <point x="116" y="413" type="curve" smooth="yes"/>
      <point x="89" y="335" type="line"/>
      <point x="63" y="335" type="line"/>
      <point x="112" y="610" type="line"/>
      <point x="451" y="610" type="line"/>
      <point x="435" y="519" type="line"/>
      <point x="334" y="368"/>
      <point x="276" y="199"/>
      <point x="214" y="-78" type="curve"/>
      <point x="40" y="-78" type="line"/>
      <point x="132" y="190"/>
      <point x="308" y="411"/>
      <point x="387" y="480" type="curve"/>
      <point x="382" y="464" type="line"/>
    </contour>
  </outline>
</glyph>
<glyph name="eight" format="2">
  <advance width="420"/>
  <unicode hex="0038"/>
  <outline>
    <contour>
      <point x="177" y="18" type="curve" smooth="yes"/>
      <point x="169" y="18"/>
      <point x="166" y="26"/>
      <point x="166" y="46" type="curve" smooth="yes"/>
      <point x="166" y="84"/>
      <point x="172" y="133"/>
      <point x="186" y="208" type="curve" smooth="yes"/>
      <point x="212" y="349"/>
      <point x="220" y="364"/>
      <point x="238" y="364" type="curve" smooth="yes"/>
      <point x="246" y="364"/>
      <point x="250" y="357"/>
      <point x="250" y="334" type="curve" smooth="yes"/>
      <point x="250" y="295"/>
      <point x="242" y="245"/>
      <point x="229" y="174" type="curve" smooth="yes"/>
      <point x="203" y="30"/>
      <point x="192" y="18"/>
    </contour>
    <contour>
      <point x="243" y="388" type="curve" smooth="yes"/>
      <point x="237" y="388"/>
      <point x="232" y="396"/>
      <point x="232" y="420" type="curve" smooth="yes"/>
      <point x="232" y="448"/>
      <point x="238" y="492"/>
      <point x="250" y="554" type="curve" smooth="yes"/>
      <point x="272" y="678"/>
      <point x="282" y="692"/>
      <point x="294" y="692" type="curve" smooth="yes"/>
      <point x="300" y="692"/>
      <point x="306" y="686"/>
      <point x="306" y="661" type="curve" smooth="yes"/>
      <point x="306" y="631"/>
      <point x="300" y="588"/>
      <point x="289" y="528" type="curve" smooth="yes"/>
      <point x="267" y="404"/>
      <point x="255" y="388"/>
    </contour>
    <contour>
      <point x="184" y="-10" type="curve" smooth="yes"/>
      <point x="316" y="-10"/>
      <point x="412" y="90"/>
      <point x="412" y="221" type="curve" smooth="yes"/>
      <point x="412" y="298"/>
      <point x="376" y="374"/>
      <point x="286" y="391" type="curve"/>
      <point x="308" y="360" type="line"/>
      <point x="312" y="390" type="line"/>
      <point x="281" y="362" type="line"/>
      <point x="400" y="386"/>
      <point x="457" y="464"/>
      <point x="457" y="558" type="curve" smooth="yes"/>
      <point x="457" y="653"/>
      <point x="399" y="720"/>
      <point x="290" y="720" type="curve" smooth="yes"/>
      <point x="169" y="720"/>
      <point x="79" y="639"/>
      <point x="79" y="517" type="curve" smooth="yes"/>
      <point x="79" y="448"/>
      <point x="106" y="380"/>
      <point x="184" y="364" type="curve"/>
      <point x="171" y="391" type="line"/>
      <point x="163" y="360" type="line"/>
      <point x="192" y="390" type="line"/>
      <point x="58" y="364"/>
      <point x="2" y="275"/>
      <point x="2" y="175" type="curve" smooth="yes"/>
      <point x="2" y="71"/>
      <point x="62" y="-10"/>
    </contour>
  </outline>
</glyph>
<glyph name="nine" format="2">
  <advance width="420"/>
  <unicode hex="0039"/>
  <outline>
    <contour>
      <point x="263" y="619" type="curve" smooth="yes"/>
      <point x="390" y="619"/>
      <point x="427" y="518"/>
      <point x="427" y="413" type="curve" smooth="yes"/>
      <point x="427" y="163"/>
      <point x="217" y="-57"/>
      <point x="-3" y="-106" type="curve"/>
      <point x="-11" y="-90" type="line"/>
      <point x="94" y="-48"/>
      <point x="194" y="42"/>
      <point x="246" y="335" type="curve" smooth="yes"/>
      <point x="269" y="464"/>
      <point x="278" y="524"/>
      <point x="278" y="566" type="curve" smooth="yes"/>
      <point x="278" y="586"/>
      <point x="274" y="591"/>
      <point x="267" y="591" type="curve" smooth="yes"/>
      <point x="252" y="591"/>
      <point x="244" y="559"/>
      <point x="214" y="386" type="curve" smooth="yes"/>
      <point x="201" y="310"/>
      <point x="195" y="273"/>
      <point x="195" y="247" type="curve" smooth="yes"/>
      <point x="195" y="229"/>
      <point x="201" y="216"/>
      <point x="214" y="216" type="curve" smooth="yes"/>
      <point x="232.0" y="216.0"/>
      <point x="247" y="247"/>
      <point x="266" y="287" type="curve"/>
      <point x="265" y="270" type="line"/>
      <point x="246" y="222"/>
      <point x="212" y="181"/>
      <point x="148" y="181" type="curve" smooth="yes"/>
      <point x="76" y="181"/>
      <point x="28" y="228"/>
      <point x="28" y="334" type="curve" smooth="yes"/>
      <point x="28" y="499"/>
      <point x="145" y="619"/>
    </contour>
  </outline>
</glyph>
<glyph name="question" format="2">
  <advance width="456"/>
  <unicode hex="003F"/>
  <outline>
    <contour>
      <point x="221" y="364" type="curve"/>
      <point x="201" y="251" type="line"/>
      <point x="236" y="251" type="line"/>
      <point x="252" y="343" type="line"/>
      <point x="405" y="372"/>
      <point x="503" y="447"/>
      <point x="503" y="566" type="curve" smooth="yes"/>
      <point x="503" y="673"/>
      <point x="425" y="741"/>
      <point x="284" y="741" type="curve" smooth="yes"/>
      <point x="197" y="741"/>
      <point x="136" y="716"/>
      <point x="109" y="692" type="curve"/>
      <point x="83" y="545" type="line"/>
      <point x="203" y="545" type="line"/>
      <point x="239" y="744" type="line"/>
      <point x="213" y="730"/>
      <point x="208" y="716"/>
      <point x="205" y="694" type="curve"/>
      <point x="214" y="709"/>
      <point x="230" y="718"/>
      <point x="250" y="718" type="curve" smooth="yes"/>
      <point x="282" y="718"/>
      <point x="315" y="695"/>
      <point x="314" y="578" type="curve" smooth="yes"/>
      <point x="313" y="526"/>
      <point x="307" y="408"/>
    </contour>
    <component base="period" xOffset="95"/>
  </outline>
</glyph>
<glyph name="A" format="2">
  <advance width="525"/>
  <unicode hex="0041"/>
  <anchor x="321" y="721" name="top"/>
  <anchor x="259" y="0" name="bottom"/>
  <anchor x="418" y="0" name="right"/>
  <outline>
    <contour>
      <point x="108" y="264" type="line"/>
      <point x="94" y="236" type="line"/>
      <point x="268" y="236" type="line"/>
      <point x="279" y="264" type="line"/>
    </contour>
    <contour>
      <point x="213" y="550" type="line"/>
      <point x="246" y="30" type="line"/>
      <point x="246" y="23"/>
      <point x="234" y="20"/>
      <point x="224" y="20" type="curve" smooth="yes"/>
      <point x="214" y="20" type="line"/>
      <point x="210" y="0" type="line"/>
      <point x="479" y="0" type="line"/>
      <point x="482" y="20" type="line"/>
      <point x="480" y="20" type="line"/>
      <point x="468" y="20"/>
      <point x="466" y="25"/>
      <point x="464" y="48" type="curve" smooth="yes"/>
      <point x="420" y="710" type="line"/>
      <point x="257" y="710" type="line"/>
      <point x="19" y="59" type="line" smooth="yes"/>
      <point x="8" y="29"/>
      <point x="-8" y="20"/>
      <point x="-26" y="20" type="curve"/>
      <point x="-32" y="20" type="line"/>
      <point x="-35" y="0" type="line"/>
      <point x="74" y="0" type="line"/>
      <point x="78" y="20" type="line"/>
      <point x="70" y="20" type="line" smooth="yes"/>
      <point x="52" y="20"/>
      <point x="34" y="24"/>
      <point x="35" y="34" type="curve"/>
      <point x="236" y="582" type="line"/>
    </contour>
  </outline>
</glyph>
<glyph name="B" format="2">
  <advance width="563"/>
  <unicode hex="0042"/>
  <outline>
    <contour>
      <point x="282" y="356" type="line"/>
      <point x="312" y="356"/>
      <point x="341" y="343"/>
      <point x="341" y="289" type="curve" smooth="yes"/>
      <point x="341.0" y="157.0"/>
      <point x="298" y="27"/>
      <point x="240" y="27" type="curve" smooth="yes"/>
      <point x="222" y="27" type="line"/>
      <point x="280" y="356" type="line"/>
    </contour>
    <contour>
      <point x="344" y="683" type="line" smooth="yes"/>
      <point x="362" y="683"/>
      <point x="380" y="677"/>
      <point x="380" y="618" type="curve" smooth="yes"/>
      <point x="380.0" y="487.0"/>
      <point x="335.0" y="383.0"/>
      <point x="294" y="383" type="curve" smooth="yes"/>
      <point x="284" y="383" type="line"/>
      <point x="338" y="683" type="line"/>
    </contour>
    <contour>
      <point x="362" y="368" type="line"/>
      <point x="484" y="370"/>
      <point x="590" y="450"/>
      <point x="590" y="559" type="curve" smooth="yes"/>
      <point x="590" y="641"/>
      <point x="537" y="710"/>
      <point x="386" y="710" type="curve" smooth="yes"/>
      <point x="90" y="710" type="line"/>
      <point x="86" y="690" type="line"/>
      <point x="94" y="690" type="line" smooth="yes"/>
      <point x="112" y="690"/>
      <point x="122" y="684"/>
      <point x="118" y="658" type="curve" smooth="yes"/>
      <point x="12" y="52" type="line" smooth="yes"/>
      <point x="6" y="25"/>
      <point x="-4" y="20"/>
      <point x="-22" y="20" type="curve" smooth="yes"/>
      <point x="-32" y="20" type="line"/>
      <point x="-35" y="0" type="line"/>
      <point x="319" y="0" type="line" smooth="yes"/>
      <point x="472" y="0"/>
      <point x="555" y="87"/>
      <point x="555" y="203" type="curve"/>
      <point x="555" y="307"/>
      <point x="479" y="361"/>
      <point x="366" y="377" type="curve"/>
      <point x="374" y="364" type="line"/>
      <point x="378" y="379" type="line"/>
    </contour>
  </outline>
</glyph>
<glyph name="C" format="2">
  <advance width="511"/>
  <unicode hex="0043"/>
  <anchor x="266" y="741" name="top"/>
  <anchor x="266" y="0" name="bottom"/>
  <outline>
    <contour>
      <point x="312" y="32" type="curve" smooth="yes"/>
      <point x="257" y="32"/>
      <point x="228" y="80"/>
      <point x="228" y="212" type="curve" smooth="yes"/>
      <point x="228" y="421"/>
      <point x="305" y="687"/>
      <point x="407" y="687" type="curve" smooth="yes"/>
      <point x="470.0" y="687.0"/>
      <point x="499" y="606"/>
      <point x="499" y="501" type="curve"/>
      <point x="524" y="501" type="line"/>
      <point x="561" y="710" type="line"/>
      <point x="539" y="710" type="line"/>
      <point x="504" y="600" type="line"/>
      <point x="515" y="582" type="line"/>
      <point x="512" y="673"/>
      <point x="459" y="720"/>
      <point x="363" y="720" type="curve" smooth="yes"/>
      <point x="178" y="720"/>
      <point x="29" y="532"/>
      <point x="29" y="293" type="curve" smooth="yes"/>
      <point x="29" y="113"/>
      <point x="110" y="-10"/>
      <point x="258" y="-10" type="curve" smooth="yes"/>
      <point x="383" y="-10"/>
      <point x="465" y="78"/>
      <point x="504" y="236" type="curve"/>
      <point x="478" y="238" type="line"/>
      <point x="441" y="106"/>
      <point x="375" y="32"/>
    </contour>
  </outline>
</glyph>
<glyph name="F" format="2">
  <advance width="467"/>
  <unicode hex="0046"/>
  <outline>
    <contour>
      <point x="262" y="369" type="curve"/>
      <point x="256" y="346" type="line"/>
      <point x="316" y="336"/>
      <point x="367" y="328"/>
      <point x="423" y="314" type="curve"/>
      <point x="438" y="398" type="line"/>
      <point x="376" y="384"/>
      <point x="323" y="376"/>
    </contour>
    <contour>
      <point x="-35" y="0" type="line"/>
      <point x="270" y="0" type="line"/>
      <point x="274" y="20" type="line"/>
      <point x="260" y="20" type="line" smooth="yes"/>
      <point x="242" y="20"/>
      <point x="220" y="19"/>
      <point x="226" y="52" type="curve" smooth="yes"/>
      <point x="338" y="682" type="line"/>
      <point x="432" y="682" type="line" smooth="yes"/>
      <point x="464" y="682"/>
      <point x="486" y="672"/>
      <point x="487" y="636" type="curve" smooth="yes"/>
      <point x="486" y="530" type="line"/>
      <point x="505" y="530" type="line"/>
      <point x="537" y="710" type="line"/>
      <point x="90" y="710" type="line"/>
      <point x="86" y="690" type="line"/>
      <point x="94" y="690" type="line" smooth="yes"/>
      <point x="112" y="690"/>
      <point x="122" y="684"/>
      <point x="118" y="658" type="curve" smooth="yes"/>
      <point x="12" y="52" type="line" smooth="yes"/>
      <point x="6" y="25"/>
      <point x="-4" y="20"/>
      <point x="-22" y="20" type="curve" smooth="yes"/>
      <point x="-32" y="20" type="line"/>
    </contour>
  </outline>
</glyph>
<glyph name="I" format="2">
  <advance width="304"/>
  <unicode hex="0049"/>
  <anchor x="152" y="741" name="top"/>
  <anchor x="152" y="0" name="bottom"/>
  <anchor x="198" y="0" name="right"/>
  <outline>
    <contour>
      <point x="12" y="52" type="line" smooth="yes"/>
      <point x="6" y="25"/>
      <point x="-4" y="20"/>
      <point x="-22" y="20" type="curve" smooth="yes"/>
      <point x="-32" y="20" type="line"/>
      <point x="-35" y="0" type="line"/>
      <point x="254" y="0" type="line"/>
      <point x="258" y="20" type="line"/>
      <point x="250" y="20" type="line" smooth="yes"/>
      <point x="232" y="20"/>
      <point x="222" y="26"/>
      <point x="226" y="52" type="curve" smooth="yes"/>
      <point x="332" y="658" type="line" smooth="yes"/>
      <point x="337" y="685"/>
      <point x="348" y="690"/>
      <point x="366" y="690" type="curve" smooth="yes"/>
      <point x="375" y="690" type="line"/>
      <point x="379" y="710" type="line"/>
      <point x="90" y="710" type="line"/>
      <point x="86" y="690" type="line"/>
      <point x="94" y="690" type="line" smooth="yes"/>
      <point x="111" y="690"/>
      <point x="122" y="684"/>
      <point x="117" y="658" type="curve" smooth="yes"/>
    </contour>
  </outline>
</glyph>
<glyph name="J" format="2">
  <advance width="479"/>
  <unicode hex="004A"/>
  <anchor x="321" y="741" name="top"/>
  <outline>
    <contour>
      <point x="292" y="658" type="curve" smooth="yes"/>
      <point x="198" y="118" type="line" smooth="yes"/>
      <point x="184" y="37"/>
      <point x="170" y="8"/>
      <point x="133" y="8" type="curve" smooth="yes"/>
      <point x="111.0" y="8"/>
      <point x="93" y="17"/>
      <point x="78" y="32" type="curve"/>
      <point x="75" y="26"/>
      <point x="84" y="12"/>
      <point x="96" y="2" type="curve"/>
      <point x="126" y="178" type="line"/>
      <point x="0" y="178" type="line"/>
      <point x="-20" y="62" type="line"/>
      <point x="8" y="28"/>
      <point x="60" y="-10"/>
      <point x="165" y="-10" type="curve" smooth="yes"/>
      <point x="300" y="-10"/>
      <point x="400" y="53"/>
      <point x="425" y="189" type="curve" smooth="yes"/>
      <point x="508" y="658" type="line" smooth="yes"/>
      <point x="512" y="685"/>
      <point x="524" y="690"/>
      <point x="542" y="690" type="curve" smooth="yes"/>
      <point x="550" y="690" type="line"/>
      <point x="554" y="710" type="line"/>
      <point x="255" y="710" type="line"/>
      <point x="252" y="690" type="line"/>
      <point x="270" y="690" type="line" smooth="yes"/>
      <point x="286" y="690"/>
      <point x="297" y="684"/>
    </contour>
  </outline>
</glyph>
<glyph name="K" format="2">
  <advance width="614"/>
  <unicode hex="004B"/>
  <anchor x="304" y="741" name="top"/>
  <anchor x="304" y="0" name="bottom"/>
  <outline>
    <contour>
      <point x="-35" y="0" type="line"/>
      <point x="253" y="0" type="line"/>
      <point x="256" y="20" type="line"/>
      <point x="250" y="20" type="line" smooth="yes"/>
      <point x="238" y="20"/>
      <point x="221" y="23"/>
      <point x="222" y="29" type="curve" smooth="yes"/>
      <point x="338" y="682" type="line" smooth="yes"/>
      <point x="339" y="688"/>
      <point x="359" y="690"/>
      <point x="383" y="690" type="curve" smooth="yes"/>
      <point x="390" y="690" type="line"/>
      <point x="393" y="710" type="line"/>
      <point x="90" y="710" type="line"/>
      <point x="87" y="690" type="line"/>
      <point x="95" y="690" type="line" smooth="yes"/>
      <point x="112" y="690"/>
      <point x="123" y="684"/>
      <point x="118" y="658" type="curve" smooth="yes"/>
      <point x="12" y="52" type="line" smooth="yes"/>
      <point x="6" y="25"/>
      <point x="-4" y="20"/>
      <point x="-22" y="20" type="curve" smooth="yes"/>
      <point x="-32" y="20" type="line"/>
    </contour>
    <contour>
      <point x="289" y="0" type="line"/>
      <point x="564" y="0" type="line"/>
      <point x="568" y="20" type="line"/>
      <point x="550" y="20" type="line" smooth="yes"/>
      <point x="540" y="20"/>
      <point x="535" y="28"/>
      <point x="534" y="40" type="curve" smooth="yes"/>
      <point x="481" y="576" type="line"/>
      <point x="384" y="425" type="line"/>
      <point x="567" y="659" type="line" smooth="yes"/>
      <point x="586" y="684"/>
      <point x="600" y="690"/>
      <point x="624" y="690" type="curve" smooth="yes"/>
      <point x="641" y="690" type="line"/>
      <point x="644" y="710" type="line"/>
      <point x="477" y="710" type="line"/>
      <point x="474" y="690" type="line"/>
      <point x="482" y="690" type="line" smooth="yes"/>
      <point x="500" y="690"/>
      <point x="554" y="688"/>
      <point x="552" y="681" type="curve"/>
      <point x="296" y="357" type="line"/>
      <point x="293" y="340" type="line"/>
      <point x="324" y="28" type="line"/>
      <point x="324" y="21"/>
      <point x="314" y="20"/>
      <point x="298" y="20" type="curve" smooth="yes"/>
      <point x="292" y="20" type="line"/>
    </contour>
  </outline>
</glyph>
<glyph name="L" format="2">
  <advance width="469"/>
  <unicode hex="004C"/>
  <anchor x="286" y="741" name="top"/>
  <anchor x="286" y="0" name="bottom"/>
  <anchor x="356" y="710" name="right"/>
  <anchor x="356" y="410" name="mid"/>
  <outline>
    <contour>
      <point x="387" y="710" type="line"/>
      <point x="90" y="710" type="line"/>
      <point x="86" y="690" type="line"/>
      <point x="94" y="690" type="line" smooth="yes"/>
      <point x="112" y="690"/>
      <point x="122" y="684"/>
      <point x="118" y="658" type="curve" smooth="yes"/>
      <point x="12" y="52" type="line" smooth="yes"/>
      <point x="6" y="25"/>
      <point x="-4" y="20"/>
      <point x="-22" y="20" type="curve" smooth="yes"/>
      <point x="-32" y="20" type="line"/>
      <point x="-35" y="0" type="line"/>
      <point x="417" y="0" type="line"/>
      <point x="456" y="219" type="line"/>
      <point x="438" y="219" type="line"/>
      <point x="389" y="75" type="line" smooth="yes"/>
      <point x="376" y="38"/>
      <point x="360" y="28"/>
      <point x="308" y="28" type="curve" smooth="yes"/>
      <point x="222" y="28" type="line"/>
      <point x="334" y="665" type="line" smooth="yes"/>
      <point x="338" y="687"/>
      <point x="350" y="690"/>
      <point x="370" y="690" type="curve" smooth="yes"/>
      <point x="382" y="690" type="line"/>
    </contour>
  </outline>
</glyph>
<glyph name="M" format="2">
  <advance width="693"/>
  <unicode hex="004D"/>
  <anchor x="332" y="0" name="bottom"/>
  <outline>
    <contour>
      <point x="-35" y="0" type="line"/>
      <point x="84" y="0" type="line"/>
      <point x="90" y="20" type="line"/>
      <point x="85" y="20" type="line" smooth="yes"/>
      <point x="70" y="20"/>
      <point x="43" y="26"/>
      <point x="45" y="37" type="curve" smooth="yes"/>
      <point x="156" y="670" type="line"/>
      <point x="140" y="668" type="line"/>
      <point x="168" y="0" type="line"/>
      <point x="271" y="0" type="line"/>
      <point x="520" y="664" type="line"/>
      <point x="507" y="669" type="line"/>
      <point x="396" y="28" type="line" smooth="yes"/>
      <point x="395" y="22"/>
      <point x="380" y="20"/>
      <point x="366" y="20" type="curve" smooth="yes"/>
      <point x="359" y="20" type="line"/>
      <point x="355" y="0" type="line"/>
      <point x="643" y="0" type="line"/>
      <point x="647" y="20" type="line"/>
      <point x="639" y="20" type="line" smooth="yes"/>
      <point x="622" y="20"/>
      <point x="611" y="26"/>
      <point x="616" y="52" type="curve" smooth="yes"/>
      <point x="721" y="658" type="line" smooth="yes"/>
      <point x="726" y="685"/>
      <point x="737" y="690"/>
      <point x="755" y="690" type="curve" smooth="yes"/>
      <point x="764" y="690" type="line"/>
      <point x="768" y="710" type="line"/>
      <point x="508" y="710" type="line"/>
      <point x="344" y="280" type="line"/>
      <point x="354" y="278" type="line"/>
      <point x="340" y="710" type="line"/>
      <point x="90" y="710" type="line"/>
      <point x="86" y="690" type="line"/>
      <point x="94" y="690" type="line" smooth="yes"/>
      <point x="111" y="690"/>
      <point x="132" y="684"/>
      <point x="127" y="658" type="curve" smooth="yes"/>
      <point x="21" y="50" type="line" smooth="yes"/>
      <point x="16" y="23"/>
      <point x="-4" y="20"/>
      <point x="-22" y="20" type="curve" smooth="yes"/>
      <point x="-31" y="20" type="line"/>
    </contour>
  </outline>
</glyph>
<glyph name="N" format="2">
  <advance width="486"/>
  <unicode hex="004E"/>
  <anchor x="248" y="741" name="top"/>
  <anchor x="248" y="0" name="bottom"/>
  <outline>
    <contour>
      <point x="-35" y="0" type="line"/>
      <point x="93" y="0" type="line"/>
      <point x="96" y="20" type="line"/>
      <point x="88" y="20" type="line" smooth="yes"/>
      <point x="72" y="20"/>
      <point x="42" y="26"/>
      <point x="44" y="37" type="curve"/>
      <point x="160" y="692" type="line"/>
      <point x="142" y="660" type="line"/>
      <point x="252" y="0" type="line"/>
      <point x="389" y="0" type="line"/>
      <point x="506" y="660" type="line"/>
      <point x="510" y="687"/>
      <point x="532" y="690"/>
      <point x="548" y="690" type="curve" smooth="yes"/>
      <point x="558" y="690" type="line"/>
      <point x="561" y="710" type="line"/>
      <point x="433" y="710" type="line"/>
      <point x="430" y="690" type="line"/>
      <point x="438" y="690" type="line" smooth="yes"/>
      <point x="454" y="690"/>
      <point x="484" y="684"/>
      <point x="482" y="673" type="curve"/>
      <point x="404" y="230" type="line"/>
      <point x="412" y="254" type="line"/>
      <point x="345" y="710" type="line"/>
      <point x="90" y="710" type="line"/>
      <point x="86" y="690" type="line"/>
      <point x="94" y="690" type="line" smooth="yes"/>
      <point x="112" y="690"/>
      <point x="132" y="684"/>
      <point x="128" y="658" type="curve" smooth="yes"/>
      <point x="20" y="50" type="line" smooth="yes"/>
      <point x="16" y="23"/>
      <point x="-6" y="20"/>
      <point x="-22" y="20" type="curve" smooth="yes"/>
      <point x="-32" y="20" type="line"/>
    </contour>
  </outline>
</glyph>
<glyph name="O" format="2">
  <advance width="578"/>
  <unicode hex="004F"/>
  <anchor x="289" y="741" name="top"/>
  <anchor x="289" y="0" name="bottom"/>
  <anchor x="304" y="0" name="right"/>
  <outline>
    <contour>
      <point x="265" y="-10" type="curve" smooth="yes"/>
      <point x="450" y="-10"/>
      <point x="581" y="188"/>
      <point x="581" y="407" type="curve" smooth="yes"/>
      <point x="581" y="578"/>
      <point x="501" y="720"/>
      <point x="347" y="720" type="curve" smooth="yes"/>
      <point x="162" y="720"/>
      <point x="31" y="522"/>
      <point x="31" y="303" type="curve" smooth="yes"/>
      <point x="31" y="132"/>
      <point x="111" y="-10"/>
    </contour>
    <contour>
      <point x="360" y="695" type="curve" smooth="yes"/>
      <point x="376" y="695"/>
      <point x="386" y="672"/>
      <point x="386" y="624" type="curve" smooth="yes"/>
      <point x="386" y="549"/>
      <point x="370" y="456"/>
      <point x="346" y="318" type="curve" smooth="yes"/>
      <point x="302" y="66"/>
      <point x="282" y="15"/>
      <point x="254" y="15" type="curve" smooth="yes"/>
      <point x="236" y="15"/>
      <point x="227" y="39"/>
      <point x="227" y="85" type="curve" smooth="yes"/>
      <point x="227" y="168"/>
      <point x="242" y="256"/>
      <point x="266" y="394" type="curve" smooth="yes"/>
      <point x="311" y="646"/>
      <point x="334" y="695"/>
    </contour>
  </outline>
</glyph>
<glyph name="R" format="2">
  <advance width="604"/>
  <unicode hex="0052"/>
  <anchor x="332" y="741" name="top"/>
  <anchor x="332" y="0" name="bottom"/>
  <outline>
    <contour>
      <point x="282" y="336" type="line" identifier="8YGWuxmFYV"/>
      <point x="314" y="0" type="line" identifier="du3C5KPcV0"/>
      <point x="552" y="0" type="line" identifier="cH9wxVW68Q"/>
      <point x="558" y="20" type="line" identifier="POenaHZH6o"/>
      <point x="542" y="20" type="line" smooth="yes" identifier="Fk2y3cshOa"/>
      <point x="528" y="20" identifier="o9zEXnMsre"/>
      <point x="524" y="23" identifier="6nj5rMpEpG"/>
      <point x="520" y="45" type="curve" smooth="yes" identifier="NaBKPB79sq"/>
      <point x="482" y="400" type="line" identifier="IpgoyBhJHH"/>
    </contour>
    <contour>
      <point x="256" y="20" type="line" identifier="4efX0krCW1"/>
      <point x="250" y="20" type="line" smooth="yes" identifier="HVlX9XKy66"/>
      <point x="238" y="20" identifier="FuIoJN6q1u"/>
      <point x="222" y="23" identifier="nO1UT93pZ6"/>
      <point x="222" y="29" type="curve" smooth="yes" identifier="5VgRC4w5MT"/>
      <point x="276" y="334" type="line"/>
      <point x="318" y="334" type="line" smooth="yes" identifier="N8rpgN6lpR"/>
      <point x="330" y="334" identifier="4aQOhdEv2D"/>
      <point x="342" y="333" identifier="v6FWdFNjHs"/>
      <point x="354" y="335" type="curve" smooth="yes" identifier="qv2PZtF6hN"/>
      <point x="472" y="340" identifier="3bxZmt4xpV"/>
      <point x="596" y="408" identifier="4UR3CXH9xK"/>
      <point x="596" y="540" type="curve" smooth="yes" identifier="ph3MGGJnLJ"/>
      <point x="596" y="660" identifier="HZ1tRGwEF3"/>
      <point x="507" y="710" identifier="mqwAmSSbJt"/>
      <point x="376" y="710" type="curve" smooth="yes" identifier="UegI8PRrA8"/>
      <point x="90" y="710" type="line" identifier="7woNcIcxql"/>
      <point x="86" y="690" type="line" identifier="xvqpW5SIKz"/>
      <point x="94" y="690" type="line" smooth="yes" identifier="3logwc0Gt6"/>
      <point x="110" y="690" identifier="SVgS20ndio"/>
      <point x="122" y="684" identifier="wXVxK9JVC6"/>
      <point x="118" y="658" type="curve" smooth="yes" identifier="yaBVv2gWzh"/>
      <point x="12" y="52" type="line" smooth="yes" identifier="DxI9rqStZJ"/>
      <point x="6" y="26" identifier="UGcQOnO6R6"/>
      <point x="-4" y="20" identifier="IFPi4DSjnT"/>
      <point x="-22" y="20" type="curve" smooth="yes" identifier="KIwe0lmNN6"/>
      <point x="-32" y="20" type="line" identifier="ErIprZn9HR"/>
      <point x="-35" y="0" type="line" identifier="07pmQXLsau"/>
      <point x="253" y="0" type="line" identifier="VUZ4nLJMli"/>
    </contour>
    <contour>
      <point x="348" y="682" type="line" smooth="yes" identifier="2BF2TkHLrW"/>
      <point x="360" y="682" identifier="SsplJEZVdO"/>
      <point x="381" y="680" identifier="Aw4EtMWOx9"/>
      <point x="381" y="620" type="curve" smooth="yes" identifier="3uaBUVbm2V"/>
      <point x="381" y="500" identifier="Fqe8AwxCU8"/>
      <point x="344" y="360" identifier="rjVPcf1iVO"/>
      <point x="296" y="360" type="curve" smooth="yes" identifier="rk3mZjgOpc"/>
      <point x="280" y="360" type="line"/>
      <point x="338" y="682" type="line" identifier="BKTTKIAySE"/>
    </contour>
  </outline>
</glyph>
<glyph name="S" format="2">
  <advance width="469"/>
  <unicode hex="0053"/>
  <anchor x="253" y="741" name="top"/>
  <anchor x="253" y="0" name="bottom"/>
  <outline>
    <contour>
      <point x="230" y="-10" type="curve" smooth="yes"/>
      <point x="383" y="-10"/>
      <point x="463" y="86"/>
      <point x="463" y="216" type="curve" smooth="yes"/>
      <point x="463" y="334"/>
      <point x="397" y="395"/>
      <point x="338" y="448" type="curve" smooth="yes"/>
      <point x="284" y="496"/>
      <point x="232" y="540"/>
      <point x="232" y="605" type="curve" smooth="yes"/>
      <point x="232" y="655"/>
      <point x="257" y="695"/>
      <point x="312" y="695" type="curve" smooth="yes"/>
      <point x="370" y="695"/>
      <point x="418" y="645"/>
      <point x="429" y="535" type="curve"/>
      <point x="458" y="535" type="line"/>
      <point x="489" y="710" type="line"/>
      <point x="466" y="710" type="line"/>
      <point x="432" y="608" type="line"/>
      <point x="428" y="594"/>
      <point x="441" y="590"/>
      <point x="441" y="595" type="curve"/>
      <point x="429" y="667"/>
      <point x="386" y="720.0"/>
      <point x="289" y="720" type="curve" smooth="yes"/>
      <point x="140" y="720"/>
      <point x="72" y="610"/>
      <point x="72" y="500" type="curve" smooth="yes"/>
      <point x="72" y="394"/>
      <point x="131" y="335"/>
      <point x="189" y="284" type="curve" smooth="yes"/>
      <point x="244" y="235"/>
      <point x="298" y="193"/>
      <point x="298" y="113" type="curve" smooth="yes"/>
      <point x="298.0" y="55.0"/>
      <point x="269" y="15"/>
      <point x="208" y="15" type="curve" smooth="yes"/>
      <point x="136.0" y="15"/>
      <point x="79" y="68"/>
      <point x="59" y="204" type="curve"/>
      <point x="29" y="204" type="line"/>
      <point x="-7" y="0" type="line"/>
      <point x="16" y="0" type="line"/>
      <point x="57" y="142" type="line"/>
      <point x="57" y="151"/>
      <point x="48" y="148"/>
      <point x="44" y="146" type="curve"/>
      <point x="70.0" y="43"/>
      <point x="119.0" y="-10"/>
    </contour>
  </outline>
</glyph>
<glyph name="T" format="2">
  <advance width="533"/>
  <unicode hex="0054"/>
  <anchor x="266" y="741" name="top"/>
  <anchor x="266" y="0" name="bottom"/>
  <outline>
    <contour>
      <point x="122" y="52" type="line" smooth="yes"/>
      <point x="118" y="25"/>
      <point x="106" y="20"/>
      <point x="88" y="20" type="curve" smooth="yes"/>
      <point x="80" y="20" type="line"/>
      <point x="76" y="0" type="line"/>
      <point x="365" y="0" type="line"/>
      <point x="368" y="20" type="line"/>
      <point x="360" y="20" type="line" smooth="yes"/>
      <point x="344" y="20"/>
      <point x="332" y="26"/>
      <point x="338" y="52" type="curve" smooth="yes"/>
      <point x="448" y="682" type="line"/>
      <point x="508" y="682" type="line" smooth="yes"/>
      <point x="538" y="682"/>
      <point x="554" y="672"/>
      <point x="552" y="635" type="curve" smooth="yes"/>
      <point x="545" y="488" type="line"/>
      <point x="561" y="488" type="line"/>
      <point x="603" y="710" type="line"/>
      <point x="92" y="710" type="line"/>
      <point x="51" y="488" type="line"/>
      <point x="67" y="488" type="line"/>
      <point x="120" y="634" type="line" smooth="yes"/>
      <point x="134" y="669"/>
      <point x="148" y="682"/>
      <point x="180" y="682" type="curve" smooth="yes"/>
      <point x="234" y="682" type="line"/>
    </contour>
  </outline>
</glyph>
<glyph name="U" format="2">
  <advance width="537"/>
  <unicode hex="0055"/>
  <anchor x="269" y="741" name="top"/>
  <anchor x="269" y="0" name="bottom"/>
  <anchor x="306" y="0" name="right"/>
  <outline>
    <contour>
      <point x="260" y="239" type="curve" smooth="yes"/>
      <point x="338" y="682" type="line" smooth="yes"/>
      <point x="338" y="688"/>
      <point x="354" y="690"/>
      <point x="368" y="690" type="curve" smooth="yes"/>
      <point x="374" y="690" type="line"/>
      <point x="378" y="710" type="line"/>
      <point x="90" y="710" type="line"/>
      <point x="86" y="690" type="line"/>
      <point x="94" y="690" type="line" smooth="yes"/>
      <point x="112" y="690"/>
      <point x="120" y="682"/>
      <point x="116" y="656" type="curve" smooth="yes"/>
      <point x="50" y="284" type="line" smooth="yes"/>
      <point x="45" y="257"/>
      <point x="43" y="233"/>
      <point x="43" y="209" type="curve" smooth="yes"/>
      <point x="43" y="66"/>
      <point x="131" y="-10"/>
      <point x="274" y="-10" type="curve" smooth="yes"/>
      <point x="412" y="-10"/>
      <point x="456" y="76"/>
      <point x="476" y="191" type="curve" smooth="yes"/>
      <point x="558" y="660" type="line" smooth="yes"/>
      <point x="564" y="687"/>
      <point x="582" y="690"/>
      <point x="600" y="690" type="curve" smooth="yes"/>
      <point x="608" y="690" type="line"/>
      <point x="612" y="710" type="line"/>
      <point x="494" y="710" type="line"/>
      <point x="490" y="690" type="line"/>
      <point x="498" y="690" type="line" smooth="yes"/>
      <point x="514" y="690"/>
      <point x="537" y="684"/>
      <point x="535" y="673" type="curve" smooth="yes"/>
      <point x="448" y="178" type="line"/>
      <point x="436" y="113"/>
      <point x="410" y="56"/>
      <point x="339" y="56" type="curve" smooth="yes"/>
      <point x="289" y="56"/>
      <point x="252" y="83"/>
      <point x="252" y="161" type="curve" smooth="yes"/>
      <point x="252" y="183"/>
      <point x="255" y="209"/>
    </contour>
  </outline>
</glyph>
<glyph name="V" format="2">
  <advance width="499"/>
  <unicode hex="0056"/>
  <outline>
    <contour>
      <point x="321" y="208" type="line"/>
      <point x="322" y="680" type="line" smooth="yes"/>
      <point x="322" y="687"/>
      <point x="336" y="690"/>
      <point x="345" y="690" type="curve" smooth="yes"/>
      <point x="358" y="690" type="line"/>
      <point x="361" y="710" type="line"/>
      <point x="86" y="710" type="line"/>
      <point x="83" y="690" type="line"/>
      <point x="91" y="690" type="line"/>
      <point x="102" y="690"/>
      <point x="106" y="685"/>
      <point x="107" y="662" type="curve" smooth="yes"/>
      <point x="121" y="0" type="line"/>
      <point x="258" y="0" type="line"/>
      <point x="527" y="643" type="line" smooth="yes"/>
      <point x="543" y="681"/>
      <point x="547" y="690"/>
      <point x="563" y="690" type="curve"/>
      <point x="570" y="690" type="line"/>
      <point x="573" y="710" type="line"/>
      <point x="464" y="710" type="line"/>
      <point x="461" y="690" type="line"/>
      <point x="470" y="690" type="line" smooth="yes"/>
      <point x="490" y="690"/>
      <point x="515" y="684"/>
      <point x="513" y="676" type="curve"/>
      <point x="313" y="205" type="line"/>
    </contour>
  </outline>
</glyph>
<glyph name="W" format="2">
  <advance width="764"/>
  <unicode hex="0057"/>
  <anchor x="388" y="741" name="top"/>
  <outline>
    <contour>
      <point x="87" y="710" type="line"/>
      <point x="83" y="690" type="line"/>
      <point x="91" y="690" type="line" smooth="yes"/>
      <point x="105" y="690"/>
      <point x="109" y="685"/>
      <point x="109" y="662" type="curve" smooth="yes"/>
      <point x="102" y="0" type="line"/>
      <point x="252" y="0" type="line"/>
      <point x="433" y="510" type="line"/>
      <point x="415" y="498" type="line"/>
      <point x="424" y="0" type="line"/>
      <point x="574" y="0" type="line"/>
      <point x="795" y="654" type="line" smooth="yes"/>
      <point x="804" y="682"/>
      <point x="813" y="690"/>
      <point x="829" y="690" type="curve" smooth="yes"/>
      <point x="835" y="690" type="line"/>
      <point x="839" y="710" type="line"/>
      <point x="731" y="710" type="line"/>
      <point x="727" y="690" type="line"/>
      <point x="737" y="690" type="line" smooth="yes"/>
      <point x="757" y="690"/>
      <point x="775" y="684"/>
      <point x="775" y="676" type="curve"/>
      <point x="603" y="174" type="line"/>
      <point x="628" y="208" type="line"/>
      <point x="618" y="710" type="line"/>
      <point x="479" y="710" type="line"/>
      <point x="291" y="194" type="line"/>
      <point x="315" y="219" type="line"/>
      <point x="320" y="683" type="line"/>
      <point x="322" y="690"/>
      <point x="337" y="693"/>
      <point x="345" y="693" type="curve" smooth="yes"/>
      <point x="359" y="693" type="line"/>
      <point x="362" y="713" type="line"/>
    </contour>
  </outline>
</glyph>
<glyph name="asciicircum" format="2">
  <advance width="362"/>
  <unicode hex="005E"/>
  <outline>
    <contour>
      <point x="82" y="350" type="line"/>
      <point x="270" y="689" type="line"/>
      <point x="272" y="710" type="line"/>
      <point x="252" y="710" type="line"/>
      <point x="57" y="350" type="line"/>
    </contour>
    <contour>
      <point x="320" y="350" type="line"/>
      <point x="344" y="350" type="line"/>
      <point x="284" y="710" type="line"/>
      <point x="255" y="710" type="line"/>
      <point x="254" y="689" type="line"/>
    </contour>
  </outline>
</glyph>
<glyph name="underscore" format="2">
  <advance width="295"/>
  <unicode hex="005F"/>
  <outline>
    <contour>
      <point x="-59" y="-75" type="line"/>
      <point x="-65" y="-108" type="line"/>
      <point x="237" y="-108" type="line"/>
      <point x="243" y="-75" type="line"/>
    </contour>
  </outline>
</glyph>
<glyph name="grave" format="2">
  <advance width="327"/>
  <unicode hex="0060"/>
  <anchor x="138" y="531" name="_top"/>
  <outline>
    <contour>
      <point x="245" y="710" type="curve" smooth="yes" identifier="bq0qgdiQDV"/>
      <point x="279" y="575" type="line" identifier="6rBCVB18Ra"/>
      <point x="279" y="563" type="line" identifier="vzuo1N3WTS"/>
      <point x="239" y="563" type="line" identifier="8MYU9j91Za"/>
      <point x="156" y="647" type="line" smooth="yes" identifier="y1Colbq1UL"/>
      <point x="131" y="674" identifier="OYJjzOaeys"/>
      <point x="109" y="698" identifier="Ar8JsK6aTX"/>
      <point x="110" y="730" type="curve" smooth="yes" identifier="LErETh5uN9"/>
      <point x="112" y="766" identifier="leiKDWKf1Q"/>
      <point x="132" y="794" identifier="VLKl3qd8gn"/>
      <point x="175" y="794" type="curve" smooth="yes" identifier="JVO2qI192B"/>
      <point x="225" y="794" identifier="07jPUit6YN"/>
      <point x="236" y="756" identifier="S1lgztgLRO"/>
    </contour>
  </outline>
</glyph>
<glyph name="b" format="2">
  <advance width="504"/>
  <unicode hex="0062"/>
  <outline>
    <contour>
      <point x="213" y="30" type="curve" smooth="yes"/>
      <point x="202" y="30"/>
      <point x="188" y="36"/>
      <point x="188" y="70" type="curve"/>
      <point x="153" y="55"/>
      <point x="154" y="30"/>
      <point x="190" y="6" type="curve"/>
      <point x="321" y="750" type="line"/>
      <point x="95" y="750" type="line"/>
      <point x="92" y="731" type="line"/>
      <point x="100" y="729" type="line" smooth="yes"/>
      <point x="110" y="727"/>
      <point x="115" y="718"/>
      <point x="112" y="700" type="curve" smooth="yes"/>
      <point x="1" y="71" type="line"/>
      <point x="42" y="29"/>
      <point x="123" y="-10"/>
      <point x="219" y="-10" type="curve" smooth="yes"/>
      <point x="451" y="-10"/>
      <point x="511" y="213"/>
      <point x="511" y="354" type="curve" smooth="yes"/>
      <point x="511" y="465"/>
      <point x="464" y="533"/>
      <point x="381" y="533" type="curve" smooth="yes"/>
      <point x="294" y="533"/>
      <point x="254" y="454"/>
      <point x="205" y="322" type="curve"/>
      <point x="219" y="308" type="line"/>
      <point x="250" y="400"/>
      <point x="270" y="437"/>
      <point x="289" y="437" type="curve" smooth="yes"/>
      <point x="302" y="437"/>
      <point x="307" y="427"/>
      <point x="307" y="389" type="curve" smooth="yes"/>
      <point x="307" y="265"/>
      <point x="272" y="30"/>
    </contour>
  </outline>
</glyph>
<glyph name="d" format="2">
  <advance width="507"/>
  <unicode hex="0064"/>
  <anchor x="239" y="0" name="bottom"/>
  <anchor x="482" y="735" name="right"/>
  <outline>
    <contour>
      <point x="150" y="-10" type="curve" smooth="yes"/>
      <point x="236" y="-10"/>
      <point x="285" y="62"/>
      <point x="324" y="194" type="curve"/>
      <point x="293" y="196" type="line"/>
      <point x="274" y="104"/>
      <point x="255" y="76"/>
      <point x="237" y="76" type="curve" smooth="yes"/>
      <point x="224" y="76"/>
      <point x="218" y="96"/>
      <point x="218" y="142" type="curve" smooth="yes"/>
      <point x="218" y="248"/>
      <point x="252" y="488"/>
      <point x="315" y="488" type="curve" smooth="yes"/>
      <point x="329" y="488"/>
      <point x="348" y="474"/>
      <point x="354" y="445" type="curve"/>
      <point x="370" y="469" type="line"/>
      <point x="353" y="507"/>
      <point x="315" y="533"/>
      <point x="257" y="533" type="curve" smooth="yes"/>
      <point x="85" y="533"/>
      <point x="14" y="310"/>
      <point x="14" y="171" type="curve" smooth="yes"/>
      <point x="14" y="58"/>
      <point x="61" y="-10"/>
    </contour>
    <contour>
      <point x="382" y="-10" type="curve" smooth="yes"/>
      <point x="437" y="-10"/>
      <point x="469" y="5"/>
      <point x="487" y="21" type="curve"/>
      <point x="490" y="41" type="line"/>
      <point x="487" y="38"/>
      <point x="480" y="33"/>
      <point x="472" y="33" type="curve" smooth="yes"/>
      <point x="462" y="33"/>
      <point x="455" y="37"/>
      <point x="455" y="54" type="curve" smooth="yes"/>
      <point x="455" y="62"/>
      <point x="457" y="73"/>
      <point x="459" y="84" type="curve" smooth="yes"/>
      <point x="577" y="750" type="line"/>
      <point x="352" y="750" type="line"/>
      <point x="348" y="731" type="line"/>
      <point x="356" y="729" type="line" smooth="yes"/>
      <point x="366" y="727"/>
      <point x="371" y="719"/>
      <point x="368" y="700" type="curve" smooth="yes"/>
      <point x="257" y="72" type="line"/>
      <point x="266" y="80" type="line"/>
      <point x="266" y="79"/>
      <point x="266" y="79"/>
      <point x="266" y="78" type="curve"/>
      <point x="276" y="32"/>
      <point x="304" y="-10"/>
    </contour>
  </outline>
</glyph>
<glyph name="f" format="2">
  <advance width="312"/>
  <unicode hex="0066"/>
  <outline>
    <contour>
      <point x="37" y="523" type="line"/>
      <point x="32" y="493" type="line"/>
      <point x="355" y="493" type="line"/>
      <point x="360" y="523" type="line"/>
    </contour>
    <contour>
      <point x="384" y="730" type="curve" smooth="yes"/>
      <point x="402" y="730"/>
      <point x="412" y="725"/>
      <point x="420" y="719" type="curve"/>
      <point x="429" y="750" type="line"/>
      <point x="413" y="755"/>
      <point x="391" y="760"/>
      <point x="350" y="760" type="curve" smooth="yes"/>
      <point x="212" y="760"/>
      <point x="117" y="705"/>
      <point x="91" y="553" type="curve" smooth="yes"/>
      <point x="-27" y="-223" type="line"/>
      <point x="157" y="-223" type="line"/>
      <point x="314" y="648" type="line" smooth="yes"/>
      <point x="324" y="700"/>
      <point x="346" y="730"/>
    </contour>
  </outline>
</glyph>
<glyph name="h" format="2">
  <advance width="511"/>
  <unicode hex="0068"/>
  <anchor x="265" y="755" name="top"/>
  <anchor x="255" y="0" name="bottom"/>
  <outline>
    <contour>
      <point x="-7" y="0" type="line" identifier="jUx2UXcmIy"/>
      <point x="116" y="701" type="line" smooth="yes" identifier="CoyGoa45wm"/>
      <point x="119" y="720" identifier="lu5X72Svzi"/>
      <point x="116" y="727" identifier="N7tAL3JDTC"/>
      <point x="105" y="729" type="curve" smooth="yes" identifier="cPPEprRdU1"/>
      <point x="96" y="731" type="line" identifier="uscqyHmjzz"/>
      <point x="100" y="750" type="line" identifier="zNHTvxNemF"/>
      <point x="325" y="750" type="line" identifier="vvQBM6nVlu"/>
      <point x="193" y="0" type="line" identifier="mLDdIsea5U"/>
    </contour>
    <contour>
      <point x="464" y="104" type="line" smooth="yes" identifier="WXvu3XJh9w"/>
      <point x="462" y="93" identifier="DVi8pEBZuE"/>
      <point x="457" y="67" identifier="fLUWyXBMXh"/>
      <point x="457" y="53" type="curve" smooth="yes" identifier="8SNHHG3SOU"/>
      <point x="457" y="38" identifier="voJlnpADKe"/>
      <point x="463" y="33" identifier="SYxnWIvlkF"/>
      <point x="472" y="33" type="curve" smooth="yes" identifier="2Ntj2y8D6y"/>
      <point x="480.0" y="33.0" identifier="VKdT34R5nv"/>
      <point x="487" y="38" identifier="iRNgSHXyxV"/>
      <point x="491" y="41" type="curve" identifier="GabzaFPAzh"/>
      <point x="488" y="21" type="line" identifier="6qMVp6XzAE"/>
      <point x="471" y="5" identifier="LNwKvg5zZ5"/>
      <point x="434" y="-10" identifier="mUBYIFZ3mT"/>
      <point x="376" y="-10" type="curve" smooth="yes" identifier="ukWJTb8QYu"/>
      <point x="304" y="-10" identifier="wJdAU0NRJl"/>
      <point x="266" y="27" identifier="l9UMBckd2O"/>
      <point x="266" y="90" type="curve" smooth="yes" identifier="AYZvzpTkty"/>
      <point x="266.0" y="111.0" identifier="6GnvCqgcXe"/>
      <point x="269" y="134" identifier="UvWxPHCZLg"/>
      <point x="272" y="150" type="curve" smooth="yes" identifier="0noswGCD7K"/>
      <point x="317" y="384" type="line" smooth="yes" identifier="kMsHq2kJoU"/>
      <point x="318" y="389" identifier="kH0Z9OZ9f1"/>
      <point x="320" y="400" identifier="oRvonCwZwX"/>
      <point x="320" y="408" type="curve" smooth="yes" identifier="xqfnGerhLm"/>
      <point x="320.0" y="420.0" identifier="U6GhRU4cgI"/>
      <point x="315" y="424" identifier="EmASIKYsya"/>
      <point x="306" y="424" type="curve" smooth="yes" identifier="IEYLWXiicC"/>
      <point x="288" y="424" identifier="wHPYyjpVCd"/>
      <point x="264" y="400" identifier="mVoLjv2575"/>
      <point x="242" y="316" type="curve" identifier="nyHt9MlC8H"/>
      <point x="233" y="346" type="line" identifier="00SymWIlqB"/>
      <point x="269" y="465" identifier="tzW6Y4Sz88"/>
      <point x="332" y="533" identifier="gcJBZkMVl4"/>
      <point x="425" y="533" type="curve" smooth="yes" identifier="6Al21phrGI"/>
      <point x="498" y="533" identifier="VYEJmNB8LO"/>
      <point x="522" y="485" identifier="GWvpbrH5t0"/>
      <point x="522" y="430" type="curve" smooth="yes" identifier="JLFyb1N7Rw"/>
      <point x="522" y="416" identifier="7ddwA8qzOb"/>
      <point x="521" y="402" identifier="AVfFKrNcYB"/>
      <point x="518" y="388" type="curve" smooth="yes" identifier="XO0byrBNcj"/>
    </contour>
  </outline>
</glyph>
<glyph name="j" format="2">
  <advance width="260"/>
  <unicode hex="006A"/>
  <outline>
    <contour>
      <point x="210" y="577" type="curve" smooth="yes"/>
      <point x="274" y="577"/>
      <point x="309" y="607"/>
      <point x="309" y="662" type="curve" smooth="yes"/>
      <point x="309" y="720"/>
      <point x="270" y="752"/>
      <point x="204" y="752" type="curve" smooth="yes"/>
      <point x="140" y="752"/>
      <point x="103" y="722"/>
      <point x="103" y="668" type="curve" smooth="yes"/>
      <point x="103" y="608"/>
      <point x="144" y="577"/>
    </contour>
    <contour>
      <point x="-127" y="-213" type="line"/>
      <point x="-110" y="-222"/>
      <point x="-72" y="-236"/>
      <point x="-20" y="-236" type="curve" smooth="yes"/>
      <point x="98" y="-236"/>
      <point x="165" y="-176"/>
      <point x="182" y="-77" type="curve" smooth="yes"/>
      <point x="288" y="523" type="line"/>
      <point x="62" y="523" type="line"/>
      <point x="59" y="504" type="line"/>
      <point x="69" y="502" type="line" smooth="yes"/>
      <point x="78" y="500"/>
      <point x="82" y="492"/>
      <point x="79" y="473" type="curve" smooth="yes"/>
      <point x="-30" y="-144" type="line" smooth="yes"/>
      <point x="-38" y="-182"/>
      <point x="-49" y="-206"/>
      <point x="-78" y="-206" type="curve" smooth="yes"/>
      <point x="-101" y="-206"/>
      <point x="-112" y="-195"/>
      <point x="-118" y="-190" type="curve"/>
    </contour>
  </outline>
</glyph>
<glyph name="k" format="2">
  <advance width="521"/>
  <unicode hex="006B"/>
  <anchor x="259" y="0" name="bottom"/>
  <outline>
    <contour>
      <point x="459" y="75" type="line" smooth="yes" identifier="OrKq204Ukm"/>
      <point x="462" y="43" identifier="SrbOikPisr"/>
      <point x="468" y="28" identifier="JqDGTG4N6X"/>
      <point x="488" y="28" type="curve" smooth="yes" identifier="CfqUKLAWOF"/>
      <point x="496" y="28" identifier="rQtjRSZfYe"/>
      <point x="500" y="30" identifier="oRANyD78E8"/>
      <point x="503" y="32" type="curve" identifier="DsiTqjS1a4"/>
      <point x="499" y="16" type="line" identifier="XU0wPDT43j"/>
      <point x="480" y="4" identifier="4uDsKxaG48"/>
      <point x="441" y="-10" identifier="RuEiVchg2b"/>
      <point x="393" y="-10" type="curve" smooth="yes" identifier="CiQIyaUsYh"/>
      <point x="309" y="-10" identifier="vgo4GDX7Gt"/>
      <point x="269" y="26" identifier="ZkZGlxYZQ3"/>
      <point x="265" y="126" type="curve" smooth="yes" identifier="5W5RISOQnG"/>
      <point x="255" y="281" type="line" identifier="QfrWYJxh65"/>
      <point x="257" y="293" type="line" identifier="pEiAcrm5ik"/>
      <point x="334" y="357" identifier="wpOgpdOUgL"/>
      <point x="386" y="418" identifier="SAwY06OaRj"/>
      <point x="437" y="523" type="curve" identifier="Y23wxsbw9Y"/>
      <point x="563" y="523" type="line" identifier="AVyxpv4CWq"/>
      <point x="561" y="512" type="line" identifier="5uNVMITTO2"/>
      <point x="532" y="486" identifier="FzmmjB3U5Q"/>
      <point x="468" y="450" identifier="pMEOS9kiEq"/>
      <point x="398" y="424" type="curve" identifier="r33tV75480"/>
      <point x="428" y="461" type="line" identifier="ZTC9hCIUEV"/>
    </contour>
    <contour>
      <point x="-7" y="0" type="line" identifier="22iXN25W3i"/>
      <point x="116" y="701" type="line" smooth="yes" identifier="jBKTgOEI7e"/>
      <point x="120" y="720" identifier="5NkM7hifNy"/>
      <point x="116" y="727" identifier="8hL1ZUZCvA"/>
      <point x="106" y="729" type="curve" smooth="yes" identifier="AunwYzOIXx"/>
      <point x="96" y="731" type="line" identifier="wzK1ovxlyu"/>
      <point x="100" y="750" type="line" identifier="zP7aNpU615"/>
      <point x="325" y="750" type="line" identifier="YeF5eC2wTz"/>
      <point x="193" y="0" type="line" identifier="Jt9yzE88Oz"/>
    </contour>
  </outline>
</glyph>
<glyph name="m" format="2">
  <advance width="746"/>
  <unicode hex="006D"/>
  <anchor x="373" y="-10" name="bottom"/>
  <outline>
    <contour>
      <point x="-7" y="0" type="line"/>
      <point x="76" y="473" type="line" smooth="yes"/>
      <point x="80" y="492"/>
      <point x="76" y="500"/>
      <point x="66" y="502" type="curve" smooth="yes"/>
      <point x="56" y="504" type="line"/>
      <point x="60" y="523" type="line"/>
      <point x="275" y="523" type="line"/>
      <point x="255" y="393" type="line"/>
      <point x="262" y="391" type="line"/>
      <point x="193" y="0" type="line"/>
    </contour>
    <contour>
      <point x="703" y="127" type="line" smooth="yes"/>
      <point x="699" y="106"/>
      <point x="693" y="69"/>
      <point x="693" y="55" type="curve" smooth="yes"/>
      <point x="693" y="39"/>
      <point x="699" y="33"/>
      <point x="709" y="33" type="curve" smooth="yes"/>
      <point x="717" y="33"/>
      <point x="723" y="38"/>
      <point x="726" y="41" type="curve"/>
      <point x="723" y="21" type="line"/>
      <point x="705" y="5"/>
      <point x="668" y="-10"/>
      <point x="612" y="-10" type="curve" smooth="yes"/>
      <point x="538" y="-10"/>
      <point x="500" y="30"/>
      <point x="500" y="102" type="curve" smooth="yes"/>
      <point x="500" y="116"/>
      <point x="504" y="135"/>
      <point x="507" y="152" type="curve" smooth="yes"/>
      <point x="552" y="384" type="line" smooth="yes"/>
      <point x="553" y="390"/>
      <point x="555" y="403"/>
      <point x="555" y="410" type="curve" smooth="yes"/>
      <point x="555" y="419"/>
      <point x="551" y="422"/>
      <point x="545" y="422" type="curve" smooth="yes"/>
      <point x="531" y="422"/>
      <point x="507" y="396"/>
      <point x="486" y="316" type="curve"/>
      <point x="474" y="346" type="line"/>
      <point x="507" y="465"/>
      <point x="567" y="533"/>
      <point x="660" y="533" type="curve" smooth="yes"/>
      <point x="733" y="533"/>
      <point x="757" y="485"/>
      <point x="757" y="430" type="curve" smooth="yes"/>
      <point x="757" y="416"/>
      <point x="756" y="402"/>
      <point x="753" y="388" type="curve" smooth="yes"/>
    </contour>
    <contour>
      <point x="240" y="0" type="line"/>
      <point x="308" y="384" type="line" smooth="yes"/>
      <point x="309" y="390"/>
      <point x="311" y="400"/>
      <point x="311" y="408" type="curve" smooth="yes"/>
      <point x="311" y="419"/>
      <point x="307" y="422"/>
      <point x="301" y="422" type="curve" smooth="yes"/>
      <point x="288" y="422"/>
      <point x="262" y="396"/>
      <point x="241" y="316" type="curve"/>
      <point x="229" y="346" type="line"/>
      <point x="262" y="465"/>
      <point x="322" y="533"/>
      <point x="415" y="533" type="curve" smooth="yes"/>
      <point x="489" y="533"/>
      <point x="513" y="484"/>
      <point x="513" y="430" type="curve" smooth="yes"/>
      <point x="513" y="417"/>
      <point x="511" y="404"/>
      <point x="509" y="391" type="curve" smooth="yes"/>
      <point x="440" y="0" type="line"/>
    </contour>
  </outline>
</glyph>
<glyph name="n" format="2">
  <advance width="511"/>
  <unicode hex="006E"/>
  <anchor x="250" y="551" name="top"/>
  <anchor x="256" y="0" name="bottom"/>
  <outline>
    <contour>
      <point x="-7" y="0" type="line" identifier="jUx2UXcmIy"/>
      <point x="76" y="473" type="line" smooth="yes" identifier="CoyGoa45wm"/>
      <point x="80" y="492" identifier="lu5X72Svzi"/>
      <point x="76" y="500" identifier="N7tAL3JDTC"/>
      <point x="66" y="502" type="curve" smooth="yes" identifier="cPPEprRdU1"/>
      <point x="56" y="504" type="line" identifier="uscqyHmjzz"/>
      <point x="60" y="523" type="line" identifier="zNHTvxNemF"/>
      <point x="275" y="523" type="line" identifier="vvQBM6nVlu"/>
      <point x="255" y="393" type="line" identifier="L8D0W6DbDm"/>
      <point x="262" y="391" type="line" identifier="p6SoIB9Pad"/>
      <point x="193" y="0" type="line" identifier="mLDdIsea5U"/>
    </contour>
    <contour>
      <point x="464" y="104" type="line" smooth="yes" identifier="WXvu3XJh9w"/>
      <point x="462" y="93" identifier="DVi8pEBZuE"/>
      <point x="457" y="62" identifier="fLUWyXBMXh"/>
      <point x="457" y="54" type="curve" smooth="yes" identifier="8SNHHG3SOU"/>
      <point x="457.0" y="38.0" identifier="voJlnpADKe"/>
      <point x="464" y="33" identifier="SYxnWIvlkF"/>
      <point x="474" y="33" type="curve" smooth="yes" identifier="2Ntj2y8D6y"/>
      <point x="481.0" y="33.0" identifier="VKdT34R5nv"/>
      <point x="488" y="38" identifier="iRNgSHXyxV"/>
      <point x="491" y="41" type="curve" identifier="GabzaFPAzh"/>
      <point x="488" y="21" type="line" identifier="6qMVp6XzAE"/>
      <point x="471" y="5" identifier="LNwKvg5zZ5"/>
      <point x="434" y="-10" identifier="mUBYIFZ3mT"/>
      <point x="378" y="-10" type="curve" smooth="yes" identifier="ukWJTb8QYu"/>
      <point x="304.0" y="-10" identifier="wJdAU0NRJl"/>
      <point x="266" y="30" identifier="l9UMBckd2O"/>
      <point x="266" y="101" type="curve" smooth="yes" identifier="AYZvzpTkty"/>
      <point x="266" y="114" identifier="6GnvCqgcXe"/>
      <point x="269" y="134" identifier="UvWxPHCZLg"/>
      <point x="272" y="150" type="curve" smooth="yes" identifier="0noswGCD7K"/>
      <point x="317" y="384" type="line" smooth="yes" identifier="kMsHq2kJoU"/>
      <point x="318" y="389" identifier="kH0Z9OZ9f1"/>
      <point x="320" y="401" identifier="oRvonCwZwX"/>
      <point x="320" y="408" type="curve" smooth="yes" identifier="xqfnGerhLm"/>
      <point x="320.0" y="418.0" identifier="U6GhRU4cgI"/>
      <point x="317" y="424.0" identifier="EmASIKYsya"/>
      <point x="306" y="424" type="curve" smooth="yes" identifier="IEYLWXiicC"/>
      <point x="288" y="424" identifier="wHPYyjpVCd"/>
      <point x="264" y="400" identifier="mVoLjv2575"/>
      <point x="242" y="316" type="curve" identifier="nyHt9MlC8H"/>
      <point x="229" y="346" type="line" identifier="00SymWIlqB"/>
      <point x="264" y="465" identifier="tzW6Y4Sz88"/>
      <point x="331" y="533" identifier="gcJBZkMVl4"/>
      <point x="425" y="533" type="curve" smooth="yes" identifier="6Al21phrGI"/>
      <point x="498" y="533" identifier="VYEJmNB8LO"/>
      <point x="522" y="485" identifier="GWvpbrH5t0"/>
      <point x="522" y="430" type="curve" smooth="yes" identifier="JLFyb1N7Rw"/>
      <point x="522" y="416" identifier="7ddwA8qzOb"/>
      <point x="521" y="402" identifier="AVfFKrNcYB"/>
      <point x="518" y="388" type="curve" smooth="yes" identifier="XO0byrBNcj"/>
    </contour>
  </outline>
</glyph>
<glyph name="p" format="2">
  <advance width="507"/>
  <unicode hex="0070"/>
  <outline>
    <contour>
      <point x="-68" y="-223" type="line"/>
      <point x="192" y="-223" type="line"/>
      <point x="196" y="-204" type="line"/>
      <point x="192" y="-204" type="line" smooth="yes"/>
      <point x="166" y="-204"/>
      <point x="159" y="-199"/>
      <point x="160" y="-192" type="curve" smooth="yes"/>
      <point x="271" y="441" type="line"/>
      <point x="260" y="424" type="line"/>
      <point x="278" y="523" type="line"/>
      <point x="61" y="523" type="line"/>
      <point x="56" y="505" type="line"/>
      <point x="66" y="503" type="line" smooth="yes"/>
      <point x="74" y="499"/>
      <point x="79" y="492"/>
      <point x="76" y="473" type="curve" smooth="yes"/>
      <point x="-38" y="-180" type="line" smooth="yes"/>
      <point x="-42" y="-199"/>
      <point x="-50" y="-204"/>
      <point x="-60" y="-204" type="curve" smooth="yes"/>
      <point x="-64" y="-204" type="line"/>
    </contour>
    <contour>
      <point x="148" y="20" type="line"/>
      <point x="165" y="3"/>
      <point x="190" y="-10"/>
      <point x="237" y="-10" type="curve" smooth="yes"/>
      <point x="462" y="-10"/>
      <point x="515" y="213"/>
      <point x="515" y="354" type="curve" smooth="yes"/>
      <point x="515" y="465"/>
      <point x="469" y="533"/>
      <point x="387" y="533" type="curve" smooth="yes"/>
      <point x="298" y="533"/>
      <point x="259" y="454"/>
      <point x="210" y="322" type="curve"/>
      <point x="228" y="308" type="line"/>
      <point x="259" y="400"/>
      <point x="274" y="438"/>
      <point x="292" y="438" type="curve" smooth="yes"/>
      <point x="307" y="438"/>
      <point x="311" y="424"/>
      <point x="311" y="390" type="curve" smooth="yes"/>
      <point x="311" y="250"/>
      <point x="273" y="30"/>
      <point x="220" y="30" type="curve" smooth="yes"/>
      <point x="208" y="30"/>
      <point x="195" y="40"/>
      <point x="195" y="90" type="curve"/>
    </contour>
  </outline>
</glyph>
<glyph name="q" format="2">
  <advance width="499"/>
  <unicode hex="0071"/>
  <outline>
    <contour>
      <point x="165" y="-223" type="line"/>
      <point x="430" y="-223" type="line"/>
      <point x="434" y="-204" type="line"/>
      <point x="429" y="-204" type="line" smooth="yes"/>
      <point x="420" y="-204"/>
      <point x="410" y="-201"/>
      <point x="414" y="-176" type="curve" smooth="yes"/>
      <point x="537" y="523" type="line"/>
      <point x="417" y="523" type="line"/>
      <point x="346" y="488" type="line"/>
      <point x="330" y="488" type="line"/>
      <point x="211" y="-192" type="line" smooth="yes"/>
      <point x="209" y="-202"/>
      <point x="188" y="-204"/>
      <point x="174" y="-204" type="curve" smooth="yes"/>
      <point x="169" y="-204" type="line"/>
    </contour>
    <contour>
      <point x="360" y="469" type="line"/>
      <point x="343" y="507"/>
      <point x="318" y="533"/>
      <point x="257" y="533" type="curve" smooth="yes"/>
      <point x="85" y="533"/>
      <point x="14" y="310"/>
      <point x="14" y="171" type="curve" smooth="yes"/>
      <point x="14" y="58"/>
      <point x="61" y="-10"/>
      <point x="145" y="-10" type="curve" smooth="yes"/>
      <point x="235" y="-10"/>
      <point x="286" y="69"/>
      <point x="325" y="201" type="curve"/>
      <point x="305" y="210" type="line"/>
      <point x="274" y="118"/>
      <point x="262" y="76"/>
      <point x="239" y="76" type="curve" smooth="yes"/>
      <point x="222" y="76"/>
      <point x="218" y="100"/>
      <point x="218" y="142" type="curve" smooth="yes"/>
      <point x="218" y="247"/>
      <point x="252" y="488"/>
      <point x="313" y="488" type="curve" smooth="yes"/>
      <point x="330" y="488"/>
      <point x="341" y="474"/>
      <point x="344" y="444" type="curve"/>
    </contour>
  </outline>
</glyph>
<glyph name="r" format="2">
  <advance width="366"/>
  <unicode hex="0072"/>
  <anchor x="192" y="545" name="top"/>
  <anchor x="146" y="0" name="bottom"/>
  <outline>
    <contour>
      <point x="-8" y="0" type="line"/>
      <point x="78" y="473" type="line" smooth="yes"/>
      <point x="81" y="492"/>
      <point x="76.0" y="500.0"/>
      <point x="66" y="502" type="curve" smooth="yes"/>
      <point x="56" y="504" type="line"/>
      <point x="60" y="523" type="line"/>
      <point x="273" y="523" type="line"/>
      <point x="247" y="357" type="line"/>
      <point x="255" y="354" type="line"/>
      <point x="193" y="0" type="line"/>
    </contour>
    <contour>
      <point x="408" y="521" type="curve"/>
      <point x="374" y="374" type="line"/>
      <point x="366" y="376"/>
      <point x="350" y="380"/>
      <point x="327" y="380" type="curve" smooth="yes"/>
      <point x="283.0" y="380.0"/>
      <point x="259" y="364"/>
      <point x="242" y="328" type="curve"/>
      <point x="238" y="338" type="line"/>
      <point x="279" y="453"/>
      <point x="315" y="528"/>
      <point x="381" y="528" type="curve" smooth="yes"/>
      <point x="398" y="528"/>
      <point x="406" y="523"/>
    </contour>
  </outline>
</glyph>
<glyph name="s" format="2">
  <advance width="417"/>
  <unicode hex="0073"/>
  <anchor x="208" y="546" name="top"/>
  <anchor x="208" y="0" name="bottom"/>
  <outline>
    <contour>
      <point x="186" y="-10" type="curve" smooth="yes"/>
      <point x="329" y="-10"/>
      <point x="405" y="55"/>
      <point x="405" y="170" type="curve" smooth="yes"/>
      <point x="405" y="266"/>
      <point x="350" y="304"/>
      <point x="300" y="339" type="curve" smooth="yes"/>
      <point x="256" y="370"/>
      <point x="204" y="397"/>
      <point x="204" y="450" type="curve" smooth="yes"/>
      <point x="204.0" y="488.0"/>
      <point x="229" y="510"/>
      <point x="276" y="510" type="curve" smooth="yes"/>
      <point x="296.0" y="510.0"/>
      <point x="322" y="506"/>
      <point x="332" y="486" type="curve"/>
      <point x="332" y="504"/>
      <point x="327" y="508"/>
      <point x="318" y="512" type="curve"/>
      <point x="297" y="398" type="line"/>
      <point x="412" y="398" type="line"/>
      <point x="427" y="480" type="line"/>
      <point x="403" y="504"/>
      <point x="351" y="533"/>
      <point x="262" y="533" type="curve" smooth="yes"/>
      <point x="124.0" y="533.0"/>
      <point x="50" y="462"/>
      <point x="50" y="360" type="curve" smooth="yes"/>
      <point x="50" y="274"/>
      <point x="102" y="234"/>
      <point x="152" y="200" type="curve" smooth="yes"/>
      <point x="198" y="169"/>
      <point x="256" y="139"/>
      <point x="256" y="84" type="curve" smooth="yes"/>
      <point x="256.0" y="48.0"/>
      <point x="237" y="17"/>
      <point x="182" y="17" type="curve" smooth="yes"/>
      <point x="141.0" y="17"/>
      <point x="110" y="28"/>
      <point x="96" y="53" type="curve"/>
      <point x="87" y="56"/>
      <point x="81" y="29"/>
      <point x="113" y="24" type="curve"/>
      <point x="134" y="143" type="line"/>
      <point x="18" y="143" type="line"/>
      <point x="1" y="42" type="line"/>
      <point x="37" y="14"/>
      <point x="103" y="-10"/>
    </contour>
  </outline>
</glyph>
<glyph name="u" format="2">
  <advance width="517"/>
  <unicode hex="0075"/>
  <anchor x="238" y="551" name="top"/>
  <anchor x="238" y="0" name="bottom"/>
  <anchor x="372" y="0" name="right"/>
  <outline>
    <contour>
      <point x="219" y="156" type="curve" smooth="yes"/>
      <point x="289" y="523" type="line"/>
      <point x="62" y="523" type="line"/>
      <point x="59" y="504" type="line"/>
      <point x="69" y="502" type="line" smooth="yes"/>
      <point x="79" y="500"/>
      <point x="83" y="492"/>
      <point x="79" y="473" type="curve" smooth="yes"/>
      <point x="17" y="145" type="line" smooth="yes"/>
      <point x="14" y="130"/>
      <point x="13" y="114"/>
      <point x="13" y="100" type="curve" smooth="yes"/>
      <point x="13" y="39"/>
      <point x="40" y="-10"/>
      <point x="109" y="-10" type="curve" smooth="yes"/>
      <point x="191" y="-10"/>
      <point x="263" y="58"/>
      <point x="304" y="177" type="curve"/>
      <point x="295" y="205" type="line"/>
      <point x="273" y="122"/>
      <point x="248" y="103"/>
      <point x="230" y="103" type="curve" smooth="yes"/>
      <point x="221" y="103"/>
      <point x="214" y="110"/>
      <point x="214" y="122" type="curve" smooth="yes"/>
      <point x="214" y="124"/>
      <point x="215" y="136"/>
    </contour>
    <contour>
      <point x="463" y="84" type="curve" smooth="yes"/>
      <point x="541" y="523" type="line"/>
      <point x="341" y="523" type="line"/>
      <point x="269" y="115" type="line"/>
      <point x="273" y="114" type="line"/>
      <point x="272" y="108"/>
      <point x="272" y="102"/>
      <point x="272" y="96" type="curve" smooth="yes"/>
      <point x="272.0" y="30.0"/>
      <point x="311" y="-10"/>
      <point x="386" y="-10" type="curve" smooth="yes"/>
      <point x="437.0" y="-10.0"/>
      <point x="472" y="5"/>
      <point x="491" y="21" type="curve"/>
      <point x="494" y="41" type="line"/>
      <point x="490" y="38"/>
      <point x="484" y="33"/>
      <point x="475" y="33" type="curve" smooth="yes"/>
      <point x="466.0" y="33.0"/>
      <point x="460" y="38"/>
      <point x="460" y="54" type="curve" smooth="yes"/>
      <point x="460.0" y="65.0"/>
      <point x="461" y="73"/>
    </contour>
  </outline>
</glyph>
<glyph name="v" format="2">
  <advance width="401"/>
  <unicode hex="0076"/>
  <outline>
    <contour>
      <point x="238" y="523" type="line"/>
      <point x="249" y="99" type="line"/>
      <point x="219" y="63" type="line"/>
      <point x="311" y="199"/>
      <point x="333" y="352"/>
      <point x="337" y="523" type="curve"/>
      <point x="442" y="523" type="line"/>
      <point x="442" y="517" type="line"/>
      <point x="407" y="334"/>
      <point x="292" y="127"/>
      <point x="185" y="0" type="curve"/>
      <point x="58" y="0" type="line"/>
      <point x="43" y="482" type="line" smooth="yes"/>
      <point x="43" y="494"/>
      <point x="44" y="503"/>
      <point x="37" y="504" type="curve" smooth="yes"/>
      <point x="25" y="506" type="line"/>
      <point x="31" y="523" type="line"/>
    </contour>
  </outline>
</glyph>
<glyph name="x" format="2">
  <advance width="463"/>
  <unicode hex="0078"/>
  <outline>
    <contour>
      <point x="323" y="291" type="line"/>
      <point x="502" y="512" type="line"/>
      <point x="502" y="523" type="line"/>
      <point x="397" y="523" type="line"/>
      <point x="316" y="276" type="line"/>
    </contour>
    <contour>
      <point x="-19" y="0" type="line"/>
      <point x="86" y="0" type="line"/>
      <point x="177" y="253" type="line"/>
      <point x="173" y="249" type="line"/>
      <point x="-19" y="11" type="line"/>
    </contour>
    <contour>
      <point x="316" y="-10" type="curve"/>
      <point x="367" y="-10"/>
      <point x="408" y="7"/>
      <point x="427" y="21" type="curve"/>
      <point x="433" y="41" type="line"/>
      <point x="431" y="38"/>
      <point x="427" y="33"/>
      <point x="417" y="33" type="curve" smooth="yes"/>
      <point x="407" y="33"/>
      <point x="401" y="40"/>
      <point x="397" y="61" type="curve" smooth="yes"/>
      <point x="291" y="523" type="line"/>
      <point x="86" y="523" type="line"/>
      <point x="82" y="504" type="line"/>
      <point x="89" y="502" type="line" smooth="yes"/>
      <point x="93" y="500"/>
      <point x="93" y="493"/>
      <point x="95" y="483" type="curve" smooth="yes"/>
      <point x="181" y="102" type="line" smooth="yes"/>
      <point x="195" y="28"/>
      <point x="242" y="-10"/>
    </contour>
  </outline>
</glyph>
<glyph name="asciitilde" format="2">
  <advance width="382"/>
  <unicode hex="007E"/>
  <outline>
    <contour>
      <point x="168" y="467" type="curve" smooth="yes"/>
      <point x="112" y="467"/>
      <point x="75" y="421"/>
      <point x="41" y="304" type="curve"/>
      <point x="67" y="296" type="line"/>
      <point x="82" y="334"/>
      <point x="96" y="362"/>
      <point x="123" y="362" type="curve" smooth="yes"/>
      <point x="160" y="362"/>
      <point x="192" y="286"/>
      <point x="251" y="286" type="curve" smooth="yes"/>
      <point x="304" y="286"/>
      <point x="342" y="328"/>
      <point x="383" y="447" type="curve"/>
      <point x="357" y="456" type="line"/>
      <point x="340" y="419"/>
      <point x="321" y="391"/>
      <point x="295" y="391" type="curve" smooth="yes"/>
      <point x="258" y="391"/>
      <point x="228" y="467"/>
    </contour>
  </outline>
</glyph>
<glyph name="cent" format="2">
  <advance width="420"/>
  <unicode hex="00A2"/>
  <outline>
    <contour>
      <point x="199" y="-10" type="curve" smooth="yes"/>
      <point x="291" y="-10"/>
      <point x="345" y="50"/>
      <point x="388" y="138" type="curve"/>
      <point x="374" y="154" type="line"/>
      <point x="347" y="94"/>
      <point x="300" y="26"/>
      <point x="241" y="26" type="curve" smooth="yes"/>
      <point x="200" y="26"/>
      <point x="175" y="62"/>
      <point x="175" y="202" type="curve" smooth="yes"/>
      <point x="175" y="372"/>
      <point x="226" y="505"/>
      <point x="305" y="505" type="curve" smooth="yes"/>
      <point x="327" y="505"/>
      <point x="348" y="498"/>
      <point x="362" y="480" type="curve"/>
      <point x="364" y="504"/>
      <point x="349" y="511"/>
      <point x="337" y="518" type="curve"/>
      <point x="309" y="355" type="line"/>
      <point x="417" y="355" type="line"/>
      <point x="438" y="477" type="line"/>
      <point x="419" y="499"/>
      <point x="371" y="534"/>
      <point x="289" y="534" type="curve" smooth="yes"/>
      <point x="138" y="534"/>
      <point x="15" y="412"/>
      <point x="15" y="222" type="curve" smooth="yes"/>
      <point x="15" y="69"/>
      <point x="94" y="-10"/>
    </contour>
    <contour>
      <point x="158" y="-126" type="line"/>
      <point x="194" y="-126" type="line"/>
      <point x="216" y="-2" type="line"/>
      <point x="215" y="15" type="line"/>
      <point x="302" y="514" type="line"/>
      <point x="309" y="522" type="line"/>
      <point x="329" y="633" type="line"/>
      <point x="292" y="633" type="line"/>
      <point x="273" y="529" type="line"/>
      <point x="281" y="520" type="line"/>
      <point x="192" y="14" type="line"/>
      <point x="180" y="0" type="line"/>
    </contour>
  </outline>
</glyph>
<glyph name="sterling" format="2">
  <advance width="421"/>
  <unicode hex="00A3"/>
  <outline>
    <contour>
      <point x="328" y="687" type="curve" smooth="yes"/>
      <point x="345" y="687"/>
      <point x="353" y="680"/>
      <point x="360" y="666" type="curve"/>
      <point x="378" y="663"/>
      <point x="380" y="693"/>
      <point x="348" y="693" type="curve"/>
      <point x="323" y="548" type="line"/>
      <point x="443" y="548" type="line"/>
      <point x="464" y="669" type="line"/>
      <point x="446" y="688"/>
      <point x="397" y="720"/>
      <point x="310" y="720" type="curve" smooth="yes"/>
      <point x="164" y="720"/>
      <point x="80" y="616"/>
      <point x="80" y="477" type="curve" smooth="yes"/>
      <point x="80" y="395"/>
      <point x="109" y="324"/>
      <point x="109" y="247" type="curve" smooth="yes"/>
      <point x="109" y="113"/>
      <point x="51" y="33"/>
      <point x="-23" y="17" type="curve"/>
      <point x="-27" y="-6" type="line"/>
      <point x="190" y="9"/>
      <point x="254" y="193"/>
      <point x="254" y="380" type="curve" smooth="yes"/>
      <point x="254" y="415"/>
      <point x="252" y="459"/>
      <point x="252" y="493" type="curve" smooth="yes"/>
      <point x="252" y="595"/>
      <point x="270" y="687"/>
    </contour>
    <contour>
      <point x="39" y="384" type="line"/>
      <point x="34" y="352" type="line"/>
      <point x="352" y="352" type="line"/>
      <point x="357" y="384" type="line"/>
    </contour>
    <contour>
      <point x="275" y="-10" type="curve" smooth="yes"/>
      <point x="320" y="-10"/>
      <point x="365" y="23"/>
      <point x="417" y="216" type="curve"/>
      <point x="390" y="224" type="line"/>
      <point x="358" y="164"/>
      <point x="334" y="129"/>
      <point x="287" y="129" type="curve" smooth="yes"/>
      <point x="261" y="129"/>
      <point x="222" y="137"/>
      <point x="193" y="162" type="curve"/>
      <point x="181" y="146" type="line"/>
      <point x="211" y="19"/>
      <point x="232" y="-10"/>
    </contour>
  </outline>
</glyph>
<glyph name="currency" format="2">
  <advance width="410"/>
  <unicode hex="00A4"/>
  <outline>
    <contour>
      <point x="17" y="140" type="line"/>
      <point x="123" y="230" type="line"/>
      <point x="91" y="262" type="line"/>
      <point x="-13" y="176" type="line"/>
    </contour>
    <contour>
      <point x="32" y="574" type="line"/>
      <point x="104" y="488" type="line"/>
      <point x="141" y="514" type="line"/>
      <point x="67" y="604" type="line"/>
    </contour>
    <contour>
      <point x="204" y="222" type="curve" smooth="yes"/>
      <point x="135" y="222"/>
      <point x="93" y="270"/>
      <point x="93" y="362" type="curve" smooth="yes"/>
      <point x="93" y="447"/>
      <point x="136" y="524"/>
      <point x="220" y="524" type="curve" smooth="yes"/>
      <point x="290" y="524"/>
      <point x="335" y="474"/>
      <point x="335" y="387" type="curve" smooth="yes"/>
      <point x="335" y="303"/>
      <point x="290" y="222"/>
    </contour>
    <contour>
      <point x="207" y="190" type="curve" smooth="yes"/>
      <point x="306" y="190"/>
      <point x="373" y="286"/>
      <point x="373" y="386" type="curve" smooth="yes"/>
      <point x="373" y="496"/>
      <point x="302" y="556"/>
      <point x="219" y="556" type="curve" smooth="yes"/>
      <point x="120" y="556"/>
      <point x="54" y="464"/>
      <point x="54" y="362" type="curve" smooth="yes"/>
      <point x="54" y="250"/>
      <point x="125" y="190"/>
    </contour>
    <contour>
      <point x="371" y="142" type="line"/>
      <point x="405" y="172" type="line"/>
      <point x="333" y="258" type="line"/>
      <point x="295" y="232" type="line"/>
    </contour>
    <contour>
      <point x="441" y="570" type="line"/>
      <point x="411" y="606" type="line"/>
      <point x="303" y="516" type="line"/>
      <point x="337" y="483" type="line"/>
    </contour>
  </outline>
</glyph>
<glyph name="yen" format="2">
  <advance width="420"/>
  <unicode hex="00A5"/>
  <outline>
    <contour>
      <point x="25" y="250" type="line"/>
      <point x="20" y="220" type="line"/>
      <point x="394" y="220" type="line"/>
      <point x="399" y="250" type="line"/>
    </contour>
    <contour>
      <point x="45" y="364" type="line"/>
      <point x="40" y="334" type="line"/>
      <point x="414" y="334" type="line"/>
      <point x="419" y="364" type="line"/>
    </contour>
    <contour>
      <point x="145" y="408" type="line"/>
      <point x="82" y="53" type="line" smooth="yes"/>
      <point x="78" y="24"/>
      <point x="60" y="22"/>
      <point x="40" y="22" type="curve" smooth="yes"/>
      <point x="28" y="22" type="line"/>
      <point x="24" y="0" type="line"/>
      <point x="308" y="0" type="line"/>
      <point x="312" y="22" type="line"/>
      <point x="300" y="22" type="line" smooth="yes"/>
      <point x="278" y="22"/>
      <point x="264" y="24"/>
      <point x="270" y="53" type="curve" smooth="yes"/>
      <point x="332" y="408" type="line"/>
    </contour>
    <contour>
      <point x="320" y="360" type="line"/>
      <point x="456" y="661" type="line" smooth="yes"/>
      <point x="464" y="680"/>
      <point x="478" y="688"/>
      <point x="485" y="688" type="curve" smooth="yes"/>
      <point x="490" y="688" type="line"/>
      <point x="493" y="710" type="line"/>
      <point x="388" y="710" type="line"/>
      <point x="385" y="688" type="line"/>
      <point x="394" y="688" type="line" smooth="yes"/>
      <point x="411" y="688"/>
      <point x="437" y="681"/>
      <point x="435" y="670" type="curve"/>
      <point x="308" y="381" type="line"/>
      <point x="323" y="409" type="line"/>
      <point x="297" y="678" type="line"/>
      <point x="298" y="685"/>
      <point x="307" y="688"/>
      <point x="319" y="688" type="curve" smooth="yes"/>
      <point x="333" y="688" type="line"/>
      <point x="336" y="710" type="line"/>
      <point x="91" y="710" type="line"/>
      <point x="88" y="688" type="line"/>
      <point x="91" y="688" type="line" smooth="yes"/>
      <point x="99" y="688"/>
      <point x="103" y="683"/>
      <point x="105" y="668" type="curve" smooth="yes"/>
      <point x="143" y="360" type="line"/>
    </contour>
  </outline>
</glyph>
<glyph name="brokenbar" format="2">
  <advance width="188"/>
  <unicode hex="00A6"/>
  <outline>
    <contour>
      <point x="97" y="750" type="line"/>
      <point x="97" y="350" type="line"/>
      <point x="135" y="350" type="line"/>
      <point x="135" y="750" type="line"/>
    </contour>
    <contour>
      <point x="97" y="230" type="line"/>
      <point x="97" y="-170" type="line"/>
      <point x="135" y="-170" type="line"/>
      <point x="135" y="230" type="line"/>
    </contour>
  </outline>
</glyph>
<glyph name="section" format="2">
  <advance width="493"/>
  <unicode hex="00A7"/>
  <outline>
    <contour>
      <point x="149" y="-236" type="curve" smooth="yes"/>
      <point x="280" y="-236"/>
      <point x="372" y="-152"/>
      <point x="372" y="-33" type="curve" smooth="yes"/>
      <point x="372" y="67"/>
      <point x="312" y="120"/>
      <point x="256" y="166" type="curve" smooth="yes"/>
      <point x="208" y="205"/>
      <point x="154" y="240"/>
      <point x="154" y="296" type="curve" smooth="yes"/>
      <point x="154" y="335"/>
      <point x="169" y="355"/>
      <point x="200" y="363" type="curve"/>
      <point x="191" y="379" type="line"/>
      <point x="75" y="365"/>
      <point x="24" y="290"/>
      <point x="24" y="203" type="curve" smooth="yes"/>
      <point x="24" y="109"/>
      <point x="87" y="63"/>
      <point x="142" y="17" type="curve" smooth="yes"/>
      <point x="183" y="-18"/>
      <point x="229" y="-55"/>
      <point x="229" y="-119" type="curve" smooth="yes"/>
      <point x="229" y="-168"/>
      <point x="209" y="-208"/>
      <point x="153" y="-208" type="curve" smooth="yes"/>
      <point x="111" y="-208"/>
      <point x="87" y="-190"/>
      <point x="79" y="-168" type="curve"/>
      <point x="67" y="-172"/>
      <point x="79" y="-216"/>
      <point x="99" y="-223" type="curve"/>
      <point x="127" y="-69" type="line"/>
      <point x="-19" y="-69" type="line"/>
      <point x="-37" y="-178" type="line"/>
      <point x="2" y="-209"/>
      <point x="63" y="-236"/>
    </contour>
    <contour>
      <point x="282" y="104" type="line"/>
      <point x="391" y="112"/>
      <point x="473" y="168"/>
      <point x="473" y="270" type="curve" smooth="yes"/>
      <point x="473" y="349"/>
      <point x="424" y="400"/>
      <point x="375" y="447" type="curve" smooth="yes"/>
      <point x="325" y="495"/>
      <point x="269" y="540"/>
      <point x="269" y="608" type="curve" smooth="yes"/>
      <point x="269" y="658"/>
      <point x="291" y="694"/>
      <point x="347" y="694" type="curve" smooth="yes"/>
      <point x="385" y="694"/>
      <point x="405" y="682"/>
      <point x="407" y="654" type="curve"/>
      <point x="419" y="672"/>
      <point x="410" y="695"/>
      <point x="384" y="696" type="curve"/>
      <point x="361" y="568" type="line"/>
      <point x="493" y="568" type="line"/>
      <point x="511" y="671" type="line"/>
      <point x="497" y="686"/>
      <point x="436" y="720"/>
      <point x="339" y="720" type="curve" smooth="yes"/>
      <point x="177" y="720"/>
      <point x="123" y="616"/>
      <point x="123" y="525" type="curve" smooth="yes"/>
      <point x="123" y="441"/>
      <point x="174" y="384"/>
      <point x="224" y="334" type="curve" smooth="yes"/>
      <point x="270" y="287"/>
      <point x="325" y="243"/>
      <point x="325" y="189" type="curve" smooth="yes"/>
      <point x="325" y="146"/>
      <point x="300" y="127"/>
      <point x="278" y="122" type="curve"/>
    </contour>
  </outline>
</glyph>
<glyph name="macron" format="2">
  <advance width="340"/>
  <unicode hex="00AF"/>
  <anchor x="168" y="526" name="_top"/>
  <outline>
    <contour>
      <point x="108" y="643" type="line"/>
      <point x="100" y="598" type="line"/>
      <point x="354" y="598" type="line"/>
      <point x="362" y="643" type="line"/>
    </contour>
  </outline>
</glyph>
<glyph name="degree" format="2">
  <advance width="339"/>
  <unicode hex="00B0"/>
  <outline>
    <contour>
      <point x="235" y="486" type="curve" smooth="yes"/>
      <point x="172" y="486"/>
      <point x="129" y="533"/>
      <point x="129" y="595" type="curve" smooth="yes"/>
      <point x="129" y="660"/>
      <point x="172" y="705"/>
      <point x="235" y="705" type="curve" smooth="yes"/>
      <point x="299" y="705"/>
      <point x="342" y="660"/>
      <point x="342" y="595" type="curve" smooth="yes"/>
      <point x="342" y="533"/>
      <point x="299" y="486"/>
    </contour>
    <contour>
      <point x="235" y="462" type="curve" smooth="yes"/>
      <point x="313" y="462"/>
      <point x="375" y="516"/>
      <point x="375" y="595" type="curve" smooth="yes"/>
      <point x="375" y="675"/>
      <point x="313" y="729"/>
      <point x="235" y="729" type="curve" smooth="yes"/>
      <point x="158" y="729"/>
      <point x="96" y="675"/>
      <point x="96" y="595" type="curve" smooth="yes"/>
      <point x="96" y="516"/>
      <point x="158" y="462"/>
    </contour>
  </outline>
</glyph>
<glyph name="acute" format="2">
  <advance width="332"/>
  <unicode hex="00B4"/>
  <anchor x="142" y="527" name="_top"/>
  <outline>
    <contour>
      <point x="221" y="708" type="curve" smooth="yes"/>
      <point x="177" y="575" type="line"/>
      <point x="176" y="563" type="line"/>
      <point x="215" y="563" type="line"/>
      <point x="292" y="635" type="line" smooth="yes"/>
      <point x="323" y="666"/>
      <point x="356" y="699"/>
      <point x="358" y="734" type="curve" smooth="yes"/>
      <point x="360" y="772"/>
      <point x="343" y="794"/>
      <point x="306" y="794" type="curve" smooth="yes"/>
      <point x="257" y="794"/>
      <point x="236" y="752"/>
    </contour>
  </outline>
</glyph>
<glyph name="multiply" format="2">
  <advance width="406"/>
  <unicode hex="00D7"/>
  <outline>
    <contour>
      <point x="33" y="168" type="line"/>
      <point x="398" y="491" type="line"/>
      <point x="380" y="514" type="line"/>
      <point x="15" y="191" type="line"/>
    </contour>
    <contour>
      <point x="332" y="171" type="line"/>
      <point x="356" y="191" type="line"/>
      <point x="85" y="515" type="line"/>
      <point x="61" y="495" type="line"/>
    </contour>
  </outline>
</glyph>
<glyph name="Oslash" format="2">
  <advance width="578"/>
  <unicode hex="00D8"/>
  <anchor x="283" y="731" name="top"/>
  <outline>
    <contour>
      <point x="265" y="-10" type="curve" smooth="yes"/>
      <point x="450" y="-10"/>
      <point x="581" y="188"/>
      <point x="581" y="407" type="curve" smooth="yes"/>
      <point x="581" y="578"/>
      <point x="501" y="720"/>
      <point x="347" y="720" type="curve" smooth="yes"/>
      <point x="162" y="720"/>
      <point x="31" y="522"/>
      <point x="31" y="303" type="curve" smooth="yes"/>
      <point x="31" y="132"/>
      <point x="111" y="-10"/>
    </contour>
    <contour>
      <point x="250" y="15" type="curve" smooth="yes"/>
      <point x="230" y="15"/>
      <point x="219" y="39"/>
      <point x="219" y="85" type="curve" smooth="yes"/>
      <point x="219" y="168"/>
      <point x="234" y="256"/>
      <point x="258" y="394" type="curve" smooth="yes"/>
      <point x="308" y="646"/>
      <point x="335" y="695"/>
      <point x="364" y="695" type="curve" smooth="yes"/>
      <point x="382" y="695"/>
      <point x="393" y="672"/>
      <point x="393" y="624" type="curve" smooth="yes"/>
      <point x="393" y="549"/>
      <point x="377" y="456"/>
      <point x="353" y="318" type="curve" smooth="yes"/>
      <point x="304" y="66"/>
      <point x="281" y="15"/>
    </contour>
    <contour>
      <point x="-6" y="-15" type="line"/>
      <point x="34" y="-15" type="line"/>
      <point x="624" y="725" type="line"/>
      <point x="584" y="725" type="line"/>
    </contour>
  </outline>
</glyph>
<glyph name="Thorn" format="2">
  <advance width="550"/>
  <unicode hex="00DE"/>
  <outline>
    <contour>
      <point x="332" y="658" type="line" smooth="yes"/>
      <point x="338" y="685"/>
      <point x="348" y="690"/>
      <point x="366" y="690" type="curve" smooth="yes"/>
      <point x="376" y="690" type="line"/>
      <point x="379" y="710" type="line"/>
      <point x="90" y="710" type="line"/>
      <point x="86" y="690" type="line"/>
      <point x="94" y="690" type="line" smooth="yes"/>
      <point x="112" y="690"/>
      <point x="122" y="684"/>
      <point x="118" y="658" type="curve" smooth="yes"/>
      <point x="12" y="52" type="line" smooth="yes"/>
      <point x="6" y="25"/>
      <point x="-4" y="20"/>
      <point x="-22" y="20" type="curve" smooth="yes"/>
      <point x="-32" y="20" type="line"/>
      <point x="-35" y="0" type="line"/>
      <point x="254" y="0" type="line"/>
      <point x="258" y="20" type="line"/>
      <point x="250" y="20" type="line" smooth="yes"/>
      <point x="232" y="20"/>
      <point x="222" y="26"/>
      <point x="226" y="52" type="curve" smooth="yes"/>
    </contour>
    <contour>
      <point x="222" y="155" type="line"/>
      <point x="307" y="155" type="line" smooth="yes"/>
      <point x="476" y="155"/>
      <point x="568" y="244"/>
      <point x="568" y="382" type="curve" smooth="yes"/>
      <point x="568" y="496"/>
      <point x="506" y="566"/>
      <point x="362" y="566" type="curve" smooth="yes"/>
      <point x="289" y="566" type="line"/>
      <point x="281" y="533" type="line"/>
      <point x="316" y="533" type="line" smooth="yes"/>
      <point x="345" y="533"/>
      <point x="360" y="504"/>
      <point x="360" y="422" type="curve" smooth="yes"/>
      <point x="360" y="326"/>
      <point x="339" y="188"/>
      <point x="265" y="188" type="curve" smooth="yes"/>
      <point x="230" y="188" type="line"/>
    </contour>
  </outline>
</glyph>
<glyph name="eth" format="2">
  <advance width="494"/>
  <unicode hex="00F0"/>
  <outline>
    <contour>
      <point x="154" y="604" type="line"/>
      <point x="166" y="575" type="line"/>
      <point x="442" y="696" type="line"/>
      <point x="430" y="725" type="line"/>
    </contour>
    <contour>
      <point x="346" y="440" type="line"/>
      <point x="337" y="483"/>
      <point x="316" y="533"/>
      <point x="240" y="533" type="curve" smooth="yes"/>
      <point x="126" y="533"/>
      <point x="21" y="405"/>
      <point x="21" y="238" type="curve" smooth="yes"/>
      <point x="21" y="94"/>
      <point x="99" y="-10"/>
      <point x="227" y="-10" type="curve" smooth="yes"/>
      <point x="395" y="-10"/>
      <point x="501" y="135"/>
      <point x="501" y="341" type="curve" smooth="yes"/>
      <point x="501" y="499"/>
      <point x="437" y="665"/>
      <point x="211" y="757" type="curve"/>
      <point x="205" y="734" type="line"/>
      <point x="287" y="664"/>
      <point x="312" y="572"/>
      <point x="312" y="466" type="curve"/>
      <point x="312" y="401"/>
      <point x="301" y="329"/>
      <point x="287" y="250" type="curve" smooth="yes"/>
      <point x="251" y="45"/>
      <point x="240" y="15"/>
      <point x="219" y="15" type="curve" smooth="yes"/>
      <point x="208" y="15"/>
      <point x="201" y="22"/>
      <point x="201" y="60" type="curve" smooth="yes"/>
      <point x="201" y="93"/>
      <point x="209" y="163"/>
      <point x="229" y="273" type="curve" smooth="yes"/>
      <point x="256" y="427"/>
      <point x="266" y="485"/>
      <point x="294" y="485" type="curve" smooth="yes"/>
      <point x="318" y="485"/>
      <point x="322" y="429"/>
      <point x="330" y="384" type="curve"/>
    </contour>
  </outline>
</glyph>
<glyph name="oslash" format="2">
  <advance width="493"/>
  <unicode hex="00F8"/>
  <anchor x="246" y="551" name="top"/>
  <outline>
    <contour>
      <point x="219" y="15" type="curve" smooth="yes"/>
      <point x="203" y="15"/>
      <point x="196" y="32"/>
      <point x="196" y="60" type="curve" smooth="yes"/>
      <point x="196" y="86"/>
      <point x="204" y="136"/>
      <point x="220" y="238" type="curve" smooth="yes"/>
      <point x="255" y="458"/>
      <point x="267" y="508"/>
      <point x="297" y="508" type="curve" smooth="yes"/>
      <point x="313" y="508"/>
      <point x="320" y="491"/>
      <point x="320" y="463" type="curve" smooth="yes"/>
      <point x="320" y="434"/>
      <point x="314" y="376"/>
      <point x="296" y="268" type="curve" smooth="yes"/>
      <point x="260" y="50"/>
      <point x="247" y="15"/>
    </contour>
    <contour>
      <point x="12" y="-10" type="line"/>
      <point x="57" y="-10" type="line"/>
      <point x="504" y="533" type="line"/>
      <point x="459" y="533" type="line"/>
    </contour>
    <contour>
      <point x="121" y="533"/>
      <point x="21" y="385"/>
      <point x="21" y="232" type="curve" smooth="yes"/>
      <point x="21" y="94"/>
      <point x="99" y="-10"/>
      <point x="226" y="-10" type="curve" smooth="yes"/>
      <point x="395" y="-10"/>
      <point x="495" y="138"/>
      <point x="495" y="291" type="curve" smooth="yes"/>
      <point x="495" y="429"/>
      <point x="417" y="533"/>
      <point x="290" y="533" type="curve" smooth="yes"/>
    </contour>
  </outline>
</glyph>
<glyph name="thorn" format="2">
  <advance width="507"/>
  <unicode hex="00FE"/>
  <outline>
    <contour>
      <point x="311" y="250"/>
      <point x="273" y="30"/>
      <point x="220" y="30" type="curve" smooth="yes"/>
      <point x="208" y="30"/>
      <point x="195" y="40"/>
      <point x="195" y="90" type="curve"/>
      <point x="148" y="20" type="line"/>
      <point x="165" y="3"/>
      <point x="190" y="-10"/>
      <point x="237" y="-10" type="curve" smooth="yes"/>
      <point x="462" y="-10"/>
      <point x="515" y="213"/>
      <point x="515" y="354" type="curve" smooth="yes"/>
      <point x="515" y="465"/>
      <point x="469" y="533"/>
      <point x="387" y="533" type="curve" smooth="yes"/>
      <point x="298" y="533"/>
      <point x="259" y="454"/>
      <point x="210" y="322" type="curve"/>
      <point x="228" y="308" type="line"/>
      <point x="259" y="400"/>
      <point x="274" y="438"/>
      <point x="292" y="438" type="curve" smooth="yes"/>
      <point x="307" y="438"/>
      <point x="311" y="424"/>
      <point x="311" y="390" type="curve" smooth="yes"/>
    </contour>
    <contour>
      <point x="192" y="-223" type="line"/>
      <point x="196" y="-204" type="line"/>
      <point x="192" y="-204" type="line" smooth="yes"/>
      <point x="166" y="-204"/>
      <point x="159" y="-199"/>
      <point x="160" y="-192" type="curve" smooth="yes"/>
      <point x="325" y="750" type="line"/>
      <point x="100" y="750" type="line"/>
      <point x="96" y="731" type="line"/>
      <point x="106" y="729" type="line" smooth="yes"/>
      <point x="116" y="727"/>
      <point x="120" y="719"/>
      <point x="116" y="700" type="curve" smooth="yes"/>
      <point x="-38" y="-180" type="line" smooth="yes"/>
      <point x="-42" y="-199"/>
      <point x="-50" y="-204"/>
      <point x="-60" y="-204" type="curve" smooth="yes"/>
      <point x="-64" y="-204" type="line"/>
      <point x="-68" y="-223" type="line"/>
    </contour>
  </outline>
</glyph>
<glyph name="Aogonek" format="2">
  <advance width="529"/>
  <unicode hex="0104"/>
  <outline>
    <contour>
      <point x="102" y="264" type="line"/>
      <point x="88" y="236" type="line"/>
      <point x="268" y="236" type="line"/>
      <point x="279" y="264" type="line"/>
    </contour>
    <contour>
      <point x="479" y="0" type="line"/>
      <point x="482" y="20" type="line"/>
      <point x="480" y="20" type="line"/>
      <point x="468" y="20"/>
      <point x="466" y="25"/>
      <point x="464" y="48" type="curve" smooth="yes"/>
      <point x="420" y="710" type="line"/>
      <point x="257" y="710" type="line"/>
      <point x="19" y="59" type="line" smooth="yes"/>
      <point x="8" y="29"/>
      <point x="-8" y="20"/>
      <point x="-26" y="20" type="curve"/>
      <point x="-32" y="20" type="line"/>
      <point x="-35" y="0" type="line"/>
      <point x="74" y="0" type="line"/>
      <point x="78" y="20" type="line"/>
      <point x="70" y="20" type="line" smooth="yes"/>
      <point x="52" y="20"/>
      <point x="34" y="24"/>
      <point x="35" y="34" type="curve"/>
      <point x="242" y="603" type="line"/>
      <point x="208" y="622" type="line"/>
      <point x="247" y="0" type="line"/>
    </contour>
    <contour>
      <point x="312" y="4" type="line"/>
      <point x="174" y="-6"/>
      <point x="124" y="-68"/>
      <point x="124" y="-135" type="curve" smooth="yes"/>
      <point x="124" y="-195"/>
      <point x="173" y="-223"/>
      <point x="222" y="-223" type="curve" smooth="yes"/>
      <point x="270" y="-223"/>
      <point x="301" y="-198"/>
      <point x="326" y="-158" type="curve"/>
      <point x="317" y="-140" type="line"/>
      <point x="308" y="-151"/>
      <point x="290" y="-168"/>
      <point x="270" y="-168" type="curve" smooth="yes"/>
      <point x="248" y="-168"/>
      <point x="232" y="-156"/>
      <point x="232" y="-119" type="curve" smooth="yes"/>
      <point x="232" y="-78"/>
      <point x="258" y="-20"/>
      <point x="318" y="0" type="curve"/>
    </contour>
  </outline>
</glyph>
<glyph name="dcroat" format="2">
  <advance width="510"/>
  <unicode hex="0111"/>
  <outline>
    <contour>
      <point x="370" y="469" type="curve"/>
      <point x="354" y="445" type="line"/>
      <point x="348" y="474"/>
      <point x="329" y="488"/>
      <point x="315" y="488" type="curve" smooth="yes"/>
      <point x="252" y="488"/>
      <point x="218" y="248"/>
      <point x="218" y="142" type="curve" smooth="yes"/>
      <point x="218" y="96"/>
      <point x="224" y="76"/>
      <point x="237" y="76" type="curve" smooth="yes"/>
      <point x="255" y="76"/>
      <point x="274" y="104"/>
      <point x="293" y="196" type="curve"/>
      <point x="324" y="194" type="line"/>
      <point x="285" y="62"/>
      <point x="236" y="-10"/>
      <point x="150" y="-10" type="curve" smooth="yes"/>
      <point x="61" y="-10"/>
      <point x="14" y="58"/>
      <point x="14" y="171" type="curve" smooth="yes"/>
      <point x="14" y="310"/>
      <point x="85" y="533"/>
      <point x="257" y="533" type="curve" smooth="yes"/>
      <point x="315" y="533"/>
      <point x="353" y="507"/>
    </contour>
    <contour>
      <point x="240" y="628" type="line"/>
      <point x="590" y="628" type="line"/>
      <point x="586" y="602" type="line"/>
      <point x="236" y="602" type="line"/>
    </contour>
    <contour>
      <point x="376" y="750" type="line"/>
      <point x="577" y="750" type="line"/>
      <point x="459" y="84" type="line" smooth="yes"/>
      <point x="457" y="73"/>
      <point x="456" y="65"/>
      <point x="456" y="58" type="curve" smooth="yes"/>
      <point x="456" y="38"/>
      <point x="463" y="33"/>
      <point x="473" y="33" type="curve" smooth="yes"/>
      <point x="482" y="33"/>
      <point x="488" y="38"/>
      <point x="490" y="41" type="curve"/>
      <point x="487" y="21" type="line"/>
      <point x="466" y="5"/>
      <point x="427" y="-10"/>
      <point x="382" y="-10" type="curve" smooth="yes"/>
      <point x="312" y="-10"/>
      <point x="282" y="28"/>
      <point x="272" y="70" type="curve"/>
      <point x="271" y="76"/>
      <point x="272" y="83"/>
      <point x="274" y="92" type="curve"/>
      <point x="258" y="78" type="line"/>
    </contour>
  </outline>
</glyph>
<glyph name="hbar" format="2">
  <advance width="510"/>
  <unicode hex="0127"/>
  <outline>
    <contour>
      <point x="68" y="628" type="line"/>
      <point x="418" y="628" type="line"/>
      <point x="414" y="602" type="line"/>
      <point x="64" y="602" type="line"/>
    </contour>
    <contour>
      <point x="464" y="104" type="line" smooth="yes"/>
      <point x="462" y="93"/>
      <point x="457" y="64"/>
      <point x="457" y="57" type="curve" smooth="yes"/>
      <point x="457" y="38"/>
      <point x="464" y="33"/>
      <point x="474" y="33" type="curve" smooth="yes"/>
      <point x="483" y="33"/>
      <point x="489" y="38"/>
      <point x="491" y="41" type="curve"/>
      <point x="488" y="21" type="line"/>
      <point x="467" y="5"/>
      <point x="430" y="-10"/>
      <point x="376" y="-10" type="curve" smooth="yes"/>
      <point x="304" y="-10"/>
      <point x="266" y="30"/>
      <point x="266" y="101" type="curve" smooth="yes"/>
      <point x="266" y="114"/>
      <point x="268" y="134"/>
      <point x="272" y="150" type="curve" smooth="yes"/>
      <point x="317" y="384" type="line" smooth="yes"/>
      <point x="318" y="389"/>
      <point x="320" y="399"/>
      <point x="320" y="403" type="curve" smooth="yes"/>
      <point x="320" y="419"/>
      <point x="314" y="424"/>
      <point x="306" y="424" type="curve" smooth="yes"/>
      <point x="288" y="424"/>
      <point x="264" y="400"/>
      <point x="242" y="316" type="curve"/>
      <point x="229" y="346" type="line"/>
      <point x="265" y="465"/>
      <point x="332" y="533"/>
      <point x="425" y="533" type="curve" smooth="yes"/>
      <point x="498" y="533"/>
      <point x="522" y="485"/>
      <point x="522" y="430" type="curve" smooth="yes"/>
      <point x="522" y="416"/>
      <point x="521" y="402"/>
      <point x="518" y="388" type="curve" smooth="yes"/>
    </contour>
    <contour>
      <point x="125" y="750" type="line"/>
      <point x="325" y="750" type="line"/>
      <point x="193" y="0" type="line"/>
      <point x="-7" y="0" type="line"/>
    </contour>
  </outline>
</glyph>
<glyph name="itilde" format="2">
  <advance width="252"/>
  <unicode hex="0129"/>
  <outline>
    <contour>
      <point x="238" y="580" type="curve" smooth="yes"/>
      <point x="283" y="580"/>
      <point x="310" y="638"/>
      <point x="327" y="718" type="curve"/>
      <point x="306" y="727" type="line"/>
      <point x="292" y="688"/>
      <point x="277" y="675"/>
      <point x="254" y="675" type="curve"/>
      <point x="220" y="675"/>
      <point x="198" y="725"/>
      <point x="154" y="725" type="curve" smooth="yes"/>
      <point x="110" y="725"/>
      <point x="82" y="670"/>
      <point x="66" y="588" type="curve"/>
      <point x="88" y="580" type="line"/>
      <point x="100" y="613"/>
      <point x="113" y="630"/>
      <point x="133" y="630" type="curve" smooth="yes"/>
      <point x="167" y="630"/>
      <point x="196" y="580"/>
    </contour>
    <component base="dotlessi"/>
  </outline>
</glyph>
<glyph name="imacron" format="2">
  <advance width="264"/>
  <unicode hex="012B"/>
  <outline>
    <contour>
      <point x="71" y="643" type="line"/>
      <point x="64" y="598" type="line"/>
      <point x="318" y="598" type="line"/>
      <point x="325" y="643" type="line"/>
    </contour>
    <component base="dotlessi"/>
  </outline>
</glyph>
<glyph name="ibreve" format="2">
  <advance width="254"/>
  <unicode hex="012D"/>
  <outline>
    <contour>
      <point x="194" y="573" type="curve" smooth="yes"/>
      <point x="146" y="573"/>
      <point x="108" y="605"/>
      <point x="108" y="680" type="curve" smooth="yes"/>
      <point x="108" y="696"/>
      <point x="110" y="713"/>
      <point x="114" y="733" type="curve"/>
      <point x="122" y="733" type="line"/>
      <point x="122" y="692"/>
      <point x="147" y="675"/>
      <point x="201" y="675" type="curve"/>
      <point x="255" y="675"/>
      <point x="282" y="692"/>
      <point x="297" y="733" type="curve"/>
      <point x="307" y="733" type="line"/>
      <point x="288" y="613"/>
      <point x="248" y="573"/>
    </contour>
    <component base="dotlessi"/>
  </outline>
</glyph>
<glyph name="Iogonek" format="2">
  <advance width="304"/>
  <unicode hex="012E"/>
  <outline>
    <contour>
      <point x="187" y="13" type="line"/>
      <point x="49" y="-3"/>
      <point x="4" y="-63"/>
      <point x="4" y="-128" type="curve" smooth="yes"/>
      <point x="4" y="-195"/>
      <point x="53" y="-223"/>
      <point x="102" y="-223" type="curve" smooth="yes"/>
      <point x="150" y="-223"/>
      <point x="181" y="-198"/>
      <point x="206" y="-158" type="curve"/>
      <point x="197" y="-140" type="line"/>
      <point x="185" y="-152"/>
      <point x="171" y="-168"/>
      <point x="150" y="-168" type="curve" smooth="yes"/>
      <point x="130" y="-168"/>
      <point x="112" y="-154"/>
      <point x="112" y="-116" type="curve" smooth="yes"/>
      <point x="112" y="-78"/>
      <point x="133" y="-20"/>
      <point x="198" y="2" type="curve"/>
    </contour>
    <component base="I"/>
  </outline>
</glyph>
<glyph name="oe" format="2">
  <advance width="703"/>
  <unicode hex="0153"/>
  <outline>
    <contour>
      <point x="494" y="-10" type="curve" smooth="yes"/>
      <point x="600" y="-10"/>
      <point x="658" y="56"/>
      <point x="690" y="150" type="curve"/>
      <point x="670" y="152" type="line"/>
      <point x="648" y="88"/>
      <point x="604" y="46"/>
      <point x="558" y="46" type="curve" smooth="yes"/>
      <point x="516" y="46"/>
      <point x="490" y="84"/>
      <point x="490" y="201" type="curve" smooth="yes"/>
      <point x="490" y="340"/>
      <point x="526" y="507"/>
      <point x="566" y="507" type="curve" smooth="yes"/>
      <point x="574" y="507"/>
      <point x="581" y="500"/>
      <point x="581" y="458" type="curve" smooth="yes"/>
      <point x="581" y="382"/>
      <point x="562" y="266"/>
      <point x="470" y="232" type="curve"/>
      <point x="450" y="213" type="line"/>
      <point x="630" y="256"/>
      <point x="720" y="314"/>
      <point x="720" y="407" type="curve" smooth="yes"/>
      <point x="720" y="484"/>
      <point x="661" y="533"/>
      <point x="567" y="533" type="curve" smooth="yes"/>
      <point x="394" y="533"/>
      <point x="319" y="362"/>
      <point x="319" y="221" type="curve" smooth="yes"/>
      <point x="319" y="99"/>
      <point x="362" y="-10"/>
    </contour>
    <contour>
      <point x="290" y="533" type="curve" smooth="yes"/>
      <point x="121" y="533"/>
      <point x="21" y="385"/>
      <point x="21" y="232" type="curve" smooth="yes"/>
      <point x="21" y="94"/>
      <point x="99" y="-10"/>
      <point x="226" y="-10" type="curve" smooth="yes"/>
      <point x="395" y="-10"/>
      <point x="465" y="138"/>
      <point x="465" y="291" type="curve" smooth="yes"/>
      <point x="465" y="429"/>
      <point x="406" y="533"/>
    </contour>
    <contour>
      <point x="225" y="238" type="curve" smooth="yes"/>
      <point x="259" y="458"/>
      <point x="272" y="508"/>
      <point x="297" y="508" type="curve" smooth="yes"/>
      <point x="308" y="508"/>
      <point x="315" y="491"/>
      <point x="315" y="463" type="curve" smooth="yes"/>
      <point x="315" y="434"/>
      <point x="308" y="376"/>
      <point x="290" y="268" type="curve" smooth="yes"/>
      <point x="254" y="50"/>
      <point x="242" y="15"/>
      <point x="219" y="15" type="curve" smooth="yes"/>
      <point x="208" y="15"/>
      <point x="201" y="32"/>
      <point x="201" y="60" type="curve" smooth="yes"/>
      <point x="201" y="86"/>
      <point x="208" y="136"/>
    </contour>
  </outline>
</glyph>
<glyph name="Uogonek" format="2">
  <advance width="537"/>
  <unicode hex="0172"/>
  <outline>
    <contour>
      <point x="280" y="-3" type="line"/>
      <point x="195" y="-26"/>
      <point x="156" y="-81"/>
      <point x="156" y="-133" type="curve" smooth="yes"/>
      <point x="156" y="-193"/>
      <point x="199" y="-223"/>
      <point x="250" y="-223" type="curve" smooth="yes"/>
      <point x="296" y="-223"/>
      <point x="333" y="-198"/>
      <point x="358" y="-158" type="curve"/>
      <point x="349" y="-140" type="line"/>
      <point x="338" y="-152"/>
      <point x="323" y="-168"/>
      <point x="301" y="-168" type="curve" smooth="yes"/>
      <point x="282" y="-168"/>
      <point x="264" y="-158"/>
      <point x="264" y="-118" type="curve" smooth="yes"/>
      <point x="264" y="-74"/>
      <point x="276" y="-28"/>
      <point x="346" y="-3" type="curve" smooth="yes"/>
      <point x="424" y="25"/>
      <point x="460" y="101"/>
      <point x="476" y="191" type="curve" smooth="yes"/>
      <point x="558" y="660" type="line" smooth="yes"/>
      <point x="564" y="687"/>
      <point x="582" y="690"/>
      <point x="600" y="690" type="curve" smooth="yes"/>
      <point x="608" y="690" type="line"/>
      <point x="612" y="710" type="line"/>
      <point x="494" y="710" type="line"/>
      <point x="490" y="690" type="line"/>
      <point x="498" y="690" type="line" smooth="yes"/>
      <point x="514" y="690"/>
      <point x="537" y="684"/>
      <point x="535" y="673" type="curve" smooth="yes"/>
      <point x="448" y="178" type="line" smooth="yes"/>
      <point x="436" y="113"/>
      <point x="405" y="56"/>
      <point x="334" y="56" type="curve" smooth="yes"/>
      <point x="284" y="56"/>
      <point x="252" y="83"/>
      <point x="252" y="161" type="curve" smooth="yes"/>
      <point x="252" y="183"/>
      <point x="255" y="209"/>
      <point x="260" y="239" type="curve" smooth="yes"/>
      <point x="338" y="682" type="line" smooth="yes"/>
      <point x="338" y="688"/>
      <point x="354" y="690"/>
      <point x="368" y="690" type="curve" smooth="yes"/>
      <point x="374" y="690" type="line"/>
      <point x="378" y="710" type="line"/>
      <point x="90" y="710" type="line"/>
      <point x="86" y="690" type="line"/>
      <point x="94" y="690" type="line" smooth="yes"/>
      <point x="112" y="690"/>
      <point x="120" y="682"/>
      <point x="116" y="656" type="curve" smooth="yes"/>
      <point x="50" y="284" type="line" smooth="yes"/>
      <point x="45" y="257"/>
      <point x="43" y="233"/>
      <point x="43" y="209" type="curve" smooth="yes"/>
      <point x="43" y="66"/>
      <point x="131" y="-10"/>
      <point x="269" y="-10" type="curve" smooth="yes"/>
      <point x="283" y="-10"/>
      <point x="298" y="-9"/>
      <point x="312" y="-7" type="curve"/>
    </contour>
  </outline>
</glyph>
<glyph name="Dhook" format="2">
  <advance width="715"/>
  <unicode hex="018A"/>
  <anchor x="336.05" y="741" name="top"/>
  <anchor x="357.5" y="0" name="bottom"/>
  <outline>
    <contour>
      <point x="472" y="682" type="line" smooth="yes"/>
      <point x="508" y="682"/>
      <point x="521" y="644"/>
      <point x="521" y="571" type="curve" smooth="yes"/>
      <point x="521" y="442"/>
      <point x="460" y="28"/>
      <point x="374" y="28" type="curve" smooth="yes"/>
      <point x="350" y="28" type="line"/>
      <point x="466" y="682" type="line"/>
    </contour>
    <contour>
      <point x="252" y="692" type="line"/>
      <point x="140" y="52" type="line" smooth="yes"/>
      <point x="135" y="25"/>
      <point x="122" y="20"/>
      <point x="106" y="20" type="curve" smooth="yes"/>
      <point x="96" y="20" type="line"/>
      <point x="93" y="0" type="line"/>
      <point x="382" y="0" type="line" smooth="yes"/>
      <point x="586" y="0"/>
      <point x="725" y="202"/>
      <point x="725" y="425" type="curve" smooth="yes"/>
      <point x="725" y="616"/>
      <point x="624" y="710"/>
      <point x="481" y="710" type="curve" smooth="yes"/>
      <point x="260" y="710" type="line"/>
      <point x="120.0" y="710.0"/>
      <point x="54.0" y="636.0"/>
      <point x="54" y="495" type="curve"/>
      <point x="54" y="478"/>
      <point x="57" y="456"/>
      <point x="59" y="446" type="curve"/>
      <point x="178" y="446" type="line"/>
      <point x="175.0" y="463"/>
      <point x="170.0" y="501"/>
      <point x="170" y="533" type="curve"/>
      <point x="170.0" y="631"/>
      <point x="194.0" y="684.0"/>
      <point x="259" y="684" type="curve" smooth="yes"/>
      <point x="270" y="684" type="line"/>
    </contour>
  </outline>
</glyph>
<glyph name="florin" format="2">
  <advance width="420"/>
  <unicode hex="0192"/>
  <outline>
    <contour>
      <point x="72" y="513" type="line"/>
      <point x="66" y="485" type="line"/>
      <point x="444" y="485" type="line"/>
      <point x="451" y="513" type="line"/>
    </contour>
    <contour>
      <point x="205" y="55" type="curve" smooth="yes"/>
      <point x="384" y="649" type="line" smooth="yes"/>
      <point x="402" y="709"/>
      <point x="430" y="726"/>
      <point x="464" y="726" type="curve" smooth="yes"/>
      <point x="492" y="726"/>
      <point x="511" y="710"/>
      <point x="516" y="708" type="curve"/>
      <point x="524" y="739" type="line"/>
      <point x="505" y="749"/>
      <point x="472" y="760"/>
      <point x="419" y="760" type="curve" smooth="yes"/>
      <point x="295" y="760"/>
      <point x="210" y="696"/>
      <point x="169" y="560" type="curve" smooth="yes"/>
      <point x="-25" y="-86" type="line" smooth="yes"/>
      <point x="-52" y="-176"/>
      <point x="-80" y="-203"/>
      <point x="-114" y="-203" type="curve" smooth="yes"/>
      <point x="-142" y="-203"/>
      <point x="-162" y="-192"/>
      <point x="-171" y="-187" type="curve"/>
      <point x="-179" y="-215" type="line"/>
      <point x="-167" y="-225"/>
      <point x="-134" y="-236"/>
      <point x="-95" y="-236" type="curve" smooth="yes"/>
      <point x="31" y="-236"/>
      <point x="138" y="-164"/>
    </contour>
  </outline>
</glyph>
<glyph name="khook" format="2">
  <advance width="521"/>
  <unicode hex="0199"/>
  <anchor x="276.13" y="760.0" name="top"/>
  <anchor x="260.5" y="0" name="bottom"/>
  <outline>
    <contour>
      <point x="459" y="75" type="line" smooth="yes"/>
      <point x="462" y="43"/>
      <point x="468" y="28"/>
      <point x="488" y="28" type="curve" smooth="yes"/>
      <point x="496" y="28"/>
      <point x="500" y="30"/>
      <point x="503" y="32" type="curve"/>
      <point x="499" y="16" type="line"/>
      <point x="480" y="4"/>
      <point x="441" y="-10"/>
      <point x="393" y="-10" type="curve" smooth="yes"/>
      <point x="309" y="-10"/>
      <point x="269" y="26"/>
      <point x="265" y="126" type="curve" smooth="yes"/>
      <point x="255" y="281" type="line"/>
      <point x="257" y="293" type="line"/>
      <point x="334" y="357"/>
      <point x="386" y="418"/>
      <point x="437" y="523" type="curve"/>
      <point x="563" y="523" type="line"/>
      <point x="561" y="512" type="line"/>
      <point x="532" y="486"/>
      <point x="468" y="450"/>
      <point x="398" y="424" type="curve"/>
      <point x="428" y="461" type="line"/>
    </contour>
    <contour>
      <point x="80" y="496.0" type="curve" smooth="yes"/>
      <point x="-7" y="0" type="line"/>
      <point x="193" y="0" type="line"/>
      <point x="281" y="499.0" type="line" smooth="yes"/>
      <point x="314" y="689"/>
      <point x="343.0" y="725.0"/>
      <point x="406" y="725.0" type="curve" smooth="yes"/>
      <point x="438" y="725.0"/>
      <point x="464" y="715.0"/>
      <point x="476" y="707.0" type="curve"/>
      <point x="483" y="745.0" type="line"/>
      <point x="469" y="750.0"/>
      <point x="430" y="760.0"/>
      <point x="386" y="760.0" type="curve" smooth="yes"/>
      <point x="215.0" y="760.0"/>
      <point x="114" y="689"/>
    </contour>
  </outline>
</glyph>
<glyph name="Ohorn" format="2">
  <advance width="578"/>
  <unicode hex="01A0"/>
  <anchor x="283" y="742" name="top"/>
  <anchor x="289" y="0" name="bottom"/>
  <outline>
    <contour>
      <point x="360" y="695" type="curve" smooth="yes"/>
      <point x="376" y="695"/>
      <point x="386" y="672"/>
      <point x="386" y="624" type="curve" smooth="yes"/>
      <point x="386" y="549"/>
      <point x="370" y="456"/>
      <point x="346" y="318" type="curve" smooth="yes"/>
      <point x="302" y="66"/>
      <point x="282" y="15"/>
      <point x="254" y="15" type="curve" smooth="yes"/>
      <point x="236" y="15"/>
      <point x="227" y="39"/>
      <point x="227" y="85" type="curve" smooth="yes"/>
      <point x="227" y="168"/>
      <point x="242" y="256"/>
      <point x="266" y="394" type="curve" smooth="yes"/>
      <point x="311" y="646"/>
      <point x="334" y="695"/>
    </contour>
    <contour>
      <point x="433" y="690" type="line"/>
      <point x="442" y="716" type="line"/>
      <point x="423" y="703" type="line"/>
      <point x="435" y="702"/>
      <point x="446" y="701"/>
      <point x="467" y="701" type="curve" smooth="yes"/>
      <point x="584" y="701"/>
      <point x="658" y="760"/>
      <point x="671" y="877" type="curve"/>
      <point x="540" y="877" type="line"/>
      <point x="524" y="751"/>
      <point x="492" y="716"/>
      <point x="418" y="716" type="curve" smooth="yes"/>
      <point x="393" y="716"/>
      <point x="377" y="720"/>
      <point x="350" y="720" type="curve" smooth="yes"/>
      <point x="162" y="720"/>
      <point x="31" y="522"/>
      <point x="31" y="303" type="curve" smooth="yes"/>
      <point x="31" y="132"/>
      <point x="111" y="-10"/>
      <point x="265" y="-10" type="curve" smooth="yes"/>
      <point x="450" y="-10"/>
      <point x="581" y="188"/>
      <point x="581" y="407" type="curve" smooth="yes"/>
      <point x="581" y="528"/>
      <point x="539" y="653"/>
      <point x="428" y="713" type="curve"/>
    </contour>
  </outline>
</glyph>
<glyph name="yhook" format="2">
  <advance width="440"/>
  <unicode hex="01B4"/>
  <anchor x="228.8" y="551" name="top"/>
  <anchor x="123.2" y="-231" name="bottom"/>
  <outline>
    <contour>
      <point x="-44" y="-95" type="curve"/>
      <point x="-70" y="-219" type="line"/>
      <point x="-64.27272727272728" y="-224.0"/>
      <point x="-46.666666666666664" y="-231.0"/>
      <point x="-35" y="-231" type="curve" smooth="yes"/>
      <point x="38.18942731277532" y="-231.0"/>
      <point x="108" y="-199"/>
      <point x="202" y="-12" type="curve" smooth="yes"/>
      <point x="295.906" y="175.14600000000002"/>
      <point x="390.094" y="362.854"/>
      <point x="484" y="550" type="curve" smooth="yes"/>
      <point x="542" y="666"/>
      <point x="565" y="683.0"/>
      <point x="592" y="683" type="curve" smooth="yes"/>
      <point x="608" y="683.0"/>
      <point x="620" y="678.0"/>
      <point x="628" y="674" type="curve"/>
      <point x="642" y="747" type="line"/>
      <point x="634" y="750"/>
      <point x="625" y="752"/>
      <point x="613" y="752" type="curve" smooth="yes"/>
      <point x="566" y="752.0"/>
      <point x="536" y="737"/>
      <point x="461" y="583" type="curve" smooth="yes"/>
      <point x="377" y="410"/>
      <point x="292" y="236"/>
      <point x="208" y="63" type="curve" smooth="yes"/>
      <point x="155" y="-59" type="line"/>
      <point x="122.0" y="-104"/>
      <point x="89" y="-116.0"/>
      <point x="27" y="-116" type="curve" smooth="yes"/>
      <point x="-6" y="-116.0"/>
      <point x="-26.238805970149254" y="-108.0"/>
    </contour>
    <contour>
      <point x="48" y="479" type="curve" smooth="yes"/>
      <point x="116" y="-101" type="line"/>
      <point x="151" y="-80" type="line"/>
      <point x="278" y="157" type="line"/>
      <point x="234" y="523" type="line"/>
      <point x="34" y="523" type="line"/>
      <point x="28" y="504" type="line"/>
      <point x="35" y="502" type="line" smooth="yes"/>
      <point x="45" y="499"/>
      <point x="47" y="490"/>
    </contour>
  </outline>
</glyph>
<glyph name="icaron" format="2">
  <advance width="264"/>
  <unicode hex="01D0"/>
  <outline>
    <contour>
      <point x="134" y="563" type="line"/>
      <point x="76" y="716" type="line"/>
      <point x="78" y="728" type="line"/>
      <point x="86" y="728" type="line"/>
      <point x="210" y="634" type="line"/>
      <point x="171" y="634" type="line"/>
      <point x="328" y="728" type="line"/>
      <point x="338" y="728" type="line"/>
      <point x="336" y="716" type="line"/>
      <point x="220" y="563" type="line"/>
    </contour>
    <component base="dotlessi"/>
  </outline>
</glyph>
<glyph name="Oogonek" format="2">
  <advance width="578"/>
  <unicode hex="01EA"/>
  <outline>
    <contour>
      <point x="360" y="695" type="curve" smooth="yes"/>
      <point x="376" y="695"/>
      <point x="386" y="672"/>
      <point x="386" y="624" type="curve" smooth="yes"/>
      <point x="386" y="549"/>
      <point x="370" y="456"/>
      <point x="346" y="318" type="curve" smooth="yes"/>
      <point x="302" y="66"/>
      <point x="282" y="15"/>
      <point x="254" y="15" type="curve" smooth="yes"/>
      <point x="236" y="15"/>
      <point x="227" y="39"/>
      <point x="227" y="85" type="curve" smooth="yes"/>
      <point x="227" y="168"/>
      <point x="242" y="256"/>
      <point x="266" y="394" type="curve" smooth="yes"/>
      <point x="311" y="646"/>
      <point x="334" y="695"/>
    </contour>
    <contour>
      <point x="581" y="407" type="curve" smooth="yes"/>
      <point x="581" y="578"/>
      <point x="501" y="720"/>
      <point x="347" y="720" type="curve" smooth="yes"/>
      <point x="162" y="720"/>
      <point x="31" y="522"/>
      <point x="31" y="303" type="curve" smooth="yes"/>
      <point x="31" y="132"/>
      <point x="111" y="-10"/>
      <point x="265" y="-10" type="curve" smooth="yes"/>
      <point x="278" y="-10"/>
      <point x="291" y="-9"/>
      <point x="304" y="-7" type="curve"/>
      <point x="264" y="-1" type="line"/>
      <point x="178" y="-31"/>
      <point x="144" y="-86"/>
      <point x="144" y="-140" type="curve" smooth="yes"/>
      <point x="144" y="-196"/>
      <point x="190" y="-223"/>
      <point x="236" y="-223" type="curve" smooth="yes"/>
      <point x="285" y="-223"/>
      <point x="321" y="-198"/>
      <point x="346" y="-158" type="curve"/>
      <point x="337" y="-140" type="line"/>
      <point x="324" y="-154"/>
      <point x="310" y="-168"/>
      <point x="289" y="-168" type="curve" smooth="yes"/>
      <point x="270" y="-168"/>
      <point x="252" y="-159"/>
      <point x="252" y="-117" type="curve" smooth="yes"/>
      <point x="252" y="-83"/>
      <point x="240" y="-36"/>
      <point x="326" y="-16" type="curve" smooth="yes"/>
      <point x="476" y="35"/>
      <point x="581" y="200"/>
    </contour>
  </outline>
</glyph>
<glyph name="oogonek" format="2">
  <advance width="494"/>
  <unicode hex="01EB"/>
  <outline>
    <contour>
      <point x="107" y="-137" type="curve" smooth="yes"/>
      <point x="107" y="-195"/>
      <point x="148" y="-223"/>
      <point x="197" y="-223" type="curve" smooth="yes"/>
      <point x="243" y="-223"/>
      <point x="284" y="-198"/>
      <point x="309" y="-158" type="curve"/>
      <point x="300" y="-140" type="line"/>
      <point x="287" y="-154"/>
      <point x="272" y="-168"/>
      <point x="252" y="-168" type="curve" smooth="yes"/>
      <point x="234" y="-168"/>
      <point x="215" y="-158"/>
      <point x="215" y="-120" type="curve" smooth="yes"/>
      <point x="215" y="-73"/>
      <point x="242" y="-25"/>
      <point x="312" y="1" type="curve" smooth="yes"/>
      <point x="427" y="43"/>
      <point x="496" y="162"/>
      <point x="496" y="291" type="curve" smooth="yes"/>
      <point x="496" y="429"/>
      <point x="418" y="533"/>
      <point x="291" y="533" type="curve" smooth="yes"/>
      <point x="122" y="533"/>
      <point x="22" y="385"/>
      <point x="22" y="232" type="curve" smooth="yes"/>
      <point x="22" y="104"/>
      <point x="93" y="-10"/>
      <point x="227" y="-10" type="curve" smooth="yes"/>
      <point x="240" y="-10"/>
      <point x="251" y="-9"/>
      <point x="257" y="-8" type="curve"/>
      <point x="254" y="3" type="line"/>
      <point x="161" y="-22"/>
      <point x="107" y="-73"/>
    </contour>
    <contour>
      <point x="290" y="268" type="curve" smooth="yes"/>
      <point x="255" y="50"/>
      <point x="243" y="15"/>
      <point x="220" y="15" type="curve" smooth="yes"/>
      <point x="209" y="15"/>
      <point x="202" y="32"/>
      <point x="202" y="60" type="curve" smooth="yes"/>
      <point x="202" y="86"/>
      <point x="209" y="136"/>
      <point x="226" y="238" type="curve" smooth="yes"/>
      <point x="260" y="458"/>
      <point x="272" y="508"/>
      <point x="298" y="508" type="curve" smooth="yes"/>
      <point x="309" y="508"/>
      <point x="316" y="491"/>
      <point x="316" y="463" type="curve" smooth="yes"/>
      <point x="316" y="434"/>
      <point x="308" y="376"/>
    </contour>
  </outline>
</glyph>
<glyph name="iinvertedbreve" format="2">
  <advance width="264"/>
  <unicode hex="020B"/>
  <outline>
    <contour>
      <point x="207" y="733" type="curve" smooth="yes"/>
      <point x="254" y="733"/>
      <point x="294" y="701"/>
      <point x="294" y="626" type="curve" smooth="yes"/>
      <point x="294" y="610"/>
      <point x="292" y="593"/>
      <point x="288" y="573" type="curve"/>
      <point x="279" y="573" type="line"/>
      <point x="278" y="614"/>
      <point x="254" y="631"/>
      <point x="200" y="631" type="curve" smooth="yes"/>
      <point x="146" y="631"/>
      <point x="119" y="614"/>
      <point x="104" y="573" type="curve"/>
      <point x="94" y="573" type="line"/>
      <point x="113" y="693"/>
      <point x="152" y="733"/>
    </contour>
    <component base="dotlessi"/>
  </outline>
</glyph>
<glyph name="dotlessj" format="2">
  <advance width="247"/>
  <unicode hex="0237"/>
  <anchor x="116" y="521" name="top"/>
  <outline>
    <contour>
      <point x="-127" y="-218" type="line"/>
      <point x="-110" y="-227"/>
      <point x="-73" y="-236"/>
      <point x="-32" y="-236" type="curve" smooth="yes"/>
      <point x="85" y="-236"/>
      <point x="150" y="-176"/>
      <point x="168" y="-77" type="curve" smooth="yes"/>
      <point x="274" y="523" type="line"/>
      <point x="48" y="523" type="line"/>
      <point x="45" y="504" type="line"/>
      <point x="55" y="502" type="line" smooth="yes"/>
      <point x="64" y="500"/>
      <point x="68" y="492"/>
      <point x="65" y="473" type="curve" smooth="yes"/>
      <point x="-44" y="-144" type="line" smooth="yes"/>
      <point x="-52" y="-182"/>
      <point x="-62" y="-206"/>
      <point x="-92" y="-206" type="curve" smooth="yes"/>
      <point x="-110" y="-206"/>
      <point x="-114" y="-200"/>
      <point x="-118" y="-195" type="curve"/>
    </contour>
  </outline>
</glyph>
<glyph name="bhook" format="2">
  <advance width="498"/>
  <unicode hex="0253"/>
  <anchor x="214.14" y="770.0" name="top"/>
  <anchor x="249.0" y="0" name="bottom"/>
  <outline>
    <contour>
      <point x="277" y="500.0" type="line" smooth="yes"/>
      <point x="310.0" y="689.0"/>
      <point x="339.0" y="725.0"/>
      <point x="402" y="725.0" type="curve"/>
      <point x="434" y="725.0"/>
      <point x="460" y="715.0"/>
      <point x="472" y="707.0" type="curve"/>
      <point x="479" y="745.0" type="line"/>
      <point x="465" y="750.0"/>
      <point x="426" y="760.0"/>
      <point x="382" y="760.0" type="curve"/>
      <point x="211.0" y="760.0"/>
      <point x="110.0" y="689.0"/>
      <point x="76" y="496.0" type="curve" smooth="yes"/>
      <point x="1" y="71" type="line"/>
      <point x="42" y="29"/>
      <point x="123" y="-10"/>
      <point x="219" y="-10" type="curve" smooth="yes"/>
      <point x="451" y="-10"/>
      <point x="511" y="213"/>
      <point x="511" y="354" type="curve" smooth="yes"/>
      <point x="511" y="465"/>
      <point x="464" y="533"/>
      <point x="381" y="533" type="curve" smooth="yes"/>
      <point x="294" y="533"/>
      <point x="254" y="454"/>
      <point x="205" y="322" type="curve"/>
      <point x="219" y="308" type="line"/>
      <point x="250" y="400"/>
      <point x="270" y="437"/>
      <point x="289" y="437" type="curve" smooth="yes"/>
      <point x="302" y="437"/>
      <point x="307" y="427"/>
      <point x="307" y="389" type="curve" smooth="yes"/>
      <point x="307.0" y="265.0"/>
      <point x="272.0" y="30.0"/>
      <point x="213" y="30" type="curve" smooth="yes"/>
      <point x="202" y="30"/>
      <point x="188" y="36"/>
      <point x="188" y="70" type="curve"/>
      <point x="153.0" y="55.0"/>
      <point x="154.0" y="30.0"/>
      <point x="190" y="6" type="curve"/>
    </contour>
  </outline>
</glyph>
<glyph name="dhook" format="2">
  <advance width="507"/>
  <unicode hex="0257"/>
  <anchor x="400.53" y="762.0" name="top"/>
  <anchor x="238.29" y="0" name="bottom"/>
  <outline>
    <contour>
      <point x="150" y="-10" type="curve" smooth="yes"/>
      <point x="236" y="-10"/>
      <point x="285" y="62"/>
      <point x="324" y="194" type="curve"/>
      <point x="293" y="196" type="line"/>
      <point x="274.0" y="104.0"/>
      <point x="255.0" y="76.0"/>
      <point x="237" y="76" type="curve" smooth="yes"/>
      <point x="224.0" y="76.0"/>
      <point x="218.0" y="96.0"/>
      <point x="218" y="142" type="curve" smooth="yes"/>
      <point x="218" y="248"/>
      <point x="252" y="488"/>
      <point x="315" y="488" type="curve" smooth="yes"/>
      <point x="329" y="488"/>
      <point x="348" y="474"/>
      <point x="354" y="445" type="curve"/>
      <point x="370" y="469" type="line"/>
      <point x="353" y="507"/>
      <point x="315" y="533"/>
      <point x="257" y="533" type="curve" smooth="yes"/>
      <point x="85" y="533"/>
      <point x="14" y="310"/>
      <point x="14" y="171" type="curve" smooth="yes"/>
      <point x="14" y="58"/>
      <point x="61" y="-10"/>
    </contour>
    <contour>
      <point x="335" y="514.0" type="curve" smooth="yes"/>
      <point x="257" y="72" type="line"/>
      <point x="266" y="80" type="line"/>
      <point x="266" y="79"/>
      <point x="266" y="79"/>
      <point x="266" y="78" type="curve"/>
      <point x="276" y="32"/>
      <point x="304" y="-10"/>
      <point x="382" y="-10" type="curve" smooth="yes"/>
      <point x="437" y="-10"/>
      <point x="469" y="5"/>
      <point x="487" y="21" type="curve"/>
      <point x="490" y="41" type="line"/>
      <point x="487" y="38"/>
      <point x="480" y="33"/>
      <point x="472" y="33" type="curve" smooth="yes"/>
      <point x="462" y="33"/>
      <point x="455" y="37"/>
      <point x="455" y="54" type="curve" smooth="yes"/>
      <point x="455" y="62"/>
      <point x="457" y="73"/>
      <point x="459" y="84" type="curve" smooth="yes"/>
      <point x="534" y="507.0" type="line" smooth="yes"/>
      <point x="564.7142857142857" y="690.0102040816327"/>
      <point x="579.047619047619" y="718.0"/>
      <point x="620" y="718.0" type="curve" smooth="yes"/>
      <point x="637.0" y="718.0"/>
      <point x="650.0" y="713.7142857142857"/>
      <point x="659" y="708.0" type="curve"/>
      <point x="665" y="743.0" type="line"/>
      <point x="654" y="747.0"/>
      <point x="622" y="752.0"/>
      <point x="584" y="752.0" type="curve" smooth="yes"/>
      <point x="446.85546875" y="752.0"/>
      <point x="364" y="680"/>
    </contour>
  </outline>
</glyph>
<glyph name="schwa" format="2">
  <advance width="442"/>
  <unicode hex="0259"/>
  <outline>
    <contour>
      <point x="245" y="533" type="curve" smooth="yes"/>
      <point x="137" y="533"/>
      <point x="73" y="466"/>
      <point x="41" y="373" type="curve"/>
      <point x="61" y="371" type="line"/>
      <point x="83" y="435"/>
      <point x="127" y="477"/>
      <point x="171" y="477" type="curve" smooth="yes"/>
      <point x="211" y="477"/>
      <point x="245" y="443"/>
      <point x="245" y="322" type="curve" smooth="yes"/>
      <point x="245" y="183"/>
      <point x="211" y="16"/>
      <point x="170" y="16" type="curve" smooth="yes"/>
      <point x="157" y="16"/>
      <point x="152" y="29"/>
      <point x="152" y="69" type="curve" smooth="yes"/>
      <point x="152" y="143"/>
      <point x="166" y="261"/>
      <point x="262" y="293" type="curve"/>
      <point x="282" y="309" type="line"/>
      <point x="102" y="268"/>
      <point x="15" y="209"/>
      <point x="15" y="116" type="curve" smooth="yes"/>
      <point x="15" y="39"/>
      <point x="74" y="-10"/>
      <point x="173" y="-10" type="curve" smooth="yes"/>
      <point x="361" y="-10"/>
      <point x="446" y="161"/>
      <point x="446" y="302" type="curve" smooth="yes"/>
      <point x="446" y="424"/>
      <point x="384" y="533"/>
    </contour>
  </outline>
</glyph>
<glyph name="ringhalfleft" format="2">
  <advance width="340"/>
  <unicode hex="02BF"/>
  <anchor x="170" y="566" name="_top"/>
  <outline>
    <contour>
      <point x="223" y="568" type="curve"/>
      <point x="225" y="590" type="line"/>
      <point x="211" y="590"/>
      <point x="206" y="610"/>
      <point x="206" y="659" type="curve" smooth="yes"/>
      <point x="206" y="722"/>
      <point x="214" y="763"/>
      <point x="236" y="763" type="curve"/>
      <point x="238" y="785" type="line"/>
      <point x="159" y="785"/>
      <point x="115" y="738"/>
      <point x="115" y="673" type="curve" smooth="yes"/>
      <point x="115" y="608"/>
      <point x="157" y="568"/>
    </contour>
  </outline>
</glyph>
<glyph name="circumflex" format="2">
  <advance width="340"/>
  <unicode hex="02C6"/>
  <anchor x="166" y="529" name="_top"/>
  <outline>
    <contour>
      <point x="294" y="728" type="line"/>
      <point x="353" y="574" type="line"/>
      <point x="351" y="563" type="line"/>
      <point x="343" y="563" type="line"/>
      <point x="218" y="657" type="line"/>
      <point x="258" y="657" type="line"/>
      <point x="100" y="563" type="line"/>
      <point x="91" y="563" type="line"/>
      <point x="93" y="574" type="line"/>
      <point x="208" y="728" type="line"/>
    </contour>
  </outline>
</glyph>
<glyph name="breve" format="2">
  <advance width="330"/>
  <unicode hex="02D8"/>
  <anchor x="165" y="517" name="_top"/>
  <outline>
    <contour>
      <point x="227" y="573" type="curve" smooth="yes"/>
      <point x="175" y="573"/>
      <point x="135" y="605"/>
      <point x="135" y="680" type="curve" smooth="yes"/>
      <point x="135" y="696"/>
      <point x="137" y="713"/>
      <point x="141" y="733" type="curve"/>
      <point x="149" y="733" type="line"/>
      <point x="149" y="690"/>
      <point x="175" y="675"/>
      <point x="232" y="675" type="curve" smooth="yes"/>
      <point x="289" y="675"/>
      <point x="320" y="690"/>
      <point x="335" y="733" type="curve"/>
      <point x="345" y="733" type="line"/>
      <point x="326" y="613"/>
      <point x="286" y="573"/>
    </contour>
  </outline>
</glyph>
<glyph name="dotaccent" format="2">
  <advance width="328"/>
  <unicode hex="02D9"/>
  <anchor x="163" y="526" name="_top"/>
  <outline>
    <contour>
      <point x="235" y="588" type="curve" smooth="yes"/>
      <point x="187" y="588"/>
      <point x="157" y="616"/>
      <point x="157" y="670" type="curve" smooth="yes"/>
      <point x="157" y="717"/>
      <point x="183" y="744"/>
      <point x="229" y="744" type="curve" smooth="yes"/>
      <point x="277" y="744"/>
      <point x="309" y="714"/>
      <point x="309" y="664" type="curve" smooth="yes"/>
      <point x="309" y="615"/>
      <point x="281" y="588"/>
    </contour>
  </outline>
</glyph>
<glyph name="tilde" format="2">
  <advance width="340"/>
  <unicode hex="02DC"/>
  <anchor x="158" y="516" name="_top"/>
  <outline>
    <contour>
      <point x="266" y="582" type="curve" smooth="yes"/>
      <point x="312" y="582"/>
      <point x="338" y="638"/>
      <point x="355" y="718" type="curve"/>
      <point x="334" y="726" type="line"/>
      <point x="319" y="687"/>
      <point x="304" y="674"/>
      <point x="281" y="674" type="curve"/>
      <point x="247" y="674"/>
      <point x="226" y="724"/>
      <point x="181" y="724" type="curve" smooth="yes"/>
      <point x="137" y="724"/>
      <point x="109" y="672"/>
      <point x="94" y="590" type="curve"/>
      <point x="116" y="582" type="line"/>
      <point x="128" y="614"/>
      <point x="140" y="632"/>
      <point x="160" y="632" type="curve" smooth="yes"/>
      <point x="192" y="632"/>
      <point x="224" y="582"/>
    </contour>
  </outline>
</glyph>
<glyph name="hungarumlaut" format="2">
  <advance width="340"/>
  <unicode hex="02DD"/>
  <anchor x="165.0" y="525" name="_top"/>
  <outline>
    <contour>
      <point x="124" y="691" type="curve" smooth="yes"/>
      <point x="105" y="574" type="line"/>
      <point x="105" y="563" type="line"/>
      <point x="140" y="563" type="line"/>
      <point x="190" y="628" type="line" smooth="yes"/>
      <point x="233" y="688"/>
      <point x="249" y="707"/>
      <point x="250" y="738" type="curve" smooth="yes"/>
      <point x="252" y="768"/>
      <point x="237" y="797"/>
      <point x="197" y="797" type="curve" smooth="yes"/>
      <point x="153" y="797"/>
      <point x="135" y="758"/>
    </contour>
    <contour>
      <point x="276" y="691" type="curve" smooth="yes"/>
      <point x="257" y="574" type="line"/>
      <point x="257" y="563" type="line"/>
      <point x="292" y="563" type="line"/>
      <point x="342" y="628" type="line" smooth="yes"/>
      <point x="385" y="688"/>
      <point x="401" y="707"/>
      <point x="402" y="738" type="curve" smooth="yes"/>
      <point x="404" y="768"/>
      <point x="389" y="797"/>
      <point x="349" y="797" type="curve" smooth="yes"/>
      <point x="305" y="797"/>
      <point x="287" y="758"/>
    </contour>
  </outline>
</glyph>
<glyph name="Delta" format="2">
  <advance width="535"/>
  <unicode hex="0394"/>
  <outline>
    <contour>
      <point x="-27" y="0" type="line"/>
      <point x="478" y="0" type="line"/>
      <point x="502" y="137" type="line"/>
      <point x="411" y="710" type="line"/>
      <point x="290" y="710" type="line"/>
      <point x="-3" y="137" type="line"/>
    </contour>
    <contour>
      <point x="283" y="104" type="line"/>
      <point x="374" y="155" type="line"/>
      <point x="27" y="155" type="line"/>
      <point x="22" y="126" type="line"/>
      <point x="240" y="555" type="line"/>
      <point x="218" y="530" type="line"/>
    </contour>
  </outline>
</glyph>
<glyph name="Omega" format="2">
  <advance width="639"/>
  <unicode hex="03A9"/>
  <outline>
    <contour>
      <point x="369" y="690" type="curve"/>
      <point x="294" y="690"/>
      <point x="269" y="566"/>
      <point x="269" y="394" type="curve" smooth="yes"/>
      <point x="269" y="303"/>
      <point x="276" y="206"/>
      <point x="278" y="116" type="curve"/>
      <point x="255" y="0" type="line"/>
      <point x="-30" y="0" type="line"/>
      <point x="13" y="244" type="line"/>
      <point x="28" y="244" type="line"/>
      <point x="28" y="193" type="line" smooth="yes"/>
      <point x="28" y="159"/>
      <point x="54" y="150"/>
      <point x="109" y="150" type="curve" smooth="yes"/>
      <point x="234" y="150" type="line"/>
      <point x="263" y="104" type="line"/>
      <point x="167" y="191"/>
      <point x="75" y="300"/>
      <point x="75" y="440" type="curve" smooth="yes"/>
      <point x="75" y="593"/>
      <point x="189" y="720"/>
      <point x="379" y="720" type="curve"/>
      <point x="546" y="720"/>
      <point x="633" y="611"/>
      <point x="633" y="476" type="curve" smooth="yes"/>
      <point x="633" y="299"/>
      <point x="489" y="198"/>
      <point x="322" y="109" type="curve"/>
      <point x="367" y="150" type="line"/>
      <point x="500" y="150" type="line" smooth="yes"/>
      <point x="555" y="150"/>
      <point x="586" y="156"/>
      <point x="596" y="193" type="curve" smooth="yes"/>
      <point x="611" y="244" type="line"/>
      <point x="627" y="244" type="line"/>
      <point x="584" y="0" type="line"/>
      <point x="292" y="0" type="line"/>
      <point x="316" y="115" type="line"/>
      <point x="384" y="214"/>
      <point x="441" y="390"/>
      <point x="441" y="525" type="curve" smooth="yes"/>
      <point x="441" y="615"/>
      <point x="424" y="690"/>
    </contour>
  </outline>
</glyph>
<glyph name="pi" format="2">
  <advance width="568"/>
  <unicode hex="03C0"/>
  <outline>
    <contour>
      <point x="215" y="0" type="line"/>
      <point x="294" y="448" type="line"/>
      <point x="245" y="448" type="line"/>
      <point x="194" y="231"/>
      <point x="63" y="172"/>
      <point x="33" y="0" type="curve"/>
    </contour>
    <contour>
      <point x="565" y="360" type="line"/>
      <point x="594" y="524" type="line"/>
      <point x="228" y="524" type="line" smooth="yes"/>
      <point x="128" y="524"/>
      <point x="65" y="420"/>
      <point x="20" y="294" type="curve"/>
      <point x="35" y="290" type="line"/>
      <point x="62" y="346"/>
      <point x="90" y="360"/>
      <point x="129" y="360" type="curve" smooth="yes"/>
    </contour>
    <contour>
      <point x="498" y="448" type="line"/>
      <point x="417" y="448" type="line"/>
      <point x="375" y="294"/>
      <point x="302" y="232"/>
      <point x="284" y="132" type="curve" smooth="yes"/>
      <point x="268" y="41"/>
      <point x="297" y="-10"/>
      <point x="381" y="-10" type="curve" smooth="yes"/>
      <point x="468" y="-10"/>
      <point x="520" y="46"/>
      <point x="556" y="143" type="curve"/>
      <point x="534" y="156" type="line"/>
      <point x="508" y="95"/>
      <point x="486" y="56"/>
      <point x="452" y="56" type="curve" smooth="yes"/>
      <point x="440" y="56"/>
      <point x="434" y="62"/>
      <point x="434" y="79" type="curve" smooth="yes"/>
      <point x="434" y="84"/>
      <point x="434" y="91"/>
      <point x="436" y="100" type="curve" smooth="yes"/>
    </contour>
  </outline>
</glyph>
<glyph name="Eukrcyr" format="2">
  <advance width="511"/>
  <unicode hex="0404"/>
  <anchor x="265.72" y="741" name="top"/>
  <anchor x="265.72" y="0" name="bottom"/>
  <outline>
    <contour>
      <point x="184" y="378" type="curve"/>
      <point x="174" y="348" type="line"/>
      <point x="296" y="348"/>
      <point x="332" y="335"/>
      <point x="393" y="320" type="curve"/>
      <point x="408" y="405" type="line"/>
      <point x="341" y="387"/>
      <point x="302" y="379"/>
    </contour>
    <contour>
      <point x="312" y="32" type="curve" smooth="yes"/>
      <point x="257" y="32"/>
      <point x="228" y="80"/>
      <point x="228" y="212" type="curve" smooth="yes"/>
      <point x="228" y="421"/>
      <point x="304" y="687"/>
      <point x="408" y="687" type="curve" smooth="yes"/>
      <point x="474" y="687"/>
      <point x="499" y="593"/>
      <point x="499" y="501" type="curve"/>
      <point x="524" y="501" type="line"/>
      <point x="561" y="710" type="line"/>
      <point x="539" y="710" type="line"/>
      <point x="504" y="600" type="line"/>
      <point x="515" y="582" type="line"/>
      <point x="511" y="683"/>
      <point x="448.7106918239" y="720"/>
      <point x="360" y="720" type="curve" smooth="yes"/>
      <point x="178" y="720"/>
      <point x="29" y="532"/>
      <point x="29" y="293" type="curve" smooth="yes"/>
      <point x="29" y="113"/>
      <point x="110" y="-10"/>
      <point x="258" y="-10" type="curve" smooth="yes"/>
      <point x="383" y="-10"/>
      <point x="465" y="78"/>
      <point x="504" y="236" type="curve"/>
      <point x="478" y="238" type="line"/>
      <point x="441" y="106"/>
      <point x="375" y="32"/>
    </contour>
  </outline>
</glyph>
<glyph name="Ljecyr" format="2">
  <advance width="803"/>
  <unicode hex="0409"/>
  <anchor x="321.2" y="741" name="top"/>
  <outline>
    <contour>
      <point x="263" y="710" type="line"/>
      <point x="257" y="682" type="line"/>
      <point x="500" y="682" type="line"/>
      <point x="508" y="710" type="line"/>
    </contour>
    <contour>
      <point x="535" y="0" type="line" smooth="yes"/>
      <point x="700" y="0"/>
      <point x="794" y="98"/>
      <point x="794" y="241" type="curve" smooth="yes"/>
      <point x="794" y="370"/>
      <point x="698" y="424"/>
      <point x="563" y="424" type="curve" smooth="yes"/>
      <point x="448" y="424" type="line"/>
      <point x="441" y="396" type="line"/>
      <point x="545" y="396" type="line" smooth="yes"/>
      <point x="575" y="396"/>
      <point x="586" y="354"/>
      <point x="586" y="279" type="curve" smooth="yes"/>
      <point x="586" y="128"/>
      <point x="548" y="28"/>
      <point x="492" y="28" type="curve" smooth="yes"/>
      <point x="480" y="28" type="line"/>
      <point x="592" y="658" type="line" smooth="yes"/>
      <point x="596" y="687"/>
      <point x="610" y="690"/>
      <point x="624" y="690" type="curve" smooth="yes"/>
      <point x="632" y="690" type="line"/>
      <point x="636" y="710" type="line"/>
      <point x="385" y="710" type="line"/>
      <point x="266" y="28" type="line" smooth="yes"/>
      <point x="265" y="22"/>
      <point x="254" y="20"/>
      <point x="236" y="20" type="curve" smooth="yes"/>
      <point x="226" y="20" type="line"/>
      <point x="223" y="0" type="line"/>
    </contour>
    <contour>
      <point x="173" y="362" type="line" smooth="yes"/>
      <point x="142" y="218"/>
      <point x="107.3859649123" y="195"/>
      <point x="63" y="195" type="curve" smooth="yes"/>
      <point x="36" y="195"/>
      <point x="18" y="206"/>
      <point x="12" y="210" type="curve"/>
      <point x="-25" y="5" type="line"/>
      <point x="-18" y="-1"/>
      <point x="-1" y="-10"/>
      <point x="26" y="-10" type="curve" smooth="yes"/>
      <point x="117.3055555556" y="-10"/>
      <point x="139.3267010776" y="72.8197319102"/>
      <point x="199" y="349" type="curve" smooth="yes"/>
      <point x="277" y="710" type="line"/>
      <point x="208" y="710" type="line"/>
      <point x="204" y="690" type="line"/>
      <point x="216" y="690" type="line" smooth="yes"/>
      <point x="234" y="690"/>
      <point x="242" y="680"/>
      <point x="237" y="658" type="curve" smooth="yes"/>
    </contour>
  </outline>
</glyph>
<glyph name="Njecyr" format="2">
  <advance width="846"/>
  <unicode hex="040A"/>
  <anchor x="313.02" y="741" name="top"/>
  <outline>
    <contour>
      <point x="189" y="400" type="line"/>
      <point x="184" y="372" type="line"/>
      <point x="470" y="372" type="line"/>
      <point x="475" y="400" type="line"/>
    </contour>
    <contour>
      <point x="-35" y="0" type="line"/>
      <point x="253" y="0" type="line"/>
      <point x="256" y="20" type="line"/>
      <point x="250" y="20" type="line" smooth="yes"/>
      <point x="238" y="20"/>
      <point x="221" y="23"/>
      <point x="222" y="29" type="curve" smooth="yes"/>
      <point x="338" y="682" type="line" smooth="yes"/>
      <point x="339" y="688"/>
      <point x="354" y="690"/>
      <point x="368" y="690" type="curve" smooth="yes"/>
      <point x="374" y="690" type="line"/>
      <point x="378" y="710" type="line"/>
      <point x="90" y="710" type="line"/>
      <point x="86" y="690" type="line"/>
      <point x="94" y="690" type="line" smooth="yes"/>
      <point x="112" y="690"/>
      <point x="122" y="684"/>
      <point x="118" y="658" type="curve" smooth="yes"/>
      <point x="12" y="52" type="line" smooth="yes"/>
      <point x="6" y="25"/>
      <point x="-4" y="20"/>
      <point x="-22" y="20" type="curve" smooth="yes"/>
      <point x="-32" y="20" type="line"/>
    </contour>
    <contour>
      <point x="578" y="0" type="line" smooth="yes"/>
      <point x="749" y="0"/>
      <point x="837" y="85.9444444444"/>
      <point x="837" y="221" type="curve" smooth="yes"/>
      <point x="837" y="347.1626506024"/>
      <point x="746" y="400"/>
      <point x="604" y="400" type="curve" smooth="yes"/>
      <point x="511" y="400" type="line"/>
      <point x="486" y="372" type="line"/>
      <point x="584" y="372" type="line" smooth="yes"/>
      <point x="618" y="372"/>
      <point x="629" y="340"/>
      <point x="629" y="263" type="curve" smooth="yes"/>
      <point x="629" y="130"/>
      <point x="591" y="28"/>
      <point x="536" y="28" type="curve" smooth="yes"/>
      <point x="524" y="28" type="line"/>
      <point x="634" y="658" type="line" smooth="yes"/>
      <point x="640" y="687"/>
      <point x="652" y="690"/>
      <point x="666" y="690" type="curve" smooth="yes"/>
      <point x="676" y="690" type="line"/>
      <point x="679" y="710" type="line"/>
      <point x="391" y="710" type="line"/>
      <point x="388" y="690" type="line"/>
      <point x="398" y="690" type="line" smooth="yes"/>
      <point x="412" y="690"/>
      <point x="423" y="688"/>
      <point x="422" y="682" type="curve" smooth="yes"/>
      <point x="308" y="29" type="line" smooth="yes"/>
      <point x="307" y="23"/>
      <point x="296" y="20"/>
      <point x="278" y="20" type="curve" smooth="yes"/>
      <point x="270" y="20" type="line"/>
      <point x="266" y="0" type="line"/>
    </contour>
  </outline>
</glyph>
<glyph name="Decyr" format="2">
  <advance width="585"/>
  <unicode hex="0414"/>
  <anchor x="315.9" y="741" name="top"/>
  <outline>
    <contour>
      <point x="259" y="710" type="line"/>
      <point x="252" y="682" type="line"/>
      <point x="520" y="682" type="line"/>
      <point x="528" y="710" type="line"/>
    </contour>
    <contour>
      <point x="488" y="0" type="line"/>
      <point x="604" y="658" type="line" smooth="yes"/>
      <point x="608" y="682"/>
      <point x="618" y="690"/>
      <point x="636" y="690" type="curve" smooth="yes"/>
      <point x="646" y="690" type="line"/>
      <point x="650" y="710" type="line"/>
      <point x="398" y="710" type="line"/>
      <point x="272" y="0" type="line"/>
    </contour>
    <contour>
      <point x="469" y="-50" type="curve" smooth="yes"/>
      <point x="479" y="-170" type="line"/>
      <point x="507" y="-170" type="line"/>
      <point x="544" y="28" type="line"/>
      <point x="-32" y="28" type="line"/>
      <point x="-67" y="-170" type="line"/>
      <point x="-39" y="-170" type="line"/>
      <point x="12" y="-60" type="line" smooth="yes"/>
      <point x="32" y="-16"/>
      <point x="48" y="0"/>
      <point x="145" y="0" type="curve" smooth="yes"/>
      <point x="382" y="0" type="line" smooth="yes"/>
      <point x="438" y="0"/>
      <point x="465" y="-7"/>
    </contour>
    <contour>
      <point x="62" y="24" type="line"/>
      <point x="113.9473790266" y="96.9261282489"/>
      <point x="162.0582774164" y="246.2503770484"/>
      <point x="189" y="362" type="curve" smooth="yes"/>
      <point x="270" y="710" type="line"/>
      <point x="200" y="710" type="line"/>
      <point x="196" y="690" type="line"/>
      <point x="208" y="690" type="line" smooth="yes"/>
      <point x="226" y="690"/>
      <point x="236" y="683"/>
      <point x="230" y="658" type="curve" smooth="yes"/>
      <point x="162" y="367" type="line" smooth="yes"/>
      <point x="137.5163156898" y="262.2242333196"/>
      <point x="83" y="96"/>
      <point x="20" y="24" type="curve"/>
    </contour>
  </outline>
</glyph>
<glyph name="Zecyr" format="2">
  <advance width="488"/>
  <unicode hex="0417"/>
  <anchor x="263.52" y="741" name="top"/>
  <anchor x="263.52" y="0" name="bottom"/>
  <outline>
    <contour>
      <point x="250" y="-10" type="curve" smooth="yes"/>
      <point x="380" y="-10"/>
      <point x="476" y="58"/>
      <point x="476" y="195" type="curve" smooth="yes"/>
      <point x="476" y="301.6432432432"/>
      <point x="392" y="373"/>
      <point x="230" y="376" type="curve"/>
      <point x="251" y="363" type="line"/>
      <point x="255" y="384" type="line"/>
      <point x="231" y="370" type="line"/>
      <point x="437" y="370"/>
      <point x="505" y="468"/>
      <point x="505" y="574" type="curve" smooth="yes"/>
      <point x="505" y="650"/>
      <point x="452" y="720"/>
      <point x="326" y="720" type="curve" smooth="yes"/>
      <point x="212" y="720"/>
      <point x="155" y="656"/>
      <point x="118" y="573" type="curve"/>
      <point x="135" y="575" type="line"/>
      <point x="147" y="710" type="line"/>
      <point x="125" y="710" type="line"/>
      <point x="89" y="508" type="line"/>
      <point x="114" y="508" type="line"/>
      <point x="149" y="617"/>
      <point x="212.0218978102" y="676"/>
      <point x="246" y="676" type="curve" smooth="yes"/>
      <point x="278.3142857143" y="676"/>
      <point x="285" y="638.6421052632"/>
      <point x="285" y="585" type="curve" smooth="yes"/>
      <point x="285" y="505.1813471503"/>
      <point x="271.662458184" y="367.283981027"/>
      <point x="202" y="390" type="curve" smooth="yes"/>
      <point x="156" y="405" type="line"/>
      <point x="142" y="326" type="line"/>
      <point x="185" y="346" type="line" smooth="yes"/>
      <point x="247.1150205821" y="374.8907072475"/>
      <point x="255" y="304.6956521739"/>
      <point x="255" y="221" type="curve" smooth="yes"/>
      <point x="255" y="93.3248730964"/>
      <point x="230" y="29"/>
      <point x="179" y="29" type="curve" smooth="yes"/>
      <point x="114" y="29"/>
      <point x="63.7769552113" y="111.5928956682"/>
      <point x="56" y="202" type="curve"/>
      <point x="30" y="202" type="line"/>
      <point x="-6" y="0" type="line"/>
      <point x="16" y="0" type="line"/>
      <point x="55" y="121" type="line"/>
      <point x="40" y="125" type="line"/>
      <point x="70" y="42"/>
      <point x="128" y="-10"/>
    </contour>
  </outline>
</glyph>
<glyph name="Icyr" format="2">
  <advance width="622"/>
  <unicode hex="0418"/>
  <anchor x="311.0" y="741" name="top"/>
  <outline>
    <contour>
      <point x="225" y="160" type="line"/>
      <point x="235" y="120" type="line"/>
      <point x="439" y="549" type="line"/>
      <point x="428" y="589" type="line"/>
    </contour>
    <contour>
      <point x="-35" y="0" type="line"/>
      <point x="253" y="0" type="line"/>
      <point x="256" y="20" type="line"/>
      <point x="250" y="20" type="line" smooth="yes"/>
      <point x="238" y="20"/>
      <point x="221" y="23"/>
      <point x="222" y="29" type="curve" smooth="yes"/>
      <point x="338" y="682" type="line" smooth="yes"/>
      <point x="339" y="688"/>
      <point x="354" y="690"/>
      <point x="368" y="690" type="curve" smooth="yes"/>
      <point x="374" y="690" type="line"/>
      <point x="378" y="710" type="line"/>
      <point x="90" y="710" type="line"/>
      <point x="86" y="690" type="line"/>
      <point x="94" y="690" type="line" smooth="yes"/>
      <point x="112" y="690"/>
      <point x="122" y="684"/>
      <point x="118" y="658" type="curve" smooth="yes"/>
      <point x="12" y="52" type="line" smooth="yes"/>
      <point x="6" y="25"/>
      <point x="-4" y="20"/>
      <point x="-22" y="20" type="curve" smooth="yes"/>
      <point x="-32" y="20" type="line"/>
    </contour>
    <contour>
      <point x="284" y="0" type="line"/>
      <point x="572" y="0" type="line"/>
      <point x="576" y="20" type="line"/>
      <point x="568" y="20" type="line" smooth="yes"/>
      <point x="550" y="20"/>
      <point x="540" y="26"/>
      <point x="544" y="52" type="curve" smooth="yes"/>
      <point x="650" y="658" type="line" smooth="yes"/>
      <point x="656" y="685"/>
      <point x="666" y="690"/>
      <point x="684" y="690" type="curve" smooth="yes"/>
      <point x="694" y="690" type="line"/>
      <point x="697" y="710" type="line"/>
      <point x="409" y="710" type="line"/>
      <point x="406" y="690" type="line"/>
      <point x="412" y="690" type="line" smooth="yes"/>
      <point x="424" y="690"/>
      <point x="441" y="686"/>
      <point x="440" y="680" type="curve" smooth="yes"/>
      <point x="324" y="28" type="line" smooth="yes"/>
      <point x="323" y="22"/>
      <point x="308" y="20"/>
      <point x="294" y="20" type="curve" smooth="yes"/>
      <point x="288" y="20" type="line"/>
    </contour>
  </outline>
</glyph>
<glyph name="Efcyr" format="2">
  <advance width="845"/>
  <unicode hex="0424"/>
  <anchor x="422.5" y="741" name="top"/>
  <anchor x="422.5" y="0" name="bottom"/>
  <outline>
    <contour>
      <point x="278" y="32" type="line" smooth="yes"/>
      <point x="274" y="7"/>
      <point x="264" y="0"/>
      <point x="246" y="0" type="curve" smooth="yes"/>
      <point x="236" y="0" type="line"/>
      <point x="232" y="-20" type="line"/>
      <point x="521" y="-20" type="line"/>
      <point x="524" y="0" type="line"/>
      <point x="516" y="0" type="line" smooth="yes"/>
      <point x="500" y="0"/>
      <point x="488" y="5"/>
      <point x="494" y="32" type="curve" smooth="yes"/>
      <point x="606" y="678" type="line" smooth="yes"/>
      <point x="610" y="702"/>
      <point x="622" y="710"/>
      <point x="638" y="710" type="curve" smooth="yes"/>
      <point x="650" y="710" type="line"/>
      <point x="653" y="730" type="line"/>
      <point x="364" y="730" type="line"/>
      <point x="361" y="710" type="line"/>
      <point x="369" y="710" type="line" smooth="yes"/>
      <point x="388" y="710"/>
      <point x="396" y="702"/>
      <point x="392" y="678" type="curve" smooth="yes"/>
    </contour>
    <contour>
      <point x="383" y="612" type="line"/>
      <point x="163.7674587289" y="601.9434614096"/>
      <point x="28" y="512"/>
      <point x="28" y="330" type="curve" smooth="yes"/>
      <point x="28" y="167"/>
      <point x="161" y="108"/>
      <point x="292" y="98" type="curve"/>
      <point x="298" y="130" type="line"/>
      <point x="266" y="138"/>
      <point x="253" y="180"/>
      <point x="253" y="252" type="curve" smooth="yes"/>
      <point x="253" y="401"/>
      <point x="298.7520551153" y="569.8400070661"/>
      <point x="378" y="580" type="curve"/>
    </contour>
    <contour>
      <point x="502" y="98" type="line"/>
      <point x="723.2509838982" y="108.0568629045"/>
      <point x="855" y="213"/>
      <point x="855" y="390" type="curve" smooth="yes"/>
      <point x="855" y="547"/>
      <point x="732.0596704013" y="601.9237647193"/>
      <point x="592" y="612" type="curve"/>
      <point x="587" y="580" type="line"/>
      <point x="618.3715085002" y="575.8171322"/>
      <point x="632" y="539"/>
      <point x="632" y="455" type="curve" smooth="yes"/>
      <point x="632" y="313"/>
      <point x="585.2248665417" y="140.1611666502"/>
      <point x="508" y="130" type="curve"/>
    </contour>
  </outline>
</glyph>
<glyph name="Tsecyr" format="2">
  <advance width="615"/>
  <unicode hex="0426"/>
  <anchor x="307.5" y="741" name="top"/>
  <outline>
    <contour>
      <point x="412" y="0" type="line" smooth="yes"/>
      <point x="468" y="0"/>
      <point x="495" y="-7"/>
      <point x="499" y="-50" type="curve" smooth="yes"/>
      <point x="509" y="-170" type="line"/>
      <point x="537" y="-170" type="line"/>
      <point x="574" y="28" type="line"/>
      <point x="396" y="28" type="line"/>
      <point x="384" y="0" type="line"/>
    </contour>
    <contour>
      <point x="324" y="0" type="line"/>
      <point x="330" y="28" type="line"/>
      <point x="194" y="28" type="line"/>
      <point x="187" y="0" type="line"/>
    </contour>
    <contour>
      <point x="-35" y="0" type="line"/>
      <point x="218" y="0" type="line"/>
      <point x="338" y="682" type="line" smooth="yes"/>
      <point x="339" y="688"/>
      <point x="352" y="690"/>
      <point x="364" y="690" type="curve" smooth="yes"/>
      <point x="372" y="690" type="line"/>
      <point x="375" y="710" type="line"/>
      <point x="90" y="710" type="line"/>
      <point x="86" y="690" type="line"/>
      <point x="94" y="690" type="line" smooth="yes"/>
      <point x="112" y="690"/>
      <point x="122" y="684"/>
      <point x="118" y="658" type="curve" smooth="yes"/>
      <point x="12" y="52" type="line" smooth="yes"/>
      <point x="6" y="25"/>
      <point x="-4" y="20"/>
      <point x="-22" y="20" type="curve" smooth="yes"/>
      <point x="-32" y="20" type="line"/>
    </contour>
    <contour>
      <point x="518" y="0" type="line"/>
      <point x="634" y="658" type="line" smooth="yes"/>
      <point x="638" y="685"/>
      <point x="650" y="690"/>
      <point x="668" y="690" type="curve" smooth="yes"/>
      <point x="676" y="690" type="line"/>
      <point x="680" y="710" type="line"/>
      <point x="395" y="710" type="line"/>
      <point x="392" y="690" type="line"/>
      <point x="398" y="690" type="line" smooth="yes"/>
      <point x="409" y="690"/>
      <point x="423" y="686"/>
      <point x="422" y="680" type="curve" smooth="yes"/>
      <point x="303" y="0" type="line"/>
    </contour>
  </outline>
</glyph>
<glyph name="Hardcyr" format="2">
  <advance width="647"/>
  <unicode hex="042A"/>
  <anchor x="226.45" y="741" name="top"/>
  <outline>
    <contour>
      <point x="224" y="682" type="line"/>
      <point x="114" y="52" type="line" smooth="yes"/>
      <point x="109" y="26"/>
      <point x="98" y="20"/>
      <point x="80" y="20" type="curve" smooth="yes"/>
      <point x="70" y="20" type="line"/>
      <point x="67" y="0" type="line"/>
      <point x="379" y="0" type="line" smooth="yes"/>
      <point x="544" y="0"/>
      <point x="638" y="98"/>
      <point x="638" y="241" type="curve" smooth="yes"/>
      <point x="638" y="370"/>
      <point x="541" y="424"/>
      <point x="407" y="424" type="curve" smooth="yes"/>
      <point x="312" y="424" type="line"/>
      <point x="284" y="396" type="line"/>
      <point x="389" y="396" type="line" smooth="yes"/>
      <point x="422" y="396"/>
      <point x="430" y="351"/>
      <point x="430" y="289" type="curve" smooth="yes"/>
      <point x="430" y="132"/>
      <point x="392" y="28"/>
      <point x="336" y="28" type="curve" smooth="yes"/>
      <point x="324" y="28" type="line"/>
      <point x="440" y="682" type="line" smooth="yes"/>
      <point x="441" y="687"/>
      <point x="454" y="690"/>
      <point x="468" y="690" type="curve" smooth="yes"/>
      <point x="476" y="690" type="line"/>
      <point x="480" y="710" type="line"/>
      <point x="92" y="710" type="line"/>
      <point x="51" y="488" type="line"/>
      <point x="67" y="488" type="line"/>
      <point x="119" y="631" type="line" smooth="yes"/>
      <point x="135" y="675"/>
      <point x="152" y="682"/>
      <point x="184" y="682" type="curve" smooth="yes"/>
    </contour>
  </outline>
</glyph>
<glyph name="becyr" format="2">
  <advance width="493"/>
  <unicode hex="0431"/>
  <anchor x="256.36" y="750" name="top"/>
  <outline>
    <contour>
      <point x="270" y="412" type="curve" smooth="yes"/>
      <point x="286" y="412"/>
      <point x="292" y="398"/>
      <point x="292" y="339" type="curve" smooth="yes"/>
      <point x="292" y="241"/>
      <point x="266" y="15"/>
      <point x="229" y="15" type="curve" smooth="yes"/>
      <point x="213" y="15"/>
      <point x="208" y="37"/>
      <point x="208" y="78" type="curve" smooth="yes"/>
      <point x="208" y="129"/>
      <point x="223" y="268"/>
      <point x="241" y="393" type="curve"/>
      <point x="227" y="385" type="line"/>
      <point x="235" y="545"/>
      <point x="256.9589100478" y="565.6718488791"/>
      <point x="334" y="570" type="curve" smooth="yes"/>
      <point x="512" y="580" type="line"/>
      <point x="545" y="760" type="line"/>
      <point x="436" y="753" type="line" smooth="yes"/>
      <point x="149" y="734"/>
      <point x="28" y="493"/>
      <point x="28" y="241" type="curve" smooth="yes"/>
      <point x="28" y="71"/>
      <point x="112" y="-10"/>
      <point x="233" y="-10" type="curve" smooth="yes"/>
      <point x="397" y="-10"/>
      <point x="491" y="130"/>
      <point x="491" y="288" type="curve" smooth="yes"/>
      <point x="491" y="421"/>
      <point x="452" y="494"/>
      <point x="363" y="494" type="curve" smooth="yes"/>
      <point x="292" y="494"/>
      <point x="236" y="430"/>
      <point x="186" y="310" type="curve"/>
      <point x="198" y="284" type="line"/>
      <point x="232" y="372"/>
      <point x="248" y="412"/>
    </contour>
  </outline>
</glyph>
<glyph name="vecyr" format="2">
  <advance width="494"/>
  <unicode hex="0432"/>
  <anchor x="227.24" y="551" name="top"/>
  <outline>
    <contour>
      <point x="221" y="15" type="curve" smooth="yes"/>
      <point x="207" y="15"/>
      <point x="201" y="28"/>
      <point x="201" y="70" type="curve" smooth="yes"/>
      <point x="201" y="220"/>
      <point x="254" y="508"/>
      <point x="299" y="508" type="curve" smooth="yes"/>
      <point x="310" y="508"/>
      <point x="316" y="497"/>
      <point x="316" y="460" type="curve" smooth="yes"/>
      <point x="316" y="369"/>
      <point x="286" y="285"/>
      <point x="231" y="285" type="curve" smooth="yes"/>
      <point x="160" y="285" type="line"/>
      <point x="154" y="260" type="line"/>
      <point x="227" y="260" type="line" smooth="yes"/>
      <point x="254" y="260"/>
      <point x="266" y="238"/>
      <point x="266" y="180" type="curve" smooth="yes"/>
      <point x="266" y="80"/>
      <point x="244" y="15"/>
    </contour>
    <contour>
      <point x="309" y="534" type="curve" smooth="yes"/>
      <point x="107" y="534"/>
      <point x="19" y="378"/>
      <point x="19" y="224" type="curve" smooth="yes"/>
      <point x="19" y="78"/>
      <point x="87" y="-10"/>
      <point x="235" y="-10" type="curve" smooth="yes"/>
      <point x="370" y="-10"/>
      <point x="474" y="44"/>
      <point x="474" y="150" type="curve" smooth="yes"/>
      <point x="474" y="224"/>
      <point x="411" y="277"/>
      <point x="259" y="277" type="curve"/>
      <point x="294" y="266" type="line"/>
      <point x="296" y="282" type="line"/>
      <point x="265" y="271" type="line"/>
      <point x="437" y="271"/>
      <point x="496" y="333"/>
      <point x="496" y="415" type="curve" smooth="yes"/>
      <point x="496" y="491"/>
      <point x="416" y="534"/>
    </contour>
  </outline>
</glyph>
<glyph name="gecyr" format="2">
  <advance width="417"/>
  <unicode hex="0433"/>
  <anchor x="208.5" y="551" name="top"/>
  <outline>
    <contour>
      <point x="149" y="77" type="curve" smooth="yes"/>
      <point x="149" y="39.2580645161"/>
      <point x="170" y="17"/>
      <point x="214" y="17" type="curve" smooth="yes"/>
      <point x="240" y="17"/>
      <point x="255.7096019315" y="20.8771392787"/>
      <point x="282" y="32" type="curve"/>
      <point x="282" y="27.5"/>
      <point x="277.6935450234" y="12.7409259477"/>
      <point x="260" y="5" type="curve"/>
      <point x="284" y="143" type="line"/>
      <point x="400" y="143" type="line"/>
      <point x="383" y="42" type="line"/>
      <point x="343" y="13"/>
      <point x="288" y="-10"/>
      <point x="200" y="-10" type="curve" smooth="yes"/>
      <point x="84" y="-10"/>
      <point x="6" y="45"/>
      <point x="6" y="146" type="curve" smooth="yes"/>
      <point x="6" y="256"/>
      <point x="85" y="303"/>
      <point x="170" y="339" type="curve" smooth="yes"/>
      <point x="267" y="378"/>
      <point x="295" y="406"/>
      <point x="295" y="456" type="curve" smooth="yes"/>
      <point x="295" y="490"/>
      <point x="279" y="510"/>
      <point x="244" y="510" type="curve" smooth="yes"/>
      <point x="220" y="510"/>
      <point x="209" y="506"/>
      <point x="195" y="499" type="curve"/>
      <point x="197.3604104329" y="506.8680347762"/>
      <point x="203.2144637357" y="510.2144637357"/>
      <point x="205" y="512" type="curve"/>
      <point x="184" y="398" type="line"/>
      <point x="69" y="398" type="line"/>
      <point x="84" y="480" type="line"/>
      <point x="113" y="501"/>
      <point x="171" y="533"/>
      <point x="262" y="533" type="curve" smooth="yes"/>
      <point x="359" y="533"/>
      <point x="420" y="482"/>
      <point x="420" y="395" type="curve" smooth="yes"/>
      <point x="420" y="280"/>
      <point x="359" y="228"/>
      <point x="245" y="183" type="curve" smooth="yes"/>
      <point x="167" y="153"/>
      <point x="149" y="121"/>
    </contour>
  </outline>
</glyph>
<glyph name="decyr" format="2">
  <advance width="494"/>
  <unicode hex="0434"/>
  <anchor x="251.94" y="750" name="top"/>
  <outline>
    <contour>
      <point x="244" y="703" type="curve" smooth="yes"/>
      <point x="299.1641791045" y="703"/>
      <point x="321" y="651"/>
      <point x="321" y="527" type="curve" smooth="yes"/>
      <point x="321" y="473"/>
      <point x="314" y="386"/>
      <point x="301" y="300" type="curve" smooth="yes"/>
      <point x="279" y="147"/>
      <point x="250" y="15"/>
      <point x="218" y="15" type="curve" smooth="yes"/>
      <point x="205" y="15"/>
      <point x="201" y="34"/>
      <point x="201" y="72" type="curve" smooth="yes"/>
      <point x="201" y="103"/>
      <point x="215" y="224"/>
      <point x="234" y="320" type="curve" smooth="yes"/>
      <point x="249" y="403"/>
      <point x="268" y="475"/>
      <point x="294" y="475" type="curve" smooth="yes"/>
      <point x="317" y="475"/>
      <point x="322" y="443"/>
      <point x="330" y="354" type="curve"/>
      <point x="340" y="415" type="line"/>
      <point x="330.0085323622" y="496.9300346298"/>
      <point x="299" y="532"/>
      <point x="232" y="532" type="curve" smooth="yes"/>
      <point x="128" y="532"/>
      <point x="21" y="416"/>
      <point x="21" y="225" type="curve" smooth="yes"/>
      <point x="21" y="97"/>
      <point x="90" y="-10"/>
      <point x="226" y="-10" type="curve" smooth="yes"/>
      <point x="409" y="-10"/>
      <point x="495" y="206"/>
      <point x="495" y="471" type="curve" smooth="yes"/>
      <point x="495" y="640"/>
      <point x="434" y="760"/>
      <point x="303" y="760" type="curve" smooth="yes"/>
      <point x="216" y="760"/>
      <point x="152.2732572573" y="713.5920573907"/>
      <point x="98" y="596" type="curve"/>
      <point x="117" y="593" type="line"/>
      <point x="161.2492550474" y="673.8029874779"/>
      <point x="197.9855072464" y="703"/>
    </contour>
  </outline>
</glyph>
<glyph name="emcyr" format="2">
  <advance width="742"/>
  <unicode hex="043C"/>
  <anchor x="371.0" y="551" name="top"/>
  <outline>
    <contour>
      <point x="408" y="523" type="line"/>
      <point x="425" y="205" type="line"/>
      <point x="415" y="214" type="line"/>
      <point x="546" y="523" type="line"/>
      <point x="579" y="523" type="line"/>
      <point x="357" y="0" type="line"/>
      <point x="246" y="0" type="line"/>
      <point x="218" y="523" type="line"/>
    </contour>
    <contour>
      <point x="158" y="320" type="curve" smooth="yes"/>
      <point x="190" y="473" type="line" smooth="yes"/>
      <point x="194" y="493"/>
      <point x="187" y="500"/>
      <point x="178" y="502" type="curve" smooth="yes"/>
      <point x="168" y="504" type="line"/>
      <point x="171" y="523" type="line"/>
      <point x="230" y="523" type="line"/>
      <point x="174" y="256" type="line" smooth="yes"/>
      <point x="130" y="44"/>
      <point x="109" y="-10"/>
      <point x="26" y="-10" type="curve" smooth="yes"/>
      <point x="6" y="-10"/>
      <point x="-12" y="-5"/>
      <point x="-18" y="0" type="curve"/>
      <point x="14" y="173" type="line"/>
      <point x="20" y="167"/>
      <point x="36" y="160"/>
      <point x="54" y="160" type="curve" smooth="yes"/>
      <point x="111.4476190476" y="160"/>
      <point x="129.5850013028" y="184.140787479"/>
    </contour>
    <contour>
      <point x="685" y="55" type="curve" smooth="yes"/>
      <point x="685" y="39"/>
      <point x="689.6875" y="33"/>
      <point x="700" y="33" type="curve" smooth="yes"/>
      <point x="708.4444444444" y="33"/>
      <point x="714" y="37"/>
      <point x="719" y="41" type="curve"/>
      <point x="716" y="21" type="line"/>
      <point x="693" y="2"/>
      <point x="656.4485981308" y="-10"/>
      <point x="608" y="-10" type="curve" smooth="yes"/>
      <point x="530.3859649123" y="-10"/>
      <point x="496" y="36"/>
      <point x="496" y="95" type="curve" smooth="yes"/>
      <point x="496" y="133"/>
      <point x="502.2041769246" y="165.0946196958"/>
      <point x="507" y="192" type="curve" smooth="yes"/>
      <point x="566" y="523" type="line"/>
      <point x="766" y="523" type="line"/>
      <point x="698" y="141" type="line" smooth="yes"/>
      <point x="691" y="102"/>
      <point x="685" y="74"/>
    </contour>
  </outline>
</glyph>
<glyph name="shacyr" format="2">
  <advance width="754"/>
  <unicode hex="0448"/>
  <anchor x="377.0" y="551" name="top"/>
  <outline>
    <contour>
      <point x="216" y="139" type="curve" smooth="yes"/>
      <point x="289" y="523" type="line"/>
      <point x="62" y="523" type="line"/>
      <point x="58" y="504" type="line"/>
      <point x="68" y="502" type="line" smooth="yes"/>
      <point x="78" y="500"/>
      <point x="82" y="492"/>
      <point x="78" y="473" type="curve" smooth="yes"/>
      <point x="17" y="145" type="line" smooth="yes"/>
      <point x="14" y="130"/>
      <point x="13" y="114"/>
      <point x="13" y="100" type="curve" smooth="yes"/>
      <point x="13" y="39"/>
      <point x="40" y="-10"/>
      <point x="109" y="-10" type="curve" smooth="yes"/>
      <point x="184" y="-10"/>
      <point x="257" y="51"/>
      <point x="295" y="172" type="curve"/>
      <point x="287" y="205" type="line"/>
      <point x="266.933846642" y="125.7386942358"/>
      <point x="244.8571428571" y="103"/>
      <point x="228" y="103" type="curve" smooth="yes"/>
      <point x="220" y="103"/>
      <point x="214" y="110"/>
      <point x="214" y="120" type="curve" smooth="yes"/>
      <point x="214" y="126"/>
      <point x="215" y="133"/>
    </contour>
    <contour>
      <point x="700" y="84" type="curve" smooth="yes"/>
      <point x="778" y="523" type="line"/>
      <point x="578" y="523" type="line"/>
      <point x="505" y="115" type="line"/>
      <point x="510" y="115" type="line"/>
      <point x="510" y="112.8888888889"/>
      <point x="508" y="102.3333333333"/>
      <point x="508" y="96" type="curve" smooth="yes"/>
      <point x="508" y="30"/>
      <point x="547" y="-10"/>
      <point x="623" y="-10" type="curve" smooth="yes"/>
      <point x="669" y="-10"/>
      <point x="707" y="3"/>
      <point x="728" y="21" type="curve"/>
      <point x="731" y="41" type="line"/>
      <point x="726" y="37"/>
      <point x="720" y="33"/>
      <point x="712" y="33" type="curve" smooth="yes"/>
      <point x="703.5625" y="33"/>
      <point x="697" y="37"/>
      <point x="697" y="54" type="curve" smooth="yes"/>
      <point x="697" y="62"/>
      <point x="697.7240832344" y="71.1906735884"/>
    </contour>
    <contour>
      <point x="462" y="139" type="curve" smooth="yes"/>
      <point x="534" y="523" type="line"/>
      <point x="333" y="523" type="line"/>
      <point x="263" y="145" type="line" smooth="yes"/>
      <point x="260" y="130"/>
      <point x="259" y="114"/>
      <point x="259" y="100" type="curve" smooth="yes"/>
      <point x="259" y="39"/>
      <point x="286" y="-10"/>
      <point x="355" y="-10" type="curve" smooth="yes"/>
      <point x="430" y="-10"/>
      <point x="503" y="51"/>
      <point x="541" y="172" type="curve"/>
      <point x="533" y="205" type="line"/>
      <point x="512.933846642" y="125.7386942358"/>
      <point x="490.8571428571" y="103"/>
      <point x="474" y="103" type="curve" smooth="yes"/>
      <point x="466" y="103"/>
      <point x="460" y="110"/>
      <point x="460" y="120" type="curve" smooth="yes"/>
      <point x="460" y="126"/>
      <point x="461" y="133"/>
    </contour>
  </outline>
</glyph>
<glyph name="hardcyr" format="2">
  <advance width="517"/>
  <unicode hex="044A"/>
  <anchor x="201.63" y="551" name="top"/>
  <outline>
    <contour>
      <point x="312" y="316" type="curve" smooth="yes"/>
      <point x="438" y="492" type="line"/>
      <point x="443" y="523" type="line"/>
      <point x="55" y="523" type="line"/>
      <point x="19" y="330" type="line"/>
      <point x="58" y="330" type="line"/>
      <point x="106" y="429" type="line" smooth="yes"/>
      <point x="123" y="466"/>
      <point x="140" y="493"/>
      <point x="185" y="493" type="curve" smooth="yes"/>
      <point x="370" y="493" type="line"/>
      <point x="240" y="505" type="line"/>
      <point x="149" y="378" type="line" smooth="yes"/>
      <point x="68.8429706457" y="266.1324974946"/>
      <point x="39" y="214"/>
      <point x="39" y="150" type="curve" smooth="yes"/>
      <point x="39" y="42"/>
      <point x="123" y="-10"/>
      <point x="266" y="-10" type="curve" smooth="yes"/>
      <point x="426" y="-10"/>
      <point x="511" y="64"/>
      <point x="511" y="176" type="curve" smooth="yes"/>
      <point x="511" y="271"/>
      <point x="421" y="326"/>
      <point x="306" y="326" type="curve" smooth="yes"/>
      <point x="191" y="326" type="line"/>
      <point x="147" y="301" type="line"/>
      <point x="301" y="301" type="line" smooth="yes"/>
      <point x="310" y="301"/>
      <point x="313" y="270"/>
      <point x="313" y="217" type="curve" smooth="yes"/>
      <point x="313" y="129"/>
      <point x="295" y="15"/>
      <point x="258" y="15" type="curve" smooth="yes"/>
      <point x="242" y="15"/>
      <point x="237" y="33"/>
      <point x="237" y="70" type="curve" smooth="yes"/>
      <point x="237" y="136"/>
      <point x="262" y="247"/>
    </contour>
  </outline>
</glyph>
<glyph name="ylongcyr" format="2">
  <advance width="748"/>
  <unicode hex="044B"/>
  <anchor x="374.0" y="551" name="top"/>
  <outline>
    <contour>
      <point x="691" y="54" type="curve" smooth="yes"/>
      <point x="691" y="40"/>
      <point x="695" y="33"/>
      <point x="706" y="33" type="curve" smooth="yes"/>
      <point x="715" y="33"/>
      <point x="721" y="38"/>
      <point x="725" y="41" type="curve"/>
      <point x="722" y="21" type="line"/>
      <point x="700.886638199" y="2.902832742"/>
      <point x="665" y="-10"/>
      <point x="614" y="-10" type="curve" smooth="yes"/>
      <point x="530.4912280702" y="-10"/>
      <point x="502" y="42"/>
      <point x="502" y="98" type="curve" smooth="yes"/>
      <point x="502" y="130"/>
      <point x="509.3842941427" y="171.0565498367"/>
      <point x="514" y="197" type="curve" smooth="yes"/>
      <point x="572" y="523" type="line"/>
      <point x="772" y="523" type="line"/>
      <point x="699" y="113" type="line" smooth="yes"/>
      <point x="695" y="92"/>
      <point x="691" y="68"/>
    </contour>
    <component base="softcyr"/>
  </outline>
</glyph>
<glyph name="yacyr" format="2">
  <advance width="537"/>
  <unicode hex="044F"/>
  <anchor x="279.24" y="551" name="top"/>
  <anchor x="241.65" y="0" name="bottom"/>
  <outline>
    <contour>
      <point x="122" y="289" type="line"/>
      <point x="32" y="67" type="line" smooth="yes"/>
      <point x="19" y="35"/>
      <point x="8" y="25"/>
      <point x="-4" y="25" type="curve" smooth="yes"/>
      <point x="-12" y="25" type="line"/>
      <point x="-16" y="0" type="line"/>
      <point x="204" y="0" type="line"/>
      <point x="294" y="222" type="line"/>
    </contour>
    <contour>
      <point x="395" y="469" type="line"/>
      <point x="375" y="509"/>
      <point x="348" y="533"/>
      <point x="280" y="533" type="curve" smooth="yes"/>
      <point x="148" y="533"/>
      <point x="71" y="441"/>
      <point x="71" y="338" type="curve" smooth="yes"/>
      <point x="71" y="266"/>
      <point x="124" y="214"/>
      <point x="249" y="214" type="curve" smooth="yes"/>
      <point x="276" y="214"/>
      <point x="300" y="215"/>
      <point x="327" y="225" type="curve"/>
      <point x="331" y="246" type="line"/>
      <point x="319" y="244"/>
      <point x="310" y="242"/>
      <point x="302" y="242" type="curve" smooth="yes"/>
      <point x="283" y="242"/>
      <point x="277" y="261"/>
      <point x="277" y="298" type="curve" smooth="yes"/>
      <point x="277" y="375.5510204082"/>
      <point x="304" y="488"/>
      <point x="341" y="488" type="curve" smooth="yes"/>
      <point x="350" y="488"/>
      <point x="370.4242672253" y="478.6159053387"/>
      <point x="373" y="452" type="curve"/>
    </contour>
    <contour>
      <point x="491" y="129" type="curve" smooth="yes"/>
      <point x="561" y="523" type="line"/>
      <point x="441" y="523" type="line"/>
      <point x="370" y="488" type="line"/>
      <point x="355" y="494" type="line"/>
      <point x="303" y="196" type="line" smooth="yes"/>
      <point x="297.9607809649" y="167.1213986063"/>
      <point x="291" y="135"/>
      <point x="291" y="98" type="curve" smooth="yes"/>
      <point x="291" y="34"/>
      <point x="327.350877193" y="-10"/>
      <point x="403" y="-10" type="curve" smooth="yes"/>
      <point x="449.4299065421" y="-10"/>
      <point x="487" y="1"/>
      <point x="511" y="21" type="curve"/>
      <point x="514" y="41" type="line"/>
      <point x="509" y="37"/>
      <point x="503" y="33"/>
      <point x="495" y="33" type="curve" smooth="yes"/>
      <point x="488" y="33"/>
      <point x="480" y="36"/>
      <point x="480" y="54" type="curve" smooth="yes"/>
      <point x="480" y="68.7435897436"/>
      <point x="482" y="81"/>
    </contour>
  </outline>
</glyph>
<glyph name="djecyr" format="2">
  <advance width="517"/>
  <unicode hex="0452"/>
  <anchor x="253.33" y="750" name="top"/>
  <outline>
    <contour>
      <point x="125" y="750" type="line"/>
      <point x="325" y="750" type="line"/>
      <point x="193" y="0" type="line"/>
      <point x="-7" y="0" type="line"/>
    </contour>
    <contour>
      <point x="68" y="628" type="line"/>
      <point x="418" y="628" type="line"/>
      <point x="414" y="602" type="line"/>
      <point x="64" y="602" type="line"/>
    </contour>
    <contour>
      <point x="432" y="-77" type="line" smooth="yes"/>
      <point x="414" y="-176"/>
      <point x="348" y="-236"/>
      <point x="230" y="-236" type="curve" smooth="yes"/>
      <point x="177.5094339623" y="-236"/>
      <point x="139.1147923072" y="-222.0645706728"/>
      <point x="123" y="-213" type="curve"/>
      <point x="132" y="-190" type="line"/>
      <point x="138" y="-195"/>
      <point x="150" y="-206"/>
      <point x="173" y="-206" type="curve" smooth="yes"/>
      <point x="202" y="-206"/>
      <point x="213" y="-181"/>
      <point x="222" y="-134" type="curve" smooth="yes"/>
      <point x="317" y="384" type="line" smooth="yes"/>
      <point x="318" y="389"/>
      <point x="320" y="399"/>
      <point x="320" y="403" type="curve" smooth="yes"/>
      <point x="320" y="419"/>
      <point x="314" y="424"/>
      <point x="306" y="424" type="curve" smooth="yes"/>
      <point x="288" y="424"/>
      <point x="264" y="400"/>
      <point x="242" y="316" type="curve"/>
      <point x="229" y="346" type="line"/>
      <point x="265" y="465"/>
      <point x="332" y="533"/>
      <point x="425" y="533" type="curve" smooth="yes"/>
      <point x="498" y="533"/>
      <point x="522" y="485"/>
      <point x="522" y="430" type="curve" smooth="yes"/>
      <point x="522" y="416"/>
      <point x="520" y="402"/>
      <point x="518" y="388" type="curve" smooth="yes"/>
    </contour>
  </outline>
</glyph>
<glyph name="eukrcyr" format="2">
  <advance width="432"/>
  <unicode hex="0454"/>
  <guideline x="180" y="548" angle="90" identifier="n4jm0tBg3Y"/>
  <anchor x="237.6" y="551" name="top"/>
  <anchor x="237.6" y="0" name="bottom"/>
  <outline>
    <contour>
      <point x="124" y="259" type="line"/>
      <point x="324" y="259" type="line"/>
      <point x="330" y="284" type="line"/>
      <point x="130" y="284" type="line"/>
    </contour>
    <contour>
      <point x="284" y="46" type="curve" smooth="yes"/>
      <point x="240" y="46"/>
      <point x="220" y="84"/>
      <point x="220" y="201" type="curve" smooth="yes"/>
      <point x="220" y="356"/>
      <point x="259" y="508"/>
      <point x="317" y="508" type="curve" smooth="yes"/>
      <point x="332" y="508"/>
      <point x="347.0767530553" y="500.7953251858"/>
      <point x="356" y="477" type="curve"/>
      <point x="375" y="491"/>
      <point x="359.4271396345" y="512.2748354127"/>
      <point x="337" y="514" type="curve"/>
      <point x="310" y="364" type="line"/>
      <point x="432" y="364" type="line"/>
      <point x="453" y="482" type="line"/>
      <point x="439" y="498"/>
      <point x="389" y="533"/>
      <point x="300" y="533" type="curve" smooth="yes"/>
      <point x="104" y="533"/>
      <point x="19" y="361"/>
      <point x="19" y="221" type="curve" smooth="yes"/>
      <point x="19" y="97"/>
      <point x="87" y="-10"/>
      <point x="220" y="-10" type="curve" smooth="yes"/>
      <point x="324" y="-10"/>
      <point x="392" y="55"/>
      <point x="424" y="153" type="curve"/>
      <point x="405" y="156" type="line"/>
      <point x="376" y="84"/>
      <point x="337" y="46"/>
    </contour>
  </outline>
</glyph>
